<?xml version="1.0" encoding="UTF-8" standalone="no"?><svg xmlns="http://www.w3.org/2000/svg" xmlns:xlink="http://www.w3.org/1999/xlink" contentScriptType="application/ecmascript" contentStyleType="text/css" height="1747px" preserveAspectRatio="none" style="width:757px;height:1747px;" version="1.1" viewBox="0 0 757 1747" width="757px" zoomAndPan="magnify"><defs><filter height="300%" id="f1loja2df9w06g" width="300%" x="-1" y="-1"><feGaussianBlur result="blurOut" stdDeviation="2.0"/><feColorMatrix in="blurOut" result="blurOut2" type="matrix" values="0 0 0 0 0 0 0 0 0 0 0 0 0 0 0 0 0 0 .4 0"/><feOffset dx="4.0" dy="4.0" in="blurOut2" result="blurOut3"/><feBlend in="SourceGraphic" in2="blurOut3" mode="normal"/></filter></defs><g><text fill="#000000" font-family="sans-serif" font-size="18" lengthAdjust="spacingAndGlyphs" text-decoration="underline" textLength="219" x="263" y="16.708">MODELS's Class Diagram</text><line style="stroke: #000000; stroke-width: 1.0;" x1="263" x2="482" y1="18.708" y2="18.708"/><text fill="#000000" font-family="sans-serif" font-size="18" lengthAdjust="spacingAndGlyphs" textLength="0" x="375.5" y="37.6611"/><!--cluster usantatecla.mastermind--><polygon fill="#FFFFFF" filter="url(#f1loja2df9w06g)" points="14,57.9063,209,57.9063,216,80.2031,719,80.2031,719,1671.9063,14,1671.9063,14,57.9063" style="stroke: #000000; stroke-width: 2.0;"/><line style="stroke: #000000; stroke-width: 2.0;" x1="14" x2="216" y1="80.2031" y2="80.2031"/><text fill="#000000" font-family="sans-serif" font-size="14" font-weight="bold" lengthAdjust="spacingAndGlyphs" textLength="189" x="18" y="72.9014">usantatecla.mastermind</text><!--cluster usantatecla.mastermind.models--><polygon fill="#FFFFFF" filter="url(#f1loja2df9w06g)" points="22,84.9063,85,84.9063,92,107.2031,711,107.2031,711,1663.9063,22,1663.9063,22,84.9063" style="stroke: #000000; stroke-width: 2.0;"/><line style="stroke: #000000; stroke-width: 2.0;" x1="22" x2="92" y1="107.2031" y2="107.2031"/><text fill="#000000" font-family="sans-serif" font-size="14" font-weight="bold" lengthAdjust="spacingAndGlyphs" textLength="57" x="26" y="99.9014">models</text><!--class usantatecla.mastermind.models.BoardSetup--><rect fill="#FEFECE" filter="url(#f1loja2df9w06g)" height="150.4375" id="usantatecla.mastermind.models.BoardSetup" style="stroke: #A80036; stroke-width: 1.5;" width="333" x="369.5" y="163.4063"/><ellipse cx="494.75" cy="179.4063" fill="#ADD1B2" rx="11" ry="11" style="stroke: #A80036; stroke-width: 1.0;"/><path d="M497.7188,185.0469 Q497.1406,185.3438 496.5,185.4844 Q495.8594,185.6406 495.1563,185.6406 Q492.6563,185.6406 491.3281,184 Q490.0156,182.3438 490.0156,179.2188 Q490.0156,176.0938 491.3281,174.4375 Q492.6563,172.7813 495.1563,172.7813 Q495.8594,172.7813 496.5,172.9375 Q497.1563,173.0938 497.7188,173.3906 L497.7188,176.1094 Q497.0938,175.5313 496.5,175.2656 Q495.9063,174.9844 495.2813,174.9844 Q493.9375,174.9844 493.25,176.0625 Q492.5625,177.125 492.5625,179.2188 Q492.5625,181.3125 493.25,182.3906 Q493.9375,183.4531 495.2813,183.4531 Q495.9063,183.4531 496.5,183.1875 Q497.0938,182.9063 497.7188,182.3281 L497.7188,185.0469 Z "/><text fill="#000000" font-family="sans-serif" font-size="12" lengthAdjust="spacingAndGlyphs" textLength="74" x="515.25" y="183.5605">BoardSetup</text><line style="stroke: #A80036; stroke-width: 1.5;" x1="370.5" x2="701.5" y1="195.4063" y2="195.4063"/><rect fill="none" height="6" style="stroke: #C82930; stroke-width: 1.0;" width="6" x="377.5" y="204.3086"/><text fill="#000000" font-family="sans-serif" font-size="11" lengthAdjust="spacingAndGlyphs" textLength="77" x="389.5" y="209.6167">attempts : int</text><rect fill="none" height="6" style="stroke: #C82930; stroke-width: 1.0;" width="6" x="377.5" y="217.1133"/><text fill="#000000" font-family="sans-serif" font-size="11" lengthAdjust="spacingAndGlyphs" textLength="307" x="389.5" y="222.4214">proposedCombinations : List&lt;ProposedCombination&gt;</text><rect fill="none" height="6" style="stroke: #C82930; stroke-width: 1.0;" width="6" x="377.5" y="229.918"/><text fill="#000000" font-family="sans-serif" font-size="11" lengthAdjust="spacingAndGlyphs" textLength="125" x="389.5" y="235.2261">results : List&lt;Result&gt;</text><line style="stroke: #A80036; stroke-width: 1.5;" x1="370.5" x2="701.5" y1="241.8203" y2="241.8203"/><ellipse cx="380.5" cy="253.7227" fill="#84BE84" rx="3" ry="3" style="stroke: #038048; stroke-width: 1.0;"/><text fill="#000000" font-family="sans-serif" font-size="11" lengthAdjust="spacingAndGlyphs" textLength="77" x="389.5" y="256.0308">getAttempts()</text><ellipse cx="380.5" cy="266.5273" fill="#84BE84" rx="3" ry="3" style="stroke: #038048; stroke-width: 1.0;"/><text fill="#000000" font-family="sans-serif" font-size="11" lengthAdjust="spacingAndGlyphs" textLength="175" x="389.5" y="268.8354">getLastProposedCombination()</text><ellipse cx="380.5" cy="279.332" fill="#84BE84" rx="3" ry="3" style="stroke: #038048; stroke-width: 1.0;"/><text fill="#000000" font-family="sans-serif" font-size="11" lengthAdjust="spacingAndGlyphs" textLength="158" x="389.5" y="281.6401">getProposedCombinations()</text><ellipse cx="380.5" cy="292.1367" fill="#84BE84" rx="3" ry="3" style="stroke: #038048; stroke-width: 1.0;"/><text fill="#000000" font-family="sans-serif" font-size="11" lengthAdjust="spacingAndGlyphs" textLength="68" x="389.5" y="294.4448">getResults()</text><polygon fill="#4177AF" points="380.5,300.9414,376.5,306.9414,384.5,306.9414" style="stroke: #1963A0; stroke-width: 1.0;"/><text fill="#000000" font-family="sans-serif" font-size="11" lengthAdjust="spacingAndGlyphs" textLength="75" x="389.5" y="307.2495">BoardSetup()</text><!--class usantatecla.mastermind.models.Combination--><rect fill="#FEFECE" filter="url(#f1loja2df9w06g)" height="99.2188" id="usantatecla.mastermind.models.Combination" style="stroke: #A80036; stroke-width: 1.5;" width="141" x="534.5" y="1117.9063"/><ellipse cx="563.45" cy="1133.9063" fill="#A9DCDF" rx="11" ry="11" style="stroke: #A80036; stroke-width: 1.0;"/><path d="M563.5594,1129.25 L562.4031,1134.3281 L564.7313,1134.3281 L563.5594,1129.25 Z M562.075,1127.0156 L565.0594,1127.0156 L568.4188,1139.4063 L565.9656,1139.4063 L565.2,1136.3438 L561.9188,1136.3438 L561.1688,1139.4063 L558.7313,1139.4063 L562.075,1127.0156 Z "/><text fill="#000000" font-family="sans-serif" font-size="12" font-style="italic" lengthAdjust="spacingAndGlyphs" textLength="78" x="580.55" y="1138.0605">Combination</text><line style="stroke: #A80036; stroke-width: 1.5;" x1="535.5" x2="674.5" y1="1149.9063" y2="1149.9063"/><polygon fill="none" points="545.5,1156.8086,549.5,1160.8086,545.5,1164.8086,541.5,1160.8086" style="stroke: #B38D22; stroke-width: 1.0;"/><text fill="#000000" font-family="sans-serif" font-size="11" lengthAdjust="spacingAndGlyphs" textLength="115" x="554.5" y="1164.1167">colors : List&lt;Color&gt;</text><rect fill="none" height="6" style="stroke: #C82930; stroke-width: 1.0;" width="6" x="542.5" y="1171.6133"/><text fill="#000000" font-family="sans-serif" font-size="11" lengthAdjust="spacingAndGlyphs" text-decoration="underline" textLength="61" x="554.5" y="1176.9214">WIDTH : int</text><line style="stroke: #000000; stroke-width: 1.0;" x1="554.5" x2="615.5" y1="1178.9214" y2="1178.9214"/><line style="stroke: #A80036; stroke-width: 1.5;" x1="535.5" x2="674.5" y1="1183.5156" y2="1183.5156"/><ellipse cx="545.5" cy="1195.418" fill="#84BE84" rx="3" ry="3" style="stroke: #038048; stroke-width: 1.0;"/><text fill="#000000" font-family="sans-serif" font-size="11" lengthAdjust="spacingAndGlyphs" text-decoration="underline" textLength="56" x="554.5" y="1197.7261">getWidth()</text><line style="stroke: #000000; stroke-width: 1.0;" x1="554.5" x2="610.5" y1="1199.7261" y2="1199.7261"/><polygon fill="#FFFF44" points="545.5,1203.2227,549.5,1207.2227,545.5,1211.2227,541.5,1207.2227" style="stroke: #B38D22; stroke-width: 1.0;"/><text fill="#000000" font-family="sans-serif" font-size="11" lengthAdjust="spacingAndGlyphs" textLength="79" x="554.5" y="1210.5308">Combination()</text><!--class usantatecla.mastermind.models.Game--><rect fill="#FEFECE" filter="url(#f1loja2df9w06g)" height="252.875" id="usantatecla.mastermind.models.Game" style="stroke: #A80036; stroke-width: 1.5;" width="333" x="30.5" y="1040.9063"/><ellipse cx="174.75" cy="1056.9063" fill="#ADD1B2" rx="11" ry="11" style="stroke: #A80036; stroke-width: 1.0;"/><path d="M177.7188,1062.5469 Q177.1406,1062.8438 176.5,1062.9844 Q175.8594,1063.1406 175.1563,1063.1406 Q172.6563,1063.1406 171.3281,1061.5 Q170.0156,1059.8438 170.0156,1056.7188 Q170.0156,1053.5938 171.3281,1051.9375 Q172.6563,1050.2813 175.1563,1050.2813 Q175.8594,1050.2813 176.5,1050.4375 Q177.1563,1050.5938 177.7188,1050.8906 L177.7188,1053.6094 Q177.0938,1053.0313 176.5,1052.7656 Q175.9063,1052.4844 175.2813,1052.4844 Q173.9375,1052.4844 173.25,1053.5625 Q172.5625,1054.625 172.5625,1056.7188 Q172.5625,1058.8125 173.25,1059.8906 Q173.9375,1060.9531 175.2813,1060.9531 Q175.9063,1060.9531 176.5,1060.6875 Q177.0938,1060.4063 177.7188,1059.8281 L177.7188,1062.5469 Z "/><text fill="#000000" font-family="sans-serif" font-size="12" lengthAdjust="spacingAndGlyphs" textLength="36" x="195.25" y="1061.0605">Game</text><line style="stroke: #A80036; stroke-width: 1.5;" x1="31.5" x2="362.5" y1="1072.9063" y2="1072.9063"/><rect fill="none" height="6" style="stroke: #C82930; stroke-width: 1.0;" width="6" x="38.5" y="1081.8086"/><text fill="#000000" font-family="sans-serif" font-size="11" lengthAdjust="spacingAndGlyphs" text-decoration="underline" textLength="87" x="50.5" y="1087.1167">MAX_LONG : int</text><line style="stroke: #000000; stroke-width: 1.0;" x1="50.5" x2="137.5" y1="1089.1167" y2="1089.1167"/><rect fill="none" height="6" style="stroke: #C82930; stroke-width: 1.0;" width="6" x="38.5" y="1094.6133"/><text fill="#000000" font-family="sans-serif" font-size="11" lengthAdjust="spacingAndGlyphs" textLength="77" x="50.5" y="1099.9214">attempts : int</text><rect fill="none" height="6" style="stroke: #C82930; stroke-width: 1.0;" width="6" x="38.5" y="1107.418"/><text fill="#000000" font-family="sans-serif" font-size="11" lengthAdjust="spacingAndGlyphs" textLength="307" x="50.5" y="1112.7261">proposedCombinations : List&lt;ProposedCombination&gt;</text><rect fill="none" height="6" style="stroke: #C82930; stroke-width: 1.0;" width="6" x="38.5" y="1120.2227"/><text fill="#000000" font-family="sans-serif" font-size="11" lengthAdjust="spacingAndGlyphs" textLength="125" x="50.5" y="1125.5308">results : List&lt;Result&gt;</text><line style="stroke: #A80036; stroke-width: 1.5;" x1="31.5" x2="362.5" y1="1132.125" y2="1132.125"/><ellipse cx="41.5" cy="1144.0273" fill="#84BE84" rx="3" ry="3" style="stroke: #038048; stroke-width: 1.0;"/><text fill="#000000" font-family="sans-serif" font-size="11" lengthAdjust="spacingAndGlyphs" textLength="42" x="50.5" y="1146.3354">Game()</text><ellipse cx="41.5" cy="1156.832" fill="#84BE84" rx="3" ry="3" style="stroke: #038048; stroke-width: 1.0;"/><text fill="#000000" font-family="sans-serif" font-size="11" lengthAdjust="spacingAndGlyphs" textLength="154" x="50.5" y="1159.1401">addProposedCombination()</text><ellipse cx="41.5" cy="1169.6367" fill="#84BE84" rx="3" ry="3" style="stroke: #038048; stroke-width: 1.0;"/><text fill="#000000" font-family="sans-serif" font-size="11" lengthAdjust="spacingAndGlyphs" textLength="36" x="50.5" y="1171.9448">clear()</text><ellipse cx="41.5" cy="1182.4414" fill="#84BE84" rx="3" ry="3" style="stroke: #038048; stroke-width: 1.0;"/><text fill="#000000" font-family="sans-serif" font-size="11" lengthAdjust="spacingAndGlyphs" textLength="77" x="50.5" y="1184.7495">getAttempts()</text><ellipse cx="41.5" cy="1195.2461" fill="#84BE84" rx="3" ry="3" style="stroke: #038048; stroke-width: 1.0;"/><text fill="#000000" font-family="sans-serif" font-size="11" lengthAdjust="spacingAndGlyphs" textLength="63" x="50.5" y="1197.5542">getBlacks()</text><ellipse cx="41.5" cy="1208.0508" fill="#84BE84" rx="3" ry="3" style="stroke: #038048; stroke-width: 1.0;"/><text fill="#000000" font-family="sans-serif" font-size="11" lengthAdjust="spacingAndGlyphs" textLength="93" x="50.5" y="1210.3589">getBoardSetup()</text><ellipse cx="41.5" cy="1220.8555" fill="#84BE84" rx="3" ry="3" style="stroke: #038048; stroke-width: 1.0;"/><text fill="#000000" font-family="sans-serif" font-size="11" lengthAdjust="spacingAndGlyphs" textLength="63" x="50.5" y="1223.1636">getColors()</text><ellipse cx="41.5" cy="1233.6602" fill="#84BE84" rx="3" ry="3" style="stroke: #038048; stroke-width: 1.0;"/><text fill="#000000" font-family="sans-serif" font-size="11" lengthAdjust="spacingAndGlyphs" textLength="63" x="50.5" y="1235.9683">getWhites()</text><ellipse cx="41.5" cy="1246.4648" fill="#84BE84" rx="3" ry="3" style="stroke: #038048; stroke-width: 1.0;"/><text fill="#000000" font-family="sans-serif" font-size="11" lengthAdjust="spacingAndGlyphs" textLength="56" x="50.5" y="1248.7729">getWidth()</text><ellipse cx="41.5" cy="1259.2695" fill="#84BE84" rx="3" ry="3" style="stroke: #038048; stroke-width: 1.0;"/><text fill="#000000" font-family="sans-serif" font-size="11" lengthAdjust="spacingAndGlyphs" textLength="57" x="50.5" y="1261.5776">isLooser()</text><ellipse cx="41.5" cy="1272.0742" fill="#84BE84" rx="3" ry="3" style="stroke: #038048; stroke-width: 1.0;"/><text fill="#000000" font-family="sans-serif" font-size="11" lengthAdjust="spacingAndGlyphs" textLength="56" x="50.5" y="1274.3823">isWinner()</text><ellipse cx="41.5" cy="1284.8789" fill="#84BE84" rx="3" ry="3" style="stroke: #038048; stroke-width: 1.0;"/><text fill="#000000" font-family="sans-serif" font-size="11" lengthAdjust="spacingAndGlyphs" textLength="60" x="50.5" y="1287.187">setBoard()</text><!--class usantatecla.mastermind.models.GameLog--><rect fill="#FEFECE" filter="url(#f1loja2df9w06g)" height="150.4375" id="usantatecla.mastermind.models.GameLog" style="stroke: #A80036; stroke-width: 1.5;" width="216" x="140" y="627.9063"/><ellipse cx="214.75" cy="643.9063" fill="#ADD1B2" rx="11" ry="11" style="stroke: #A80036; stroke-width: 1.0;"/><path d="M217.7188,649.5469 Q217.1406,649.8438 216.5,649.9844 Q215.8594,650.1406 215.1563,650.1406 Q212.6563,650.1406 211.3281,648.5 Q210.0156,646.8438 210.0156,643.7188 Q210.0156,640.5938 211.3281,638.9375 Q212.6563,637.2813 215.1563,637.2813 Q215.8594,637.2813 216.5,637.4375 Q217.1563,637.5938 217.7188,637.8906 L217.7188,640.6094 Q217.0938,640.0313 216.5,639.7656 Q215.9063,639.4844 215.2813,639.4844 Q213.9375,639.4844 213.25,640.5625 Q212.5625,641.625 212.5625,643.7188 Q212.5625,645.8125 213.25,646.8906 Q213.9375,647.9531 215.2813,647.9531 Q215.9063,647.9531 216.5,647.6875 Q217.0938,647.4063 217.7188,646.8281 L217.7188,649.5469 Z "/><text fill="#000000" font-family="sans-serif" font-size="12" lengthAdjust="spacingAndGlyphs" textLength="58" x="235.25" y="648.0605">GameLog</text><line style="stroke: #A80036; stroke-width: 1.5;" x1="141" x2="355" y1="659.9063" y2="659.9063"/><rect fill="none" height="6" style="stroke: #C82930; stroke-width: 1.0;" width="6" x="148" y="668.8086"/><text fill="#000000" font-family="sans-serif" font-size="11" lengthAdjust="spacingAndGlyphs" textLength="190" x="160" y="674.1167">boardSetups : List&lt;BoardSetup&gt;</text><line style="stroke: #A80036; stroke-width: 1.5;" x1="141" x2="355" y1="680.7109" y2="680.7109"/><ellipse cx="151" cy="692.6133" fill="#84BE84" rx="3" ry="3" style="stroke: #038048; stroke-width: 1.0;"/><text fill="#000000" font-family="sans-serif" font-size="11" lengthAdjust="spacingAndGlyphs" textLength="70" x="160" y="694.9214">isRedoable()</text><ellipse cx="151" cy="705.418" fill="#84BE84" rx="3" ry="3" style="stroke: #038048; stroke-width: 1.0;"/><text fill="#000000" font-family="sans-serif" font-size="11" lengthAdjust="spacingAndGlyphs" textLength="71" x="160" y="707.7261">isUndoable()</text><ellipse cx="151" cy="718.2227" fill="#84BE84" rx="3" ry="3" style="stroke: #038048; stroke-width: 1.0;"/><text fill="#000000" font-family="sans-serif" font-size="11" lengthAdjust="spacingAndGlyphs" textLength="25" x="160" y="720.5308">log()</text><ellipse cx="151" cy="731.0273" fill="#84BE84" rx="3" ry="3" style="stroke: #038048; stroke-width: 1.0;"/><text fill="#000000" font-family="sans-serif" font-size="11" lengthAdjust="spacingAndGlyphs" textLength="34" x="160" y="733.3354">redo()</text><ellipse cx="151" cy="743.832" fill="#84BE84" rx="3" ry="3" style="stroke: #038048; stroke-width: 1.0;"/><text fill="#000000" font-family="sans-serif" font-size="11" lengthAdjust="spacingAndGlyphs" textLength="38" x="160" y="746.1401">reset()</text><ellipse cx="151" cy="756.6367" fill="#84BE84" rx="3" ry="3" style="stroke: #038048; stroke-width: 1.0;"/><text fill="#000000" font-family="sans-serif" font-size="11" lengthAdjust="spacingAndGlyphs" textLength="36" x="160" y="758.9448">undo()</text><polygon fill="#4177AF" points="151,765.4414,147,771.4414,155,771.4414" style="stroke: #1963A0; stroke-width: 1.0;"/><text fill="#000000" font-family="sans-serif" font-size="11" lengthAdjust="spacingAndGlyphs" textLength="62" x="160" y="771.7495">GameLog()</text><!--class usantatecla.mastermind.models.ProposedCombination--><rect fill="#FEFECE" filter="url(#f1loja2df9w06g)" height="99.2188" id="usantatecla.mastermind.models.ProposedCombination" style="stroke: #A80036; stroke-width: 1.5;" width="170" x="520" y="1556.9063"/><ellipse cx="535" cy="1572.9063" fill="#ADD1B2" rx="11" ry="11" style="stroke: #A80036; stroke-width: 1.0;"/><path d="M537.9688,1578.5469 Q537.3906,1578.8438 536.75,1578.9844 Q536.1094,1579.1406 535.4063,1579.1406 Q532.9063,1579.1406 531.5781,1577.5 Q530.2656,1575.8438 530.2656,1572.7188 Q530.2656,1569.5938 531.5781,1567.9375 Q532.9063,1566.2813 535.4063,1566.2813 Q536.1094,1566.2813 536.75,1566.4375 Q537.4063,1566.5938 537.9688,1566.8906 L537.9688,1569.6094 Q537.3438,1569.0313 536.75,1568.7656 Q536.1563,1568.4844 535.5313,1568.4844 Q534.1875,1568.4844 533.5,1569.5625 Q532.8125,1570.625 532.8125,1572.7188 Q532.8125,1574.8125 533.5,1575.8906 Q534.1875,1576.9531 535.5313,1576.9531 Q536.1563,1576.9531 536.75,1576.6875 Q537.3438,1576.4063 537.9688,1575.8281 L537.9688,1578.5469 Z "/><text fill="#000000" font-family="sans-serif" font-size="12" lengthAdjust="spacingAndGlyphs" textLength="138" x="549" y="1577.0605">ProposedCombination</text><line style="stroke: #A80036; stroke-width: 1.5;" x1="521" x2="689" y1="1588.9063" y2="1588.9063"/><line style="stroke: #A80036; stroke-width: 1.5;" x1="521" x2="689" y1="1596.9063" y2="1596.9063"/><ellipse cx="531" cy="1608.8086" fill="#84BE84" rx="3" ry="3" style="stroke: #038048; stroke-width: 1.0;"/><text fill="#000000" font-family="sans-serif" font-size="11" lengthAdjust="spacingAndGlyphs" textLength="63" x="540" y="1611.1167">getColors()</text><polygon fill="#4177AF" points="531,1617.6133,527,1623.6133,535,1623.6133" style="stroke: #1963A0; stroke-width: 1.0;"/><text fill="#000000" font-family="sans-serif" font-size="11" lengthAdjust="spacingAndGlyphs" textLength="133" x="540" y="1623.9214">ProposedCombination()</text><polygon fill="#4177AF" points="531,1630.418,527,1636.418,535,1636.418" style="stroke: #1963A0; stroke-width: 1.0;"/><text fill="#000000" font-family="sans-serif" font-size="11" lengthAdjust="spacingAndGlyphs" textLength="56" x="540" y="1636.7261">contains()</text><polygon fill="#4177AF" points="531,1643.2227,527,1649.2227,535,1649.2227" style="stroke: #1963A0; stroke-width: 1.0;"/><text fill="#000000" font-family="sans-serif" font-size="11" lengthAdjust="spacingAndGlyphs" textLength="56" x="540" y="1649.5308">contains()</text><!--class usantatecla.mastermind.models.Result--><rect fill="#FEFECE" filter="url(#f1loja2df9w06g)" height="124.8281" id="usantatecla.mastermind.models.Result" style="stroke: #A80036; stroke-width: 1.5;" width="89" x="245.5" y="175.9063"/><ellipse cx="268.6" cy="191.9063" fill="#ADD1B2" rx="11" ry="11" style="stroke: #A80036; stroke-width: 1.0;"/><path d="M271.5688,197.5469 Q270.9906,197.8438 270.35,197.9844 Q269.7094,198.1406 269.0063,198.1406 Q266.5063,198.1406 265.1781,196.5 Q263.8656,194.8438 263.8656,191.7188 Q263.8656,188.5938 265.1781,186.9375 Q266.5063,185.2813 269.0063,185.2813 Q269.7094,185.2813 270.35,185.4375 Q271.0063,185.5938 271.5688,185.8906 L271.5688,188.6094 Q270.9438,188.0313 270.35,187.7656 Q269.7563,187.4844 269.1313,187.4844 Q267.7875,187.4844 267.1,188.5625 Q266.4125,189.625 266.4125,191.7188 Q266.4125,193.8125 267.1,194.8906 Q267.7875,195.9531 269.1313,195.9531 Q269.7563,195.9531 270.35,195.6875 Q270.9438,195.4063 271.5688,194.8281 L271.5688,197.5469 Z "/><text fill="#000000" font-family="sans-serif" font-size="12" lengthAdjust="spacingAndGlyphs" textLength="39" x="284.4" y="196.0605">Result</text><line style="stroke: #A80036; stroke-width: 1.5;" x1="246.5" x2="333.5" y1="207.9063" y2="207.9063"/><rect fill="none" height="6" style="stroke: #C82930; stroke-width: 1.0;" width="6" x="253.5" y="216.8086"/><text fill="#000000" font-family="sans-serif" font-size="11" lengthAdjust="spacingAndGlyphs" textLength="62" x="265.5" y="222.1167">blacks : int</text><rect fill="none" height="6" style="stroke: #C82930; stroke-width: 1.0;" width="6" x="253.5" y="229.6133"/><text fill="#000000" font-family="sans-serif" font-size="11" lengthAdjust="spacingAndGlyphs" textLength="63" x="265.5" y="234.9214">whites : int</text><line style="stroke: #A80036; stroke-width: 1.5;" x1="246.5" x2="333.5" y1="241.5156" y2="241.5156"/><polygon fill="#4177AF" points="256.5,249.418,252.5,255.418,260.5,255.418" style="stroke: #1963A0; stroke-width: 1.0;"/><text fill="#000000" font-family="sans-serif" font-size="11" lengthAdjust="spacingAndGlyphs" textLength="43" x="265.5" y="255.7261">Result()</text><polygon fill="#4177AF" points="256.5,262.2227,252.5,268.2227,260.5,268.2227" style="stroke: #1963A0; stroke-width: 1.0;"/><text fill="#000000" font-family="sans-serif" font-size="11" lengthAdjust="spacingAndGlyphs" textLength="63" x="265.5" y="268.5308">getBlacks()</text><polygon fill="#4177AF" points="256.5,275.0273,252.5,281.0273,260.5,281.0273" style="stroke: #1963A0; stroke-width: 1.0;"/><text fill="#000000" font-family="sans-serif" font-size="11" lengthAdjust="spacingAndGlyphs" textLength="63" x="265.5" y="281.3354">getWhites()</text><polygon fill="#4177AF" points="256.5,287.832,252.5,293.832,260.5,293.832" style="stroke: #1963A0; stroke-width: 1.0;"/><text fill="#000000" font-family="sans-serif" font-size="11" lengthAdjust="spacingAndGlyphs" textLength="56" x="265.5" y="294.1401">isWinner()</text><!--class usantatecla.mastermind.models.SecretCombination--><rect fill="#FEFECE" filter="url(#f1loja2df9w06g)" height="73.6094" id="usantatecla.mastermind.models.SecretCombination" style="stroke: #A80036; stroke-width: 1.5;" width="151" x="227.5" y="1569.4063"/><ellipse cx="242.5" cy="1585.4063" fill="#ADD1B2" rx="11" ry="11" style="stroke: #A80036; stroke-width: 1.0;"/><path d="M245.4688,1591.0469 Q244.8906,1591.3438 244.25,1591.4844 Q243.6094,1591.6406 242.9063,1591.6406 Q240.4063,1591.6406 239.0781,1590 Q237.7656,1588.3438 237.7656,1585.2188 Q237.7656,1582.0938 239.0781,1580.4375 Q240.4063,1578.7813 242.9063,1578.7813 Q243.6094,1578.7813 244.25,1578.9375 Q244.9063,1579.0938 245.4688,1579.3906 L245.4688,1582.1094 Q244.8438,1581.5313 244.25,1581.2656 Q243.6563,1580.9844 243.0313,1580.9844 Q241.6875,1580.9844 241,1582.0625 Q240.3125,1583.125 240.3125,1585.2188 Q240.3125,1587.3125 241,1588.3906 Q241.6875,1589.4531 243.0313,1589.4531 Q243.6563,1589.4531 244.25,1589.1875 Q244.8438,1588.9063 245.4688,1588.3281 L245.4688,1591.0469 Z "/><text fill="#000000" font-family="sans-serif" font-size="12" lengthAdjust="spacingAndGlyphs" textLength="119" x="256.5" y="1589.5605">SecretCombination</text><line style="stroke: #A80036; stroke-width: 1.5;" x1="228.5" x2="377.5" y1="1601.4063" y2="1601.4063"/><line style="stroke: #A80036; stroke-width: 1.5;" x1="228.5" x2="377.5" y1="1609.4063" y2="1609.4063"/><polygon fill="#4177AF" points="238.5,1617.3086,234.5,1623.3086,242.5,1623.3086" style="stroke: #1963A0; stroke-width: 1.0;"/><text fill="#000000" font-family="sans-serif" font-size="11" lengthAdjust="spacingAndGlyphs" textLength="116" x="247.5" y="1623.6167">SecretCombination()</text><polygon fill="#4177AF" points="238.5,1630.1133,234.5,1636.1133,242.5,1636.1133" style="stroke: #1963A0; stroke-width: 1.0;"/><text fill="#000000" font-family="sans-serif" font-size="11" lengthAdjust="spacingAndGlyphs" textLength="61" x="247.5" y="1636.4214">getResult()</text><!--class usantatecla.mastermind.models.Session--><rect fill="#FEFECE" filter="url(#f1loja2df9w06g)" height="252.875" id="usantatecla.mastermind.models.Session" style="stroke: #A80036; stroke-width: 1.5;" width="180" x="30" y="111.9063"/><ellipse cx="91.25" cy="127.9063" fill="#ADD1B2" rx="11" ry="11" style="stroke: #A80036; stroke-width: 1.0;"/><path d="M94.2188,133.5469 Q93.6406,133.8438 93,133.9844 Q92.3594,134.1406 91.6563,134.1406 Q89.1563,134.1406 87.8281,132.5 Q86.5156,130.8438 86.5156,127.7188 Q86.5156,124.5938 87.8281,122.9375 Q89.1563,121.2813 91.6563,121.2813 Q92.3594,121.2813 93,121.4375 Q93.6563,121.5938 94.2188,121.8906 L94.2188,124.6094 Q93.5938,124.0313 93,123.7656 Q92.4063,123.4844 91.7813,123.4844 Q90.4375,123.4844 89.75,124.5625 Q89.0625,125.625 89.0625,127.7188 Q89.0625,129.8125 89.75,130.8906 Q90.4375,131.9531 91.7813,131.9531 Q92.4063,131.9531 93,131.6875 Q93.5938,131.4063 94.2188,130.8281 L94.2188,133.5469 Z "/><text fill="#000000" font-family="sans-serif" font-size="12" lengthAdjust="spacingAndGlyphs" textLength="49" x="111.75" y="132.0605">Session</text><line style="stroke: #A80036; stroke-width: 1.5;" x1="31" x2="209" y1="143.9063" y2="143.9063"/><line style="stroke: #A80036; stroke-width: 1.5;" x1="31" x2="209" y1="151.9063" y2="151.9063"/><ellipse cx="41" cy="163.8086" fill="#84BE84" rx="3" ry="3" style="stroke: #038048; stroke-width: 1.0;"/><text fill="#000000" font-family="sans-serif" font-size="11" lengthAdjust="spacingAndGlyphs" textLength="54" x="50" y="166.1167">Session()</text><ellipse cx="41" cy="176.6133" fill="#84BE84" rx="3" ry="3" style="stroke: #038048; stroke-width: 1.0;"/><text fill="#000000" font-family="sans-serif" font-size="11" lengthAdjust="spacingAndGlyphs" textLength="154" x="50" y="178.9214">addProposedCombination()</text><ellipse cx="41" cy="189.418" fill="#84BE84" rx="3" ry="3" style="stroke: #038048; stroke-width: 1.0;"/><text fill="#000000" font-family="sans-serif" font-size="11" lengthAdjust="spacingAndGlyphs" textLength="77" x="50" y="191.7261">getAttempts()</text><ellipse cx="41" cy="202.2227" fill="#84BE84" rx="3" ry="3" style="stroke: #038048; stroke-width: 1.0;"/><text fill="#000000" font-family="sans-serif" font-size="11" lengthAdjust="spacingAndGlyphs" textLength="63" x="50" y="204.5308">getBlacks()</text><ellipse cx="41" cy="215.0273" fill="#84BE84" rx="3" ry="3" style="stroke: #038048; stroke-width: 1.0;"/><text fill="#000000" font-family="sans-serif" font-size="11" lengthAdjust="spacingAndGlyphs" textLength="63" x="50" y="217.3354">getColors()</text><ellipse cx="41" cy="227.832" fill="#84BE84" rx="3" ry="3" style="stroke: #038048; stroke-width: 1.0;"/><text fill="#000000" font-family="sans-serif" font-size="11" lengthAdjust="spacingAndGlyphs" textLength="87" x="50" y="230.1401">getValueState()</text><ellipse cx="41" cy="240.6367" fill="#84BE84" rx="3" ry="3" style="stroke: #038048; stroke-width: 1.0;"/><text fill="#000000" font-family="sans-serif" font-size="11" lengthAdjust="spacingAndGlyphs" textLength="63" x="50" y="242.9448">getWhites()</text><ellipse cx="41" cy="253.4414" fill="#84BE84" rx="3" ry="3" style="stroke: #038048; stroke-width: 1.0;"/><text fill="#000000" font-family="sans-serif" font-size="11" lengthAdjust="spacingAndGlyphs" textLength="56" x="50" y="255.7495">getWidth()</text><ellipse cx="41" cy="266.2461" fill="#84BE84" rx="3" ry="3" style="stroke: #038048; stroke-width: 1.0;"/><text fill="#000000" font-family="sans-serif" font-size="11" lengthAdjust="spacingAndGlyphs" textLength="57" x="50" y="268.5542">isLooser()</text><ellipse cx="41" cy="279.0508" fill="#84BE84" rx="3" ry="3" style="stroke: #038048; stroke-width: 1.0;"/><text fill="#000000" font-family="sans-serif" font-size="11" lengthAdjust="spacingAndGlyphs" textLength="70" x="50" y="281.3589">isRedoable()</text><ellipse cx="41" cy="291.8555" fill="#84BE84" rx="3" ry="3" style="stroke: #038048; stroke-width: 1.0;"/><text fill="#000000" font-family="sans-serif" font-size="11" lengthAdjust="spacingAndGlyphs" textLength="71" x="50" y="294.1636">isUndoable()</text><ellipse cx="41" cy="304.6602" fill="#84BE84" rx="3" ry="3" style="stroke: #038048; stroke-width: 1.0;"/><text fill="#000000" font-family="sans-serif" font-size="11" lengthAdjust="spacingAndGlyphs" textLength="56" x="50" y="306.9683">isWinner()</text><ellipse cx="41" cy="317.4648" fill="#84BE84" rx="3" ry="3" style="stroke: #038048; stroke-width: 1.0;"/><text fill="#000000" font-family="sans-serif" font-size="11" lengthAdjust="spacingAndGlyphs" textLength="32" x="50" y="319.7729">next()</text><ellipse cx="41" cy="330.2695" fill="#84BE84" rx="3" ry="3" style="stroke: #038048; stroke-width: 1.0;"/><text fill="#000000" font-family="sans-serif" font-size="11" lengthAdjust="spacingAndGlyphs" textLength="34" x="50" y="332.5776">redo()</text><ellipse cx="41" cy="343.0742" fill="#84BE84" rx="3" ry="3" style="stroke: #038048; stroke-width: 1.0;"/><text fill="#000000" font-family="sans-serif" font-size="11" lengthAdjust="spacingAndGlyphs" textLength="38" x="50" y="345.3823">reset()</text><ellipse cx="41" cy="355.8789" fill="#84BE84" rx="3" ry="3" style="stroke: #038048; stroke-width: 1.0;"/><text fill="#000000" font-family="sans-serif" font-size="11" lengthAdjust="spacingAndGlyphs" textLength="36" x="50" y="358.187">undo()</text><!--class usantatecla.mastermind.models.State--><rect fill="#FEFECE" filter="url(#f1loja2df9w06g)" height="99.2188" id="usantatecla.mastermind.models.State" style="stroke: #A80036; stroke-width: 1.5;" width="113" x="391.5" y="653.4063"/><ellipse cx="427.65" cy="669.4063" fill="#ADD1B2" rx="11" ry="11" style="stroke: #A80036; stroke-width: 1.0;"/><path d="M430.6188,675.0469 Q430.0406,675.3438 429.4,675.4844 Q428.7594,675.6406 428.0563,675.6406 Q425.5563,675.6406 424.2281,674 Q422.9156,672.3438 422.9156,669.2188 Q422.9156,666.0938 424.2281,664.4375 Q425.5563,662.7813 428.0563,662.7813 Q428.7594,662.7813 429.4,662.9375 Q430.0563,663.0938 430.6188,663.3906 L430.6188,666.1094 Q429.9938,665.5313 429.4,665.2656 Q428.8063,664.9844 428.1813,664.9844 Q426.8375,664.9844 426.15,666.0625 Q425.4625,667.125 425.4625,669.2188 Q425.4625,671.3125 426.15,672.3906 Q426.8375,673.4531 428.1813,673.4531 Q428.8063,673.4531 429.4,673.1875 Q429.9938,672.9063 430.6188,672.3281 L430.6188,675.0469 Z "/><text fill="#000000" font-family="sans-serif" font-size="12" lengthAdjust="spacingAndGlyphs" textLength="34" x="446.35" y="673.5605">State</text><line style="stroke: #A80036; stroke-width: 1.5;" x1="392.5" x2="503.5" y1="685.4063" y2="685.4063"/><line style="stroke: #A80036; stroke-width: 1.5;" x1="392.5" x2="503.5" y1="693.4063" y2="693.4063"/><ellipse cx="402.5" cy="705.3086" fill="#84BE84" rx="3" ry="3" style="stroke: #038048; stroke-width: 1.0;"/><text fill="#000000" font-family="sans-serif" font-size="11" lengthAdjust="spacingAndGlyphs" textLength="38" x="411.5" y="707.6167">State()</text><ellipse cx="402.5" cy="718.1133" fill="#84BE84" rx="3" ry="3" style="stroke: #038048; stroke-width: 1.0;"/><text fill="#000000" font-family="sans-serif" font-size="11" lengthAdjust="spacingAndGlyphs" textLength="87" x="411.5" y="720.4214">getValueState()</text><ellipse cx="402.5" cy="730.918" fill="#84BE84" rx="3" ry="3" style="stroke: #038048; stroke-width: 1.0;"/><text fill="#000000" font-family="sans-serif" font-size="11" lengthAdjust="spacingAndGlyphs" textLength="32" x="411.5" y="733.2261">next()</text><ellipse cx="402.5" cy="743.7227" fill="#84BE84" rx="3" ry="3" style="stroke: #038048; stroke-width: 1.0;"/><text fill="#000000" font-family="sans-serif" font-size="11" lengthAdjust="spacingAndGlyphs" textLength="38" x="411.5" y="746.0308">reset()</text><!--class usantatecla.mastermind.models.StateValue--><rect fill="#FEFECE" filter="url(#f1loja2df9w06g)" height="99.2188" id="usantatecla.mastermind.models.StateValue" style="stroke: #A80036; stroke-width: 1.5;" width="101" x="398.5" y="1117.9063"/><ellipse cx="413.5" cy="1133.9063" fill="#EB937F" rx="11" ry="11" style="stroke: #A80036; stroke-width: 1.0;"/><path d="M417.6094,1139.9063 L409.8906,1139.9063 L409.8906,1127.5156 L417.6094,1127.5156 L417.6094,1129.6719 L412.3438,1129.6719 L412.3438,1132.3438 L417.1094,1132.3438 L417.1094,1134.5 L412.3438,1134.5 L412.3438,1137.75 L417.6094,1137.75 L417.6094,1139.9063 Z "/><text fill="#000000" font-family="sans-serif" font-size="12" lengthAdjust="spacingAndGlyphs" textLength="69" x="427.5" y="1138.0605">StateValue</text><line style="stroke: #A80036; stroke-width: 1.5;" x1="399.5" x2="498.5" y1="1149.9063" y2="1149.9063"/><text fill="#000000" font-family="sans-serif" font-size="11" lengthAdjust="spacingAndGlyphs" textLength="24" x="404.5" y="1164.1167">EXIT</text><text fill="#000000" font-family="sans-serif" font-size="11" lengthAdjust="spacingAndGlyphs" textLength="30" x="404.5" y="1176.9214">FINAL</text><text fill="#000000" font-family="sans-serif" font-size="11" lengthAdjust="spacingAndGlyphs" textLength="37" x="404.5" y="1189.7261">INITIAL</text><text fill="#000000" font-family="sans-serif" font-size="11" lengthAdjust="spacingAndGlyphs" textLength="49" x="404.5" y="1202.5308">IN_GAME</text><line style="stroke: #A80036; stroke-width: 1.5;" x1="399.5" x2="498.5" y1="1209.125" y2="1209.125"/><!--link usantatecla.mastermind.models.Game to usantatecla.mastermind.models.SecretCombination--><path d="M245.3061,1306.9057 C248.2174,1323.0808 250,1339.4853 250,1355.4063 C250,1355.4063 250,1355.4063 250,1495.4063 C250,1521.7796 262.3347,1548.5399 275.1031,1569.1759 " fill="none" id="usantatecla.mastermind.models.Game-usantatecla.mastermind.models.SecretCombination" style="stroke: #A80036; stroke-width: 1.0;"/><polygon fill="#FFFFFF" points="242.7417,1293.9963,239.9874,1300.6606,245.0798,1305.7663,247.8341,1299.1019,242.7417,1293.9963" style="stroke: #A80036; stroke-width: 1.0;"/><text fill="#000000" font-family="sans-serif" font-size="13" lengthAdjust="spacingAndGlyphs" textLength="121" x="251" y="1429.9731">secretCombination</text><!--link usantatecla.mastermind.models.GameLog to usantatecla.mastermind.models.Game--><path d="M226.1593,791.4039 C223.6681,807.2874 222,823.7634 222,839.4063 C222,839.4063 222,839.4063 222,979.4063 C222,999.3267 220.6037,1020.3315 218.4711,1040.7957 " fill="none" id="usantatecla.mastermind.models.GameLog-usantatecla.mastermind.models.Game" style="stroke: #A80036; stroke-width: 1.0;"/><polygon fill="#FFFFFF" points="228.427,778.2325,223.4669,783.4667,226.3908,790.0584,231.3509,784.8242,228.427,778.2325" style="stroke: #A80036; stroke-width: 1.0;"/><text fill="#000000" font-family="sans-serif" font-size="13" lengthAdjust="spacingAndGlyphs" textLength="37" x="223" y="913.9731">game</text><!--link usantatecla.mastermind.models.Combination to usantatecla.mastermind.models.ProposedCombination--><path d="M605,1237.581 C605,1272.923 605,1316.4366 605,1355.4063 C605,1355.4063 605,1355.4063 605,1495.4063 C605,1515.448 605,1537.5251 605,1556.6763 " fill="none" id="usantatecla.mastermind.models.Combination-usantatecla.mastermind.models.ProposedCombination" style="stroke: #A80036; stroke-width: 1.0;"/><polygon fill="none" points="598.0001,1237.2803,605,1217.2803,612.0001,1237.2803,598.0001,1237.2803" style="stroke: #A80036; stroke-width: 1.0;"/><!--link usantatecla.mastermind.models.Combination to usantatecla.mastermind.models.SecretCombination--><path d="M559.1114,1234.0181 C526.6969,1282.2796 489,1341.4139 489,1355.4063 C489,1355.4063 489,1355.4063 489,1495.4063 C489,1549.5571 430.1484,1577.9094 378.6533,1592.3528 " fill="none" id="usantatecla.mastermind.models.Combination-usantatecla.mastermind.models.SecretCombination" style="stroke: #A80036; stroke-width: 1.0;"/><polygon fill="none" points="553.5075,1229.809,570.5102,1217.1635,565.1044,1237.652,553.5075,1229.809" style="stroke: #A80036; stroke-width: 1.0;"/><!--link usantatecla.mastermind.models.Session to usantatecla.mastermind.models.Game--><path d="M70.7825,377.861 C67.8162,394.0443 66,410.463 66,426.4063 C66,426.4063 66,426.4063 66,979.4063 C66,1000.7887 71.775,1021.4799 80.8998,1040.8275 " fill="none" id="usantatecla.mastermind.models.Session-usantatecla.mastermind.models.Game" style="stroke: #A80036; stroke-width: 1.0;"/><polygon fill="#FFFFFF" points="73.3952,364.9462,68.2849,370.0339,71.0157,376.708,76.126,371.6203,73.3952,364.9462" style="stroke: #A80036; stroke-width: 1.0;"/><text fill="#000000" font-family="sans-serif" font-size="13" lengthAdjust="spacingAndGlyphs" textLength="37" x="67" y="707.4731">game</text><!--link usantatecla.mastermind.models.Session to usantatecla.mastermind.models.GameLog--><path d="M185.8214,377.7542 C189.6591,393.8454 192,410.273 192,426.4063 C192,426.4063 192,426.4063 192,566.4063 C192,587.1542 197.6063,608.438 205.2712,627.8413 " fill="none" id="usantatecla.mastermind.models.Session-usantatecla.mastermind.models.GameLog" style="stroke: #A80036; stroke-width: 1.0;"/><polygon fill="#FFFFFF" points="182.439,364.9335,180.102,371.7554,185.5003,376.5364,187.8373,369.7145,182.439,364.9335" style="stroke: #A80036; stroke-width: 1.0;"/><text fill="#000000" font-family="sans-serif" font-size="13" lengthAdjust="spacingAndGlyphs" textLength="60" x="193" y="500.9731">gameLog</text><!--link usantatecla.mastermind.models.Session to usantatecla.mastermind.models.State--><path d="M220.3251,359.1879 C222.8586,361.1625 225.4178,363.0719 228,364.9063 C289.4315,408.5463 386,351.052 386,426.4063 C386,426.4063 386,426.4063 386,566.4063 C386,596.989 399.0613,628.2538 413.1941,653.1318 " fill="none" id="usantatecla.mastermind.models.Session-usantatecla.mastermind.models.State" style="stroke: #A80036; stroke-width: 1.0;"/><polygon fill="#FFFFFF" points="210.0623,350.7275,212.1476,357.6304,219.3217,358.3605,217.2364,351.4575,210.0623,350.7275" style="stroke: #A80036; stroke-width: 1.0;"/><text fill="#000000" font-family="sans-serif" font-size="13" lengthAdjust="spacingAndGlyphs" textLength="33" x="387" y="500.9731">state</text><!--link usantatecla.mastermind.models.State to usantatecla.mastermind.models.StateValue--><path d="M448,765.7199 C448,788.8807 448,815.3372 448,839.4063 C448,839.4063 448,839.4063 448,979.4063 C448,1026.2438 448.3142,1079.644 448.5904,1117.5327 " fill="none" id="usantatecla.mastermind.models.State-usantatecla.mastermind.models.StateValue" style="stroke: #A80036; stroke-width: 1.0;"/><polygon fill="#FFFFFF" points="448,752.5069,444,758.5069,448,764.5069,452,758.5069,448,752.5069" style="stroke: #A80036; stroke-width: 1.0;"/><text fill="#000000" font-family="sans-serif" font-size="13" lengthAdjust="spacingAndGlyphs" textLength="69" x="449" y="913.9731">stateValue</text><text fill="#888888" font-family="sans-serif" font-size="10" lengthAdjust="spacingAndGlyphs" textLength="0" x="745" y="1699.1885"/><text fill="#888888" font-family="sans-serif" font-size="10" lengthAdjust="spacingAndGlyphs" textLength="0" x="745" y="1710.8291"/><text fill="#888888" font-family="sans-serif" font-size="10" lengthAdjust="spacingAndGlyphs" textLength="413" x="332" y="1722.4697">PlantUML diagram generated by SketchIt! (https://bitbucket.org/pmesmeur/sketch.it)</text><text fill="#888888" font-family="sans-serif" font-size="10" lengthAdjust="spacingAndGlyphs" textLength="402" x="343" y="1734.1104">For more information about this tool, please contact philippe.mesmeur@gmail.com</text><!--
@startuml

title __MODELS's Class Diagram__\n

  namespace usantatecla.mastermind {
    namespace models {
      class usantatecla.mastermind.models.BoardSetup {
          - attempts : int
          - proposedCombinations : List<ProposedCombination>
          - results : List<Result>
          + getAttempts()
          + getLastProposedCombination()
          + getProposedCombinations()
          + getResults()
          ~ BoardSetup()
      }
    }
  }
  

  namespace usantatecla.mastermind {
    namespace models {
      abstract class usantatecla.mastermind.models.Combination {
          # colors : List<Color>
          {static} - WIDTH : int
          {static} + getWidth()
          # Combination()
      }
    }
  }
  

  namespace usantatecla.mastermind {
    namespace models {
      class usantatecla.mastermind.models.Game {
          {static} - MAX_LONG : int
          - attempts : int
          - proposedCombinations : List<ProposedCombination>
          - results : List<Result>
          + Game()
          + addProposedCombination()
          + clear()
          + getAttempts()
          + getBlacks()
          + getBoardSetup()
          + getColors()
          + getWhites()
          + getWidth()
          + isLooser()
          + isWinner()
          + setBoard()
      }
    }
  }
  

  namespace usantatecla.mastermind {
    namespace models {
      class usantatecla.mastermind.models.GameLog {
          - boardSetups : List<BoardSetup>
          + isRedoable()
          + isUndoable()
          + log()
          + redo()
          + reset()
          + undo()
          ~ GameLog()
      }
    }
  }
  

  namespace usantatecla.mastermind {
    namespace models {
      class usantatecla.mastermind.models.ProposedCombination {
          + getColors()
          ~ ProposedCombination()
          ~ contains()
          ~ contains()
      }
    }
  }
  

  namespace usantatecla.mastermind {
    namespace models {
      class usantatecla.mastermind.models.Result {
          - blacks : int
          - whites : int
          ~ Result()
          ~ getBlacks()
          ~ getWhites()
          ~ isWinner()
      }
    }
  }
  

  namespace usantatecla.mastermind {
    namespace models {
      class usantatecla.mastermind.models.SecretCombination {
          ~ SecretCombination()
          ~ getResult()
      }
    }
  }
  

  namespace usantatecla.mastermind {
    namespace models {
      class usantatecla.mastermind.models.Session {
          + Session()
          + addProposedCombination()
          + getAttempts()
          + getBlacks()
          + getColors()
          + getValueState()
          + getWhites()
          + getWidth()
          + isLooser()
          + isRedoable()
          + isUndoable()
          + isWinner()
          + next()
          + redo()
          + reset()
          + undo()
      }
    }
  }
  

  namespace usantatecla.mastermind {
    namespace models {
      class usantatecla.mastermind.models.State {
          + State()
          + getValueState()
          + next()
          + reset()
      }
    }
  }
  

  namespace usantatecla.mastermind {
    namespace models {
      enum StateValue {
        EXIT
        FINAL
        INITIAL
        IN_GAME
      }
    }
  }
  

  usantatecla.mastermind.models.Game o- - usantatecla.mastermind.models.SecretCombination : secretCombination
  usantatecla.mastermind.models.GameLog o- - usantatecla.mastermind.models.Game : game
  usantatecla.mastermind.models.ProposedCombination -up-|> usantatecla.mastermind.models.Combination
  usantatecla.mastermind.models.SecretCombination -up-|> usantatecla.mastermind.models.Combination
  usantatecla.mastermind.models.Session o- - usantatecla.mastermind.models.Game : game
  usantatecla.mastermind.models.Session o- - usantatecla.mastermind.models.GameLog : gameLog
  usantatecla.mastermind.models.Session o- - usantatecla.mastermind.models.State : state
  usantatecla.mastermind.models.State o- - usantatecla.mastermind.models.StateValue : stateValue


right footer


PlantUML diagram generated by SketchIt! (https://bitbucket.org/pmesmeur/sketch.it)
For more information about this tool, please contact philippe.mesmeur@gmail.com
endfooter

@enduml

PlantUML version 1.2017.15(Mon Jul 03 18:45:34 CEST 2017)
(GPL source distribution)
Java Runtime: OpenJDK Runtime Environment
JVM: OpenJDK 64-Bit Server VM
Java Version: 11.0.9.1+1-Ubuntu-0ubuntu1.18.04
Operating System: Linux
OS Version: 4.15.0-1102-oem
Default Encoding: UTF-8
Language: en
Country: US
--></g></svg>