<?xml version="1.0" encoding="UTF-8" standalone="no"?><svg xmlns="http://www.w3.org/2000/svg" xmlns:xlink="http://www.w3.org/1999/xlink" contentScriptType="application/ecmascript" contentStyleType="text/css" height="519px" preserveAspectRatio="none" style="width:987px;height:519px;" version="1.1" viewBox="0 0 987 519" width="987px" zoomAndPan="magnify"><defs><filter height="300%" id="fq1x3dj7bzvzt" width="300%" x="-1" y="-1"><feGaussianBlur result="blurOut" stdDeviation="2.0"/><feColorMatrix in="blurOut" result="blurOut2" type="matrix" values="0 0 0 0 0 0 0 0 0 0 0 0 0 0 0 0 0 0 .4 0"/><feOffset dx="4.0" dy="4.0" in="blurOut2" result="blurOut3"/><feBlend in="SourceGraphic" in2="blurOut3" mode="normal"/></filter></defs><g><text fill="#000000" font-family="sans-serif" font-size="18" lengthAdjust="spacingAndGlyphs" text-decoration="underline" textLength="268" x="353.5" y="16.708">MASTERMIND's Class Diagram</text><line style="stroke: #000000; stroke-width: 1.0;" x1="353.5" x2="621.5" y1="18.708" y2="18.708"/><text fill="#000000" font-family="sans-serif" font-size="18" lengthAdjust="spacingAndGlyphs" textLength="0" x="490.5" y="37.6611"/><!--cluster usantatecla.mastermind--><polygon fill="#FFFFFF" filter="url(#fq1x3dj7bzvzt)" points="14,57.9063,209,57.9063,216,80.2031,381,80.2031,381,443.9063,14,443.9063,14,57.9063" style="stroke: #000000; stroke-width: 2.0;"/><line style="stroke: #000000; stroke-width: 2.0;" x1="14" x2="216" y1="80.2031" y2="80.2031"/><text fill="#000000" font-family="sans-serif" font-size="14" font-weight="bold" lengthAdjust="spacingAndGlyphs" textLength="189" x="18" y="72.9014">usantatecla.mastermind</text><!--cluster usantatecla.mastermind.controllers--><polygon fill="#FFFFFF" filter="url(#fq1x3dj7bzvzt)" points="389,225.9063,675,225.9063,682,248.2031,685,248.2031,685,308.9063,389,308.9063,389,225.9063" style="stroke: #000000; stroke-width: 2.0;"/><line style="stroke: #000000; stroke-width: 2.0;" x1="389" x2="682" y1="248.2031" y2="248.2031"/><text fill="#000000" font-family="sans-serif" font-size="14" font-weight="bold" lengthAdjust="spacingAndGlyphs" textLength="280" x="393" y="240.9014">usantatecla.mastermind.controllers</text><!--cluster usantatecla.mastermind.views--><polygon fill="#FFFFFF" filter="url(#fq1x3dj7bzvzt)" points="693,225.9063,939,225.9063,946,248.2031,949,248.2031,949,308.9063,693,308.9063,693,225.9063" style="stroke: #000000; stroke-width: 2.0;"/><line style="stroke: #000000; stroke-width: 2.0;" x1="693" x2="946" y1="248.2031" y2="248.2031"/><text fill="#000000" font-family="sans-serif" font-size="14" font-weight="bold" lengthAdjust="spacingAndGlyphs" textLength="240" x="697" y="240.9014">usantatecla.mastermind.views</text><!--class usantatecla.mastermind.ConsoleMastermind--><rect fill="#FEFECE" filter="url(#fq1x3dj7bzvzt)" height="73.6094" id="usantatecla.mastermind.ConsoleMastermind" style="stroke: #A80036; stroke-width: 1.5;" width="155" x="22.5" y="361.9063"/><ellipse cx="37.5" cy="377.9063" fill="#ADD1B2" rx="11" ry="11" style="stroke: #A80036; stroke-width: 1.0;"/><path d="M40.4688,383.5469 Q39.8906,383.8438 39.25,383.9844 Q38.6094,384.1406 37.9063,384.1406 Q35.4063,384.1406 34.0781,382.5 Q32.7656,380.8438 32.7656,377.7188 Q32.7656,374.5938 34.0781,372.9375 Q35.4063,371.2813 37.9063,371.2813 Q38.6094,371.2813 39.25,371.4375 Q39.9063,371.5938 40.4688,371.8906 L40.4688,374.6094 Q39.8438,374.0313 39.25,373.7656 Q38.6563,373.4844 38.0313,373.4844 Q36.6875,373.4844 36,374.5625 Q35.3125,375.625 35.3125,377.7188 Q35.3125,379.8125 36,380.8906 Q36.6875,381.9531 38.0313,381.9531 Q38.6563,381.9531 39.25,381.6875 Q39.8438,381.4063 40.4688,380.8281 L40.4688,383.5469 Z "/><text fill="#000000" font-family="sans-serif" font-size="12" lengthAdjust="spacingAndGlyphs" textLength="123" x="51.5" y="382.0605">ConsoleMastermind</text><line style="stroke: #A80036; stroke-width: 1.5;" x1="23.5" x2="176.5" y1="393.9063" y2="393.9063"/><line style="stroke: #A80036; stroke-width: 1.5;" x1="23.5" x2="176.5" y1="401.9063" y2="401.9063"/><ellipse cx="33.5" cy="413.8086" fill="#84BE84" rx="3" ry="3" style="stroke: #038048; stroke-width: 1.0;"/><text fill="#000000" font-family="sans-serif" font-size="11" lengthAdjust="spacingAndGlyphs" text-decoration="underline" textLength="36" x="42.5" y="416.1167">main()</text><line style="stroke: #000000; stroke-width: 1.0;" x1="42.5" x2="78.5" y1="418.1167" y2="418.1167"/><polygon fill="#FFFF44" points="33.5,421.6133,37.5,425.6133,33.5,429.6133,29.5,425.6133" style="stroke: #B38D22; stroke-width: 1.0;"/><text fill="#000000" font-family="sans-serif" font-size="11" lengthAdjust="spacingAndGlyphs" textLength="70" x="42.5" y="428.9214">createView()</text><!--class usantatecla.mastermind.GraphicsMastermind--><rect fill="#FEFECE" filter="url(#fq1x3dj7bzvzt)" height="73.6094" id="usantatecla.mastermind.GraphicsMastermind" style="stroke: #A80036; stroke-width: 1.5;" width="160" x="213" y="361.9063"/><ellipse cx="228" cy="377.9063" fill="#ADD1B2" rx="11" ry="11" style="stroke: #A80036; stroke-width: 1.0;"/><path d="M230.9688,383.5469 Q230.3906,383.8438 229.75,383.9844 Q229.1094,384.1406 228.4063,384.1406 Q225.9063,384.1406 224.5781,382.5 Q223.2656,380.8438 223.2656,377.7188 Q223.2656,374.5938 224.5781,372.9375 Q225.9063,371.2813 228.4063,371.2813 Q229.1094,371.2813 229.75,371.4375 Q230.4063,371.5938 230.9688,371.8906 L230.9688,374.6094 Q230.3438,374.0313 229.75,373.7656 Q229.1563,373.4844 228.5313,373.4844 Q227.1875,373.4844 226.5,374.5625 Q225.8125,375.625 225.8125,377.7188 Q225.8125,379.8125 226.5,380.8906 Q227.1875,381.9531 228.5313,381.9531 Q229.1563,381.9531 229.75,381.6875 Q230.3438,381.4063 230.9688,380.8281 L230.9688,383.5469 Z "/><text fill="#000000" font-family="sans-serif" font-size="12" lengthAdjust="spacingAndGlyphs" textLength="128" x="242" y="382.0605">GraphicsMastermind</text><line style="stroke: #A80036; stroke-width: 1.5;" x1="214" x2="372" y1="393.9063" y2="393.9063"/><line style="stroke: #A80036; stroke-width: 1.5;" x1="214" x2="372" y1="401.9063" y2="401.9063"/><ellipse cx="224" cy="413.8086" fill="#84BE84" rx="3" ry="3" style="stroke: #038048; stroke-width: 1.0;"/><text fill="#000000" font-family="sans-serif" font-size="11" lengthAdjust="spacingAndGlyphs" text-decoration="underline" textLength="36" x="233" y="416.1167">main()</text><line style="stroke: #000000; stroke-width: 1.0;" x1="233" x2="269" y1="418.1167" y2="418.1167"/><polygon fill="#FFFF44" points="224,421.6133,228,425.6133,224,429.6133,220,425.6133" style="stroke: #B38D22; stroke-width: 1.0;"/><text fill="#000000" font-family="sans-serif" font-size="11" lengthAdjust="spacingAndGlyphs" textLength="70" x="233" y="428.9214">createView()</text><!--class usantatecla.mastermind.Mastermind--><rect fill="#FEFECE" filter="url(#fq1x3dj7bzvzt)" height="86.4141" id="usantatecla.mastermind.Mastermind" style="stroke: #A80036; stroke-width: 1.5;" width="104" x="255" y="84.9063"/><ellipse cx="270" cy="100.9063" fill="#A9DCDF" rx="11" ry="11" style="stroke: #A80036; stroke-width: 1.0;"/><path d="M270.1094,96.25 L268.9531,101.3281 L271.2813,101.3281 L270.1094,96.25 Z M268.625,94.0156 L271.6094,94.0156 L274.9688,106.4063 L272.5156,106.4063 L271.75,103.3438 L268.4688,103.3438 L267.7188,106.4063 L265.2813,106.4063 L268.625,94.0156 Z "/><text fill="#000000" font-family="sans-serif" font-size="12" font-style="italic" lengthAdjust="spacingAndGlyphs" textLength="72" x="284" y="105.0605">Mastermind</text><line style="stroke: #A80036; stroke-width: 1.5;" x1="256" x2="358" y1="116.9063" y2="116.9063"/><line style="stroke: #A80036; stroke-width: 1.5;" x1="256" x2="358" y1="124.9063" y2="124.9063"/><polygon fill="#FFFF44" points="266,131.8086,270,135.8086,266,139.8086,262,135.8086" style="stroke: #B38D22; stroke-width: 1.0;"/><text fill="#000000" font-family="sans-serif" font-size="11" lengthAdjust="spacingAndGlyphs" textLength="75" x="275" y="139.1167">Mastermind()</text><polygon fill="#FFFF44" points="266,144.6133,270,148.6133,266,152.6133,262,148.6133" style="stroke: #B38D22; stroke-width: 1.0;"/><text fill="#000000" font-family="sans-serif" font-size="11" font-style="italic" lengthAdjust="spacingAndGlyphs" textLength="71" x="275" y="151.9214">createView()</text><polygon fill="#FFFF44" points="266,157.418,270,161.418,266,165.418,262,161.418" style="stroke: #B38D22; stroke-width: 1.0;"/><text fill="#000000" font-family="sans-serif" font-size="11" lengthAdjust="spacingAndGlyphs" textLength="31" x="275" y="164.7261">play()</text><!--class usantatecla.mastermind.controllers.Logic--><rect fill="#FEFECE" filter="url(#fq1x3dj7bzvzt)" height="48" id="usantatecla.mastermind.controllers.Logic" style="stroke: #A80036; stroke-width: 1.5;" width="64" x="397" y="252.9063"/><ellipse cx="412" cy="268.9063" fill="#ADD1B2" rx="11" ry="11" style="stroke: #A80036; stroke-width: 1.0;"/><path d="M414.9688,274.5469 Q414.3906,274.8438 413.75,274.9844 Q413.1094,275.1406 412.4063,275.1406 Q409.9063,275.1406 408.5781,273.5 Q407.2656,271.8438 407.2656,268.7188 Q407.2656,265.5938 408.5781,263.9375 Q409.9063,262.2813 412.4063,262.2813 Q413.1094,262.2813 413.75,262.4375 Q414.4063,262.5938 414.9688,262.8906 L414.9688,265.6094 Q414.3438,265.0313 413.75,264.7656 Q413.1563,264.4844 412.5313,264.4844 Q411.1875,264.4844 410.5,265.5625 Q409.8125,266.625 409.8125,268.7188 Q409.8125,270.8125 410.5,271.8906 Q411.1875,272.9531 412.5313,272.9531 Q413.1563,272.9531 413.75,272.6875 Q414.3438,272.4063 414.9688,271.8281 L414.9688,274.5469 Z "/><text fill="#000000" font-family="sans-serif" font-size="12" lengthAdjust="spacingAndGlyphs" textLength="32" x="426" y="273.0605">Logic</text><line style="stroke: #A80036; stroke-width: 1.5;" x1="398" x2="460" y1="284.9063" y2="284.9063"/><line style="stroke: #A80036; stroke-width: 1.5;" x1="398" x2="460" y1="292.9063" y2="292.9063"/><!--class usantatecla.mastermind.views.View--><rect fill="#FEFECE" filter="url(#fq1x3dj7bzvzt)" height="48" id="usantatecla.mastermind.views.View" style="stroke: #A80036; stroke-width: 1.5;" width="60" x="701" y="252.9063"/><ellipse cx="716" cy="268.9063" fill="#ADD1B2" rx="11" ry="11" style="stroke: #A80036; stroke-width: 1.0;"/><path d="M718.9688,274.5469 Q718.3906,274.8438 717.75,274.9844 Q717.1094,275.1406 716.4063,275.1406 Q713.9063,275.1406 712.5781,273.5 Q711.2656,271.8438 711.2656,268.7188 Q711.2656,265.5938 712.5781,263.9375 Q713.9063,262.2813 716.4063,262.2813 Q717.1094,262.2813 717.75,262.4375 Q718.4063,262.5938 718.9688,262.8906 L718.9688,265.6094 Q718.3438,265.0313 717.75,264.7656 Q717.1563,264.4844 716.5313,264.4844 Q715.1875,264.4844 714.5,265.5625 Q713.8125,266.625 713.8125,268.7188 Q713.8125,270.8125 714.5,271.8906 Q715.1875,272.9531 716.5313,272.9531 Q717.1563,272.9531 717.75,272.6875 Q718.3438,272.4063 718.9688,271.8281 L718.9688,274.5469 Z "/><text fill="#000000" font-family="sans-serif" font-size="12" lengthAdjust="spacingAndGlyphs" textLength="28" x="730" y="273.0605">View</text><line style="stroke: #A80036; stroke-width: 1.5;" x1="702" x2="760" y1="284.9063" y2="284.9063"/><line style="stroke: #A80036; stroke-width: 1.5;" x1="702" x2="760" y1="292.9063" y2="292.9063"/><!--link usantatecla.mastermind.Mastermind to usantatecla.mastermind.ConsoleMastermind--><path d="M261.7434,187.1553 C221.2041,240.2285 162.9893,316.4421 128.5787,361.4917 " fill="none" id="usantatecla.mastermind.Mastermind-usantatecla.mastermind.ConsoleMastermind" style="stroke: #A80036; stroke-width: 1.0;"/><polygon fill="none" points="256.2682,182.7914,273.9713,171.1467,267.3939,191.2897,256.2682,182.7914" style="stroke: #A80036; stroke-width: 1.0;"/><!--link usantatecla.mastermind.Mastermind to usantatecla.mastermind.GraphicsMastermind--><path d="M303.7236,191.3275 C300.9944,244.1581 297.1998,317.6097 294.9329,361.4917 " fill="none" id="usantatecla.mastermind.Mastermind-usantatecla.mastermind.GraphicsMastermind" style="stroke: #A80036; stroke-width: 1.0;"/><polygon fill="none" points="296.7436,190.7589,304.7662,171.1467,310.7249,191.4813,296.7436,190.7589" style="stroke: #A80036; stroke-width: 1.0;"/><!--link usantatecla.mastermind.Mastermind to usantatecla.mastermind.controllers.Logic--><path d="M352.211,181.3168 C364.2574,195.7168 377.2005,211.3424 389,225.9063 C396.0128,234.5621 403.5837,244.1503 410.2323,252.6552 " fill="none" id="usantatecla.mastermind.Mastermind-usantatecla.mastermind.controllers.Logic" style="stroke: #A80036; stroke-width: 1.0;"/><polygon fill="#FFFFFF" points="343.6269,171.0806,344.4173,178.2482,351.3377,180.2753,350.5472,173.1077,343.6269,171.0806" style="stroke: #A80036; stroke-width: 1.0;"/><text fill="#000000" font-family="sans-serif" font-size="13" lengthAdjust="spacingAndGlyphs" textLength="29" x="383" y="213.9731">logic</text><!--link usantatecla.mastermind.Mastermind to usantatecla.mastermind.views.View--><path d="M372.0944,138.9858 C467.7786,156.1728 640.7197,190.9369 693,225.9063 C703.0956,232.6591 711.5313,243.0249 717.8696,252.652 " fill="none" id="usantatecla.mastermind.Mastermind-usantatecla.mastermind.views.View" style="stroke: #A80036; stroke-width: 1.0;"/><polygon fill="#FFFFFF" points="359.1263,136.6791,364.333,141.6681,370.9408,138.7808,365.7341,133.7917,359.1263,136.6791" style="stroke: #A80036; stroke-width: 1.0;"/><text fill="#000000" font-family="sans-serif" font-size="13" lengthAdjust="spacingAndGlyphs" textLength="27" x="678" y="213.9731">view</text><text fill="#888888" font-family="sans-serif" font-size="10" lengthAdjust="spacingAndGlyphs" textLength="0" x="975" y="471.1885"/><text fill="#888888" font-family="sans-serif" font-size="10" lengthAdjust="spacingAndGlyphs" textLength="0" x="975" y="482.8291"/><text fill="#888888" font-family="sans-serif" font-size="10" lengthAdjust="spacingAndGlyphs" textLength="413" x="562" y="494.4697">PlantUML diagram generated by SketchIt! (https://bitbucket.org/pmesmeur/sketch.it)</text><text fill="#888888" font-family="sans-serif" font-size="10" lengthAdjust="spacingAndGlyphs" textLength="402" x="573" y="506.1104">For more information about this tool, please contact philippe.mesmeur@gmail.com</text><!--
@startuml

title __MASTERMIND's Class Diagram__\n

  namespace usantatecla.mastermind {
    class usantatecla.mastermind.ConsoleMastermind {
        {static} + main()
        # createView()
    }
  }
  

  namespace usantatecla.mastermind {
    class usantatecla.mastermind.GraphicsMastermind {
        {static} + main()
        # createView()
    }
  }
  

  namespace usantatecla.mastermind {
    abstract class usantatecla.mastermind.Mastermind {
        # Mastermind()
        {abstract} # createView()
        # play()
    }
  }
  

  usantatecla.mastermind.ConsoleMastermind -up-|> usantatecla.mastermind.Mastermind
  usantatecla.mastermind.GraphicsMastermind -up-|> usantatecla.mastermind.Mastermind
  usantatecla.mastermind.Mastermind o- - usantatecla.mastermind.controllers.Logic : logic
  usantatecla.mastermind.Mastermind o- - usantatecla.mastermind.views.View : view


right footer


PlantUML diagram generated by SketchIt! (https://bitbucket.org/pmesmeur/sketch.it)
For more information about this tool, please contact philippe.mesmeur@gmail.com
endfooter

@enduml

PlantUML version 1.2017.15(Mon Jul 03 18:45:34 CEST 2017)
(GPL source distribution)
Java Runtime: OpenJDK Runtime Environment
JVM: OpenJDK 64-Bit Server VM
Java Version: 11.0.9.1+1-Ubuntu-0ubuntu1.18.04
Operating System: Linux
OS Version: 4.15.0-1102-oem
Default Encoding: UTF-8
Language: en
Country: US
--></g></svg>