<?xml version="1.0" encoding="UTF-8" standalone="no"?><svg xmlns="http://www.w3.org/2000/svg" xmlns:xlink="http://www.w3.org/1999/xlink" contentScriptType="application/ecmascript" contentStyleType="text/css" height="582px" preserveAspectRatio="none" style="width:825px;height:582px;" version="1.1" viewBox="0 0 825 582" width="825px" zoomAndPan="magnify"><defs><filter height="300%" id="f1rijy79wrnym9" width="300%" x="-1" y="-1"><feGaussianBlur result="blurOut" stdDeviation="2.0"/><feColorMatrix in="blurOut" result="blurOut2" type="matrix" values="0 0 0 0 0 0 0 0 0 0 0 0 0 0 0 0 0 0 .4 0"/><feOffset dx="4.0" dy="4.0" in="blurOut2" result="blurOut3"/><feBlend in="SourceGraphic" in2="blurOut3" mode="normal"/></filter></defs><g><text fill="#000000" font-family="sans-serif" font-size="18" lengthAdjust="spacingAndGlyphs" text-decoration="underline" textLength="196" x="308.5" y="16.708">UTILS's Class Diagram</text><line style="stroke: #000000; stroke-width: 1.0;" x1="308.5" x2="504.5" y1="18.708" y2="18.708"/><text fill="#000000" font-family="sans-serif" font-size="18" lengthAdjust="spacingAndGlyphs" textLength="0" x="409.5" y="37.6611"/><!--cluster usantatecla.utils--><polygon fill="#FFFFFF" filter="url(#f1rijy79wrnym9)" points="14,57.9063,149,57.9063,156,80.2031,787,80.2031,787,506.9063,14,506.9063,14,57.9063" style="stroke: #000000; stroke-width: 2.0;"/><line style="stroke: #000000; stroke-width: 2.0;" x1="14" x2="156" y1="80.2031" y2="80.2031"/><text fill="#000000" font-family="sans-serif" font-size="14" font-weight="bold" lengthAdjust="spacingAndGlyphs" textLength="129" x="18" y="72.9014">usantatecla.utils</text><!--class usantatecla.utils.ClosedInterval--><rect fill="#FEFECE" filter="url(#f1rijy79wrnym9)" height="99.2188" id="usantatecla.utils.ClosedInterval" style="stroke: #A80036; stroke-width: 1.5;" width="120" x="109" y="84.9063"/><ellipse cx="124" cy="100.9063" fill="#ADD1B2" rx="11" ry="11" style="stroke: #A80036; stroke-width: 1.0;"/><path d="M126.9688,106.5469 Q126.3906,106.8438 125.75,106.9844 Q125.1094,107.1406 124.4063,107.1406 Q121.9063,107.1406 120.5781,105.5 Q119.2656,103.8438 119.2656,100.7188 Q119.2656,97.5938 120.5781,95.9375 Q121.9063,94.2813 124.4063,94.2813 Q125.1094,94.2813 125.75,94.4375 Q126.4063,94.5938 126.9688,94.8906 L126.9688,97.6094 Q126.3438,97.0313 125.75,96.7656 Q125.1563,96.4844 124.5313,96.4844 Q123.1875,96.4844 122.5,97.5625 Q121.8125,98.625 121.8125,100.7188 Q121.8125,102.8125 122.5,103.8906 Q123.1875,104.9531 124.5313,104.9531 Q125.1563,104.9531 125.75,104.6875 Q126.3438,104.4063 126.9688,103.8281 L126.9688,106.5469 Z "/><text fill="#000000" font-family="sans-serif" font-size="12" lengthAdjust="spacingAndGlyphs" textLength="88" x="138" y="105.0605">ClosedInterval</text><line style="stroke: #A80036; stroke-width: 1.5;" x1="110" x2="228" y1="116.9063" y2="116.9063"/><rect fill="none" height="6" style="stroke: #C82930; stroke-width: 1.0;" width="6" x="117" y="125.8086"/><text fill="#000000" font-family="sans-serif" font-size="11" lengthAdjust="spacingAndGlyphs" textLength="50" x="129" y="131.1167">max : int</text><rect fill="none" height="6" style="stroke: #C82930; stroke-width: 1.0;" width="6" x="117" y="138.6133"/><text fill="#000000" font-family="sans-serif" font-size="11" lengthAdjust="spacingAndGlyphs" textLength="47" x="129" y="143.9214">min : int</text><line style="stroke: #A80036; stroke-width: 1.5;" x1="110" x2="228" y1="150.5156" y2="150.5156"/><ellipse cx="120" cy="162.418" fill="#84BE84" rx="3" ry="3" style="stroke: #038048; stroke-width: 1.0;"/><text fill="#000000" font-family="sans-serif" font-size="11" lengthAdjust="spacingAndGlyphs" textLength="89" x="129" y="164.7261">ClosedInterval()</text><ellipse cx="120" cy="175.2227" fill="#84BE84" rx="3" ry="3" style="stroke: #038048; stroke-width: 1.0;"/><text fill="#000000" font-family="sans-serif" font-size="11" lengthAdjust="spacingAndGlyphs" textLength="55" x="129" y="177.5308">includes()</text><!--class usantatecla.utils.Command--><rect fill="#FEFECE" filter="url(#f1rijy79wrnym9)" height="112.0234" id="usantatecla.utils.Command" style="stroke: #A80036; stroke-width: 1.5;" width="94" x="22" y="354.9063"/><ellipse cx="37" cy="370.9063" fill="#A9DCDF" rx="11" ry="11" style="stroke: #A80036; stroke-width: 1.0;"/><path d="M37.1094,366.25 L35.9531,371.3281 L38.2813,371.3281 L37.1094,366.25 Z M35.625,364.0156 L38.6094,364.0156 L41.9688,376.4063 L39.5156,376.4063 L38.75,373.3438 L35.4688,373.3438 L34.7188,376.4063 L32.2813,376.4063 L35.625,364.0156 Z "/><text fill="#000000" font-family="sans-serif" font-size="12" font-style="italic" lengthAdjust="spacingAndGlyphs" textLength="62" x="51" y="375.0605">Command</text><line style="stroke: #A80036; stroke-width: 1.5;" x1="23" x2="115" y1="386.9063" y2="386.9063"/><polygon fill="none" points="33,393.8086,37,397.8086,33,401.8086,29,397.8086" style="stroke: #B38D22; stroke-width: 1.0;"/><text fill="#000000" font-family="sans-serif" font-size="11" lengthAdjust="spacingAndGlyphs" textLength="67" x="42" y="401.1167">title : String</text><line style="stroke: #A80036; stroke-width: 1.5;" x1="23" x2="115" y1="407.7109" y2="407.7109"/><polygon fill="#FFFF44" points="33,414.6133,37,418.6133,33,422.6133,29,418.6133" style="stroke: #B38D22; stroke-width: 1.0;"/><text fill="#000000" font-family="sans-serif" font-size="11" lengthAdjust="spacingAndGlyphs" textLength="66" x="42" y="421.9214">Command()</text><polygon fill="#FFFF44" points="33,427.418,37,431.418,33,435.418,29,431.418" style="stroke: #B38D22; stroke-width: 1.0;"/><text fill="#000000" font-family="sans-serif" font-size="11" font-style="italic" lengthAdjust="spacingAndGlyphs" textLength="53" x="42" y="434.7261">execute()</text><polygon fill="#FFFF44" points="33,440.2227,37,444.2227,33,448.2227,29,444.2227" style="stroke: #B38D22; stroke-width: 1.0;"/><text fill="#000000" font-family="sans-serif" font-size="11" font-style="italic" lengthAdjust="spacingAndGlyphs" textLength="52" x="42" y="447.5308">isActive()</text><polygon fill="#4177AF" points="33,454.0273,29,460.0273,37,460.0273" style="stroke: #1963A0; stroke-width: 1.0;"/><text fill="#000000" font-family="sans-serif" font-size="11" lengthAdjust="spacingAndGlyphs" textLength="50" x="42" y="460.3354">getTitle()</text><!--class usantatecla.utils.Console--><rect fill="#FEFECE" filter="url(#f1rijy79wrnym9)" height="176.0469" id="usantatecla.utils.Console" style="stroke: #A80036; stroke-width: 1.5;" width="215" x="151.5" y="322.9063"/><ellipse cx="229.75" cy="338.9063" fill="#ADD1B2" rx="11" ry="11" style="stroke: #A80036; stroke-width: 1.0;"/><path d="M232.7188,344.5469 Q232.1406,344.8438 231.5,344.9844 Q230.8594,345.1406 230.1563,345.1406 Q227.6563,345.1406 226.3281,343.5 Q225.0156,341.8438 225.0156,338.7188 Q225.0156,335.5938 226.3281,333.9375 Q227.6563,332.2813 230.1563,332.2813 Q230.8594,332.2813 231.5,332.4375 Q232.1563,332.5938 232.7188,332.8906 L232.7188,335.6094 Q232.0938,335.0313 231.5,334.7656 Q230.9063,334.4844 230.2813,334.4844 Q228.9375,334.4844 228.25,335.5625 Q227.5625,336.625 227.5625,338.7188 Q227.5625,340.8125 228.25,341.8906 Q228.9375,342.9531 230.2813,342.9531 Q230.9063,342.9531 231.5,342.6875 Q232.0938,342.4063 232.7188,341.8281 L232.7188,344.5469 Z "/><text fill="#000000" font-family="sans-serif" font-size="12" lengthAdjust="spacingAndGlyphs" textLength="50" x="250.25" y="343.0605">Console</text><line style="stroke: #A80036; stroke-width: 1.5;" x1="152.5" x2="365.5" y1="354.9063" y2="354.9063"/><rect fill="none" height="6" style="stroke: #C82930; stroke-width: 1.0;" width="6" x="159.5" y="363.8086"/><text fill="#000000" font-family="sans-serif" font-size="11" lengthAdjust="spacingAndGlyphs" textLength="189" x="171.5" y="369.1167">bufferedReader : BufferedReader</text><line style="stroke: #A80036; stroke-width: 1.5;" x1="152.5" x2="365.5" y1="375.7109" y2="375.7109"/><ellipse cx="162.5" cy="387.6133" fill="#84BE84" rx="3" ry="3" style="stroke: #038048; stroke-width: 1.0;"/><text fill="#000000" font-family="sans-serif" font-size="11" lengthAdjust="spacingAndGlyphs" textLength="61" x="171.5" y="389.9214">readChar()</text><ellipse cx="162.5" cy="400.418" fill="#84BE84" rx="3" ry="3" style="stroke: #038048; stroke-width: 1.0;"/><text fill="#000000" font-family="sans-serif" font-size="11" lengthAdjust="spacingAndGlyphs" textLength="48" x="171.5" y="402.7261">readInt()</text><ellipse cx="162.5" cy="413.2227" fill="#84BE84" rx="3" ry="3" style="stroke: #038048; stroke-width: 1.0;"/><text fill="#000000" font-family="sans-serif" font-size="11" lengthAdjust="spacingAndGlyphs" textLength="68" x="171.5" y="415.5308">readString()</text><ellipse cx="162.5" cy="426.0273" fill="#84BE84" rx="3" ry="3" style="stroke: #038048; stroke-width: 1.0;"/><text fill="#000000" font-family="sans-serif" font-size="11" lengthAdjust="spacingAndGlyphs" textLength="36" x="171.5" y="428.3354">write()</text><ellipse cx="162.5" cy="438.832" fill="#84BE84" rx="3" ry="3" style="stroke: #038048; stroke-width: 1.0;"/><text fill="#000000" font-family="sans-serif" font-size="11" lengthAdjust="spacingAndGlyphs" textLength="36" x="171.5" y="441.1401">write()</text><ellipse cx="162.5" cy="451.6367" fill="#84BE84" rx="3" ry="3" style="stroke: #038048; stroke-width: 1.0;"/><text fill="#000000" font-family="sans-serif" font-size="11" lengthAdjust="spacingAndGlyphs" textLength="46" x="171.5" y="453.9448">writeln()</text><ellipse cx="162.5" cy="464.4414" fill="#84BE84" rx="3" ry="3" style="stroke: #038048; stroke-width: 1.0;"/><text fill="#000000" font-family="sans-serif" font-size="11" lengthAdjust="spacingAndGlyphs" textLength="46" x="171.5" y="466.7495">writeln()</text><ellipse cx="162.5" cy="477.2461" fill="#84BE84" rx="3" ry="3" style="stroke: #038048; stroke-width: 1.0;"/><text fill="#000000" font-family="sans-serif" font-size="11" lengthAdjust="spacingAndGlyphs" textLength="46" x="171.5" y="479.5542">writeln()</text><rect fill="#F24D5C" height="6" style="stroke: #C82930; stroke-width: 1.0;" width="6" x="159.5" y="487.0508"/><text fill="#000000" font-family="sans-serif" font-size="11" lengthAdjust="spacingAndGlyphs" textLength="65" x="171.5" y="492.3589">writeError()</text><!--class usantatecla.utils.Menu--><rect fill="#FEFECE" filter="url(#f1rijy79wrnym9)" height="112.0234" id="usantatecla.utils.Menu" style="stroke: #A80036; stroke-width: 1.5;" width="210" x="402" y="354.9063"/><ellipse cx="485.75" cy="370.9063" fill="#A9DCDF" rx="11" ry="11" style="stroke: #A80036; stroke-width: 1.0;"/><path d="M485.8594,366.25 L484.7031,371.3281 L487.0313,371.3281 L485.8594,366.25 Z M484.375,364.0156 L487.3594,364.0156 L490.7188,376.4063 L488.2656,376.4063 L487.5,373.3438 L484.2188,373.3438 L483.4688,376.4063 L481.0313,376.4063 L484.375,364.0156 Z "/><text fill="#000000" font-family="sans-serif" font-size="12" font-style="italic" lengthAdjust="spacingAndGlyphs" textLength="34" x="506.25" y="375.0605">Menu</text><line style="stroke: #A80036; stroke-width: 1.5;" x1="403" x2="611" y1="386.9063" y2="386.9063"/><rect fill="none" height="6" style="stroke: #C82930; stroke-width: 1.0;" width="6" x="410" y="395.8086"/><text fill="#000000" font-family="sans-serif" font-size="11" lengthAdjust="spacingAndGlyphs" text-decoration="underline" textLength="89" x="422" y="401.1167">OPTION : String</text><line style="stroke: #000000; stroke-width: 1.0;" x1="422" x2="511" y1="403.1167" y2="403.1167"/><rect fill="none" height="6" style="stroke: #C82930; stroke-width: 1.0;" width="6" x="410" y="408.6133"/><text fill="#000000" font-family="sans-serif" font-size="11" lengthAdjust="spacingAndGlyphs" textLength="184" x="422" y="413.9214">commandList : List&lt;Command&gt;</text><line style="stroke: #A80036; stroke-width: 1.5;" x1="403" x2="611" y1="420.5156" y2="420.5156"/><ellipse cx="413" cy="432.418" fill="#84BE84" rx="3" ry="3" style="stroke: #038048; stroke-width: 1.0;"/><text fill="#000000" font-family="sans-serif" font-size="11" lengthAdjust="spacingAndGlyphs" textLength="38" x="422" y="434.7261">Menu()</text><ellipse cx="413" cy="445.2227" fill="#84BE84" rx="3" ry="3" style="stroke: #038048; stroke-width: 1.0;"/><text fill="#000000" font-family="sans-serif" font-size="11" lengthAdjust="spacingAndGlyphs" textLength="52" x="422" y="447.5308">execute()</text><polygon fill="#FFFF44" points="413,453.0273,417,457.0273,413,461.0273,409,457.0273" style="stroke: #B38D22; stroke-width: 1.0;"/><text fill="#000000" font-family="sans-serif" font-size="11" lengthAdjust="spacingAndGlyphs" textLength="87" x="422" y="460.3354">addCommand()</text><!--class usantatecla.utils.WithConsoleView--><rect fill="#FEFECE" filter="url(#f1rijy79wrnym9)" height="60.8047" id="usantatecla.utils.WithConsoleView" style="stroke: #A80036; stroke-width: 1.5;" width="138" x="314" y="103.9063"/><ellipse cx="329" cy="119.9063" fill="#A9DCDF" rx="11" ry="11" style="stroke: #A80036; stroke-width: 1.0;"/><path d="M329.1094,115.25 L327.9531,120.3281 L330.2813,120.3281 L329.1094,115.25 Z M327.625,113.0156 L330.6094,113.0156 L333.9688,125.4063 L331.5156,125.4063 L330.75,122.3438 L327.4688,122.3438 L326.7188,125.4063 L324.2813,125.4063 L327.625,113.0156 Z "/><text fill="#000000" font-family="sans-serif" font-size="12" font-style="italic" lengthAdjust="spacingAndGlyphs" textLength="106" x="343" y="124.0605">WithConsoleView</text><line style="stroke: #A80036; stroke-width: 1.5;" x1="315" x2="451" y1="135.9063" y2="135.9063"/><line style="stroke: #A80036; stroke-width: 1.5;" x1="315" x2="451" y1="143.9063" y2="143.9063"/><polygon fill="#FFFF44" points="325,150.8086,329,154.8086,325,158.8086,321,154.8086" style="stroke: #B38D22; stroke-width: 1.0;"/><text fill="#000000" font-family="sans-serif" font-size="11" lengthAdjust="spacingAndGlyphs" textLength="103" x="334" y="158.1167">WithConsoleView()</text><!--class usantatecla.utils.YesNoDialog--><rect fill="#FEFECE" filter="url(#f1rijy79wrnym9)" height="137.6328" id="usantatecla.utils.YesNoDialog" style="stroke: #A80036; stroke-width: 1.5;" width="131" x="647.5" y="341.9063"/><ellipse cx="671.95" cy="357.9063" fill="#ADD1B2" rx="11" ry="11" style="stroke: #A80036; stroke-width: 1.0;"/><path d="M674.9188,363.5469 Q674.3406,363.8438 673.7,363.9844 Q673.0594,364.1406 672.3563,364.1406 Q669.8563,364.1406 668.5281,362.5 Q667.2156,360.8438 667.2156,357.7188 Q667.2156,354.5938 668.5281,352.9375 Q669.8563,351.2813 672.3563,351.2813 Q673.0594,351.2813 673.7,351.4375 Q674.3563,351.5938 674.9188,351.8906 L674.9188,354.6094 Q674.2938,354.0313 673.7,353.7656 Q673.1063,353.4844 672.4813,353.4844 Q671.1375,353.4844 670.45,354.5625 Q669.7625,355.625 669.7625,357.7188 Q669.7625,359.8125 670.45,360.8906 Q671.1375,361.9531 672.4813,361.9531 Q673.1063,361.9531 673.7,361.6875 Q674.2938,361.4063 674.9188,360.8281 L674.9188,363.5469 Z "/><text fill="#000000" font-family="sans-serif" font-size="12" lengthAdjust="spacingAndGlyphs" textLength="78" x="688.05" y="362.0605">YesNoDialog</text><line style="stroke: #A80036; stroke-width: 1.5;" x1="648.5" x2="777.5" y1="373.9063" y2="373.9063"/><rect fill="none" height="6" style="stroke: #C82930; stroke-width: 1.0;" width="6" x="655.5" y="382.8086"/><text fill="#000000" font-family="sans-serif" font-size="11" lengthAdjust="spacingAndGlyphs" text-decoration="underline" textLength="100" x="667.5" y="388.1167">AFIRMATIVE : char</text><line style="stroke: #000000; stroke-width: 1.0;" x1="667.5" x2="767.5" y1="390.1167" y2="390.1167"/><rect fill="none" height="6" style="stroke: #C82930; stroke-width: 1.0;" width="6" x="655.5" y="395.6133"/><text fill="#000000" font-family="sans-serif" font-size="11" lengthAdjust="spacingAndGlyphs" text-decoration="underline" textLength="101" x="667.5" y="400.9214">MESSAGE : String</text><line style="stroke: #000000; stroke-width: 1.0;" x1="667.5" x2="768.5" y1="402.9214" y2="402.9214"/><rect fill="none" height="6" style="stroke: #C82930; stroke-width: 1.0;" width="6" x="655.5" y="408.418"/><text fill="#000000" font-family="sans-serif" font-size="11" lengthAdjust="spacingAndGlyphs" text-decoration="underline" textLength="92" x="667.5" y="413.7261">NEGATIVE : char</text><line style="stroke: #000000; stroke-width: 1.0;" x1="667.5" x2="759.5" y1="415.7261" y2="415.7261"/><rect fill="none" height="6" style="stroke: #C82930; stroke-width: 1.0;" width="6" x="655.5" y="421.2227"/><text fill="#000000" font-family="sans-serif" font-size="11" lengthAdjust="spacingAndGlyphs" text-decoration="underline" textLength="105" x="667.5" y="426.5308">QUESTION : String</text><line style="stroke: #000000; stroke-width: 1.0;" x1="667.5" x2="772.5" y1="428.5308" y2="428.5308"/><line style="stroke: #A80036; stroke-width: 1.5;" x1="648.5" x2="777.5" y1="433.125" y2="433.125"/><ellipse cx="658.5" cy="445.0273" fill="#84BE84" rx="3" ry="3" style="stroke: #038048; stroke-width: 1.0;"/><text fill="#000000" font-family="sans-serif" font-size="11" lengthAdjust="spacingAndGlyphs" textLength="34" x="667.5" y="447.3354">read()</text><rect fill="#F24D5C" height="6" style="stroke: #C82930; stroke-width: 1.0;" width="6" x="655.5" y="454.832"/><text fill="#000000" font-family="sans-serif" font-size="11" lengthAdjust="spacingAndGlyphs" text-decoration="underline" textLength="75" x="667.5" y="460.1401">isAfirmative()</text><line style="stroke: #000000; stroke-width: 1.0;" x1="667.5" x2="742.5" y1="462.1401" y2="462.1401"/><rect fill="#F24D5C" height="6" style="stroke: #C82930; stroke-width: 1.0;" width="6" x="655.5" y="467.6367"/><text fill="#000000" font-family="sans-serif" font-size="11" lengthAdjust="spacingAndGlyphs" text-decoration="underline" textLength="67" x="667.5" y="472.9448">isNegative()</text><line style="stroke: #000000; stroke-width: 1.0;" x1="667.5" x2="734.5" y1="474.9448" y2="474.9448"/><!--link usantatecla.utils.WithConsoleView to usantatecla.utils.Command--><path d="M317.3378,176.4208 C264.6072,211.8984 190.3269,265.911 134,322.9063 C124.5208,332.498 115.2998,343.5382 106.9229,354.4856 " fill="none" id="usantatecla.utils.WithConsoleView-usantatecla.utils.Command" style="stroke: #A80036; stroke-width: 1.0;"/><polygon fill="none" points="313.8059,170.3632,334.3372,165.1223,321.5554,182.0227,313.8059,170.3632" style="stroke: #A80036; stroke-width: 1.0;"/><!--link usantatecla.utils.WithConsoleView to usantatecla.utils.Menu--><path d="M404.9424,183.3343 C426.4649,231.3261 459.2489,304.429 481.8215,354.7623 " fill="none" id="usantatecla.utils.WithConsoleView-usantatecla.utils.Menu" style="stroke: #A80036; stroke-width: 1.0;"/><polygon fill="none" points="398.5408,186.1664,396.7439,165.053,411.3151,180.4376,398.5408,186.1664" style="stroke: #A80036; stroke-width: 1.0;"/><!--link usantatecla.utils.WithConsoleView to usantatecla.utils.Console--><path d="M363.8296,177.1531 C346.4551,215.8954 320.3051,274.2059 298.47,322.8945 " fill="none" id="usantatecla.utils.WithConsoleView-usantatecla.utils.Console" style="stroke: #A80036; stroke-width: 1.0;"/><polygon fill="#FFFFFF" points="369.2561,165.053,363.1511,168.8909,364.3456,176.0023,370.4506,172.1645,369.2561,165.053" style="stroke: #A80036; stroke-width: 1.0;"/><text fill="#000000" font-family="sans-serif" font-size="13" lengthAdjust="spacingAndGlyphs" textLength="49" x="334" y="257.9731">console</text><!--link usantatecla.utils.WithConsoleView to usantatecla.utils.YesNoDialog--><path d="M444.0114,176.7138 C495.3739,213.3141 569.8647,268.7373 630,322.9063 C636.5537,328.8098 643.191,335.1448 649.7081,341.6109 " fill="none" id="usantatecla.utils.WithConsoleView-usantatecla.utils.YesNoDialog" style="stroke: #A80036; stroke-width: 1.0;"/><polygon fill="none" points="439.8151,182.3198,427.5337,165.0523,447.9027,170.8922,439.8151,182.3198" style="stroke: #A80036; stroke-width: 1.0;"/><text fill="#888888" font-family="sans-serif" font-size="10" lengthAdjust="spacingAndGlyphs" textLength="0" x="813" y="534.1885"/><text fill="#888888" font-family="sans-serif" font-size="10" lengthAdjust="spacingAndGlyphs" textLength="0" x="813" y="545.8291"/><text fill="#888888" font-family="sans-serif" font-size="10" lengthAdjust="spacingAndGlyphs" textLength="413" x="400" y="557.4697">PlantUML diagram generated by SketchIt! (https://bitbucket.org/pmesmeur/sketch.it)</text><text fill="#888888" font-family="sans-serif" font-size="10" lengthAdjust="spacingAndGlyphs" textLength="402" x="411" y="569.1104">For more information about this tool, please contact philippe.mesmeur@gmail.com</text><!--
@startuml

title __UTILS's Class Diagram__\n

  namespace usantatecla.utils {
    class usantatecla.utils.ClosedInterval {
        - max : int
        - min : int
        + ClosedInterval()
        + includes()
    }
  }
  

  namespace usantatecla.utils {
    abstract class usantatecla.utils.Command {
        # title : String
        # Command()
        {abstract} # execute()
        {abstract} # isActive()
        ~ getTitle()
    }
  }
  

  namespace usantatecla.utils {
    class usantatecla.utils.Console {
        - bufferedReader : BufferedReader
        + readChar()
        + readInt()
        + readString()
        + write()
        + write()
        + writeln()
        + writeln()
        + writeln()
        - writeError()
    }
  }
  

  namespace usantatecla.utils {
    abstract class usantatecla.utils.Menu {
        {static} - OPTION : String
        - commandList : List<Command>
        + Menu()
        + execute()
        # addCommand()
    }
  }
  

  namespace usantatecla.utils {
    abstract class usantatecla.utils.WithConsoleView {
        # WithConsoleView()
    }
  }
  

  namespace usantatecla.utils {
    class usantatecla.utils.YesNoDialog {
        {static} - AFIRMATIVE : char
        {static} - MESSAGE : String
        {static} - NEGATIVE : char
        {static} - QUESTION : String
        + read()
        {static} - isAfirmative()
        {static} - isNegative()
    }
  }
  

  usantatecla.utils.Command -up-|> usantatecla.utils.WithConsoleView
  usantatecla.utils.Menu -up-|> usantatecla.utils.WithConsoleView
  usantatecla.utils.WithConsoleView o- - usantatecla.utils.Console : console
  usantatecla.utils.YesNoDialog -up-|> usantatecla.utils.WithConsoleView


right footer


PlantUML diagram generated by SketchIt! (https://bitbucket.org/pmesmeur/sketch.it)
For more information about this tool, please contact philippe.mesmeur@gmail.com
endfooter

@enduml

PlantUML version 1.2017.15(Mon Jul 03 18:45:34 CEST 2017)
(GPL source distribution)
Java Runtime: OpenJDK Runtime Environment
JVM: OpenJDK 64-Bit Server VM
Java Version: 11.0.9.1+1-Ubuntu-0ubuntu1.18.04
Operating System: Linux
OS Version: 4.15.0-1102-oem
Default Encoding: UTF-8
Language: en
Country: US
--></g></svg>