<?xml version="1.0" encoding="UTF-8" standalone="no"?><svg xmlns="http://www.w3.org/2000/svg" xmlns:xlink="http://www.w3.org/1999/xlink" contentScriptType="application/ecmascript" contentStyleType="text/css" height="931px" preserveAspectRatio="none" style="width:972px;height:931px;" version="1.1" viewBox="0 0 972 931" width="972px" zoomAndPan="magnify"><defs><filter height="300%" id="f10peweup9i1cm" width="300%" x="-1" y="-1"><feGaussianBlur result="blurOut" stdDeviation="2.0"/><feColorMatrix in="blurOut" result="blurOut2" type="matrix" values="0 0 0 0 0 0 0 0 0 0 0 0 0 0 0 0 0 0 .4 0"/><feOffset dx="4.0" dy="4.0" in="blurOut2" result="blurOut3"/><feBlend in="SourceGraphic" in2="blurOut3" mode="normal"/></filter></defs><g><!--class Mastermind--><rect fill="#FEFECE" filter="url(#f10peweup9i1cm)" height="48" id="Mastermind" style="stroke: #A80036; stroke-width: 1.5;" width="105" x="296" y="8"/><ellipse cx="311" cy="24" fill="#ADD1B2" rx="11" ry="11" style="stroke: #A80036; stroke-width: 1.0;"/><path d="M313.9688,29.6406 Q313.3906,29.9375 312.75,30.0781 Q312.1094,30.2344 311.4063,30.2344 Q308.9063,30.2344 307.5781,28.5938 Q306.2656,26.9375 306.2656,23.8125 Q306.2656,20.6875 307.5781,19.0313 Q308.9063,17.375 311.4063,17.375 Q312.1094,17.375 312.75,17.5313 Q313.4063,17.6875 313.9688,17.9844 L313.9688,20.7031 Q313.3438,20.125 312.75,19.8594 Q312.1563,19.5781 311.5313,19.5781 Q310.1875,19.5781 309.5,20.6563 Q308.8125,21.7188 308.8125,23.8125 Q308.8125,25.9063 309.5,26.9844 Q310.1875,28.0469 311.5313,28.0469 Q312.1563,28.0469 312.75,27.7813 Q313.3438,27.5 313.9688,26.9219 L313.9688,29.6406 Z "/><text fill="#000000" font-family="sans-serif" font-size="12" lengthAdjust="spacingAndGlyphs" textLength="73" x="325" y="28.1543">Mastermind</text><line style="stroke: #A80036; stroke-width: 1.5;" x1="297" x2="400" y1="40" y2="40"/><line style="stroke: #A80036; stroke-width: 1.5;" x1="297" x2="400" y1="48" y2="48"/><!--class Board--><rect fill="#FEFECE" filter="url(#f10peweup9i1cm)" height="48" id="Board" style="stroke: #A80036; stroke-width: 1.5;" width="69" x="397" y="224"/><ellipse cx="412" cy="240" fill="#ADD1B2" rx="11" ry="11" style="stroke: #A80036; stroke-width: 1.0;"/><path d="M414.9688,245.6406 Q414.3906,245.9375 413.75,246.0781 Q413.1094,246.2344 412.4063,246.2344 Q409.9063,246.2344 408.5781,244.5938 Q407.2656,242.9375 407.2656,239.8125 Q407.2656,236.6875 408.5781,235.0313 Q409.9063,233.375 412.4063,233.375 Q413.1094,233.375 413.75,233.5313 Q414.4063,233.6875 414.9688,233.9844 L414.9688,236.7031 Q414.3438,236.125 413.75,235.8594 Q413.1563,235.5781 412.5313,235.5781 Q411.1875,235.5781 410.5,236.6563 Q409.8125,237.7188 409.8125,239.8125 Q409.8125,241.9063 410.5,242.9844 Q411.1875,244.0469 412.5313,244.0469 Q413.1563,244.0469 413.75,243.7813 Q414.3438,243.5 414.9688,242.9219 L414.9688,245.6406 Z "/><text fill="#000000" font-family="sans-serif" font-size="12" lengthAdjust="spacingAndGlyphs" textLength="37" x="426" y="244.1543">Board</text><line style="stroke: #A80036; stroke-width: 1.5;" x1="398" x2="465" y1="256" y2="256"/><line style="stroke: #A80036; stroke-width: 1.5;" x1="398" x2="465" y1="264" y2="264"/><!--class Turn--><rect fill="#FEFECE" filter="url(#f10peweup9i1cm)" height="48" id="Turn" style="stroke: #A80036; stroke-width: 1.5;" width="60" x="318.5" y="116"/><ellipse cx="333.5" cy="132" fill="#ADD1B2" rx="11" ry="11" style="stroke: #A80036; stroke-width: 1.0;"/><path d="M336.4688,137.6406 Q335.8906,137.9375 335.25,138.0781 Q334.6094,138.2344 333.9063,138.2344 Q331.4063,138.2344 330.0781,136.5938 Q328.7656,134.9375 328.7656,131.8125 Q328.7656,128.6875 330.0781,127.0313 Q331.4063,125.375 333.9063,125.375 Q334.6094,125.375 335.25,125.5313 Q335.9063,125.6875 336.4688,125.9844 L336.4688,128.7031 Q335.8438,128.125 335.25,127.8594 Q334.6563,127.5781 334.0313,127.5781 Q332.6875,127.5781 332,128.6563 Q331.3125,129.7188 331.3125,131.8125 Q331.3125,133.9063 332,134.9844 Q332.6875,136.0469 334.0313,136.0469 Q334.6563,136.0469 335.25,135.7813 Q335.8438,135.5 336.4688,134.9219 L336.4688,137.6406 Z "/><text fill="#000000" font-family="sans-serif" font-size="12" lengthAdjust="spacingAndGlyphs" textLength="28" x="347.5" y="136.1543">Turn</text><line style="stroke: #A80036; stroke-width: 1.5;" x1="319.5" x2="377.5" y1="148" y2="148"/><line style="stroke: #A80036; stroke-width: 1.5;" x1="319.5" x2="377.5" y1="156" y2="156"/><!--class Player--><rect fill="#FEFECE" filter="url(#f10peweup9i1cm)" height="48" id="Player" style="stroke: #A80036; stroke-width: 1.5;" width="70" x="260.5" y="224"/><ellipse cx="275.5" cy="240" fill="#ADD1B2" rx="11" ry="11" style="stroke: #A80036; stroke-width: 1.0;"/><path d="M278.4688,245.6406 Q277.8906,245.9375 277.25,246.0781 Q276.6094,246.2344 275.9063,246.2344 Q273.4063,246.2344 272.0781,244.5938 Q270.7656,242.9375 270.7656,239.8125 Q270.7656,236.6875 272.0781,235.0313 Q273.4063,233.375 275.9063,233.375 Q276.6094,233.375 277.25,233.5313 Q277.9063,233.6875 278.4688,233.9844 L278.4688,236.7031 Q277.8438,236.125 277.25,235.8594 Q276.6563,235.5781 276.0313,235.5781 Q274.6875,235.5781 274,236.6563 Q273.3125,237.7188 273.3125,239.8125 Q273.3125,241.9063 274,242.9844 Q274.6875,244.0469 276.0313,244.0469 Q276.6563,244.0469 277.25,243.7813 Q277.8438,243.5 278.4688,242.9219 L278.4688,245.6406 Z "/><text fill="#000000" font-family="sans-serif" font-size="12" lengthAdjust="spacingAndGlyphs" textLength="38" x="289.5" y="244.1543">Player</text><line style="stroke: #A80036; stroke-width: 1.5;" x1="261.5" x2="329.5" y1="256" y2="256"/><line style="stroke: #A80036; stroke-width: 1.5;" x1="261.5" x2="329.5" y1="264" y2="264"/><!--class Result--><rect fill="#FEFECE" filter="url(#f10peweup9i1cm)" height="48" id="Result" style="stroke: #A80036; stroke-width: 1.5;" width="71" x="485" y="332"/><ellipse cx="500" cy="348" fill="#ADD1B2" rx="11" ry="11" style="stroke: #A80036; stroke-width: 1.0;"/><path d="M502.9688,353.6406 Q502.3906,353.9375 501.75,354.0781 Q501.1094,354.2344 500.4063,354.2344 Q497.9063,354.2344 496.5781,352.5938 Q495.2656,350.9375 495.2656,347.8125 Q495.2656,344.6875 496.5781,343.0313 Q497.9063,341.375 500.4063,341.375 Q501.1094,341.375 501.75,341.5313 Q502.4063,341.6875 502.9688,341.9844 L502.9688,344.7031 Q502.3438,344.125 501.75,343.8594 Q501.1563,343.5781 500.5313,343.5781 Q499.1875,343.5781 498.5,344.6563 Q497.8125,345.7188 497.8125,347.8125 Q497.8125,349.9063 498.5,350.9844 Q499.1875,352.0469 500.5313,352.0469 Q501.1563,352.0469 501.75,351.7813 Q502.3438,351.5 502.9688,350.9219 L502.9688,353.6406 Z "/><text fill="#000000" font-family="sans-serif" font-size="12" lengthAdjust="spacingAndGlyphs" textLength="39" x="514" y="352.1543">Result</text><line style="stroke: #A80036; stroke-width: 1.5;" x1="486" x2="555" y1="364" y2="364"/><line style="stroke: #A80036; stroke-width: 1.5;" x1="486" x2="555" y1="372" y2="372"/><!--class Maker--><rect fill="#FEFECE" filter="url(#f10peweup9i1cm)" height="48" id="Maker" style="stroke: #A80036; stroke-width: 1.5;" width="70" x="308.5" y="332"/><ellipse cx="323.5" cy="348" fill="#ADD1B2" rx="11" ry="11" style="stroke: #A80036; stroke-width: 1.0;"/><path d="M326.4688,353.6406 Q325.8906,353.9375 325.25,354.0781 Q324.6094,354.2344 323.9063,354.2344 Q321.4063,354.2344 320.0781,352.5938 Q318.7656,350.9375 318.7656,347.8125 Q318.7656,344.6875 320.0781,343.0313 Q321.4063,341.375 323.9063,341.375 Q324.6094,341.375 325.25,341.5313 Q325.9063,341.6875 326.4688,341.9844 L326.4688,344.7031 Q325.8438,344.125 325.25,343.8594 Q324.6563,343.5781 324.0313,343.5781 Q322.6875,343.5781 322,344.6563 Q321.3125,345.7188 321.3125,347.8125 Q321.3125,349.9063 322,350.9844 Q322.6875,352.0469 324.0313,352.0469 Q324.6563,352.0469 325.25,351.7813 Q325.8438,351.5 326.4688,350.9219 L326.4688,353.6406 Z "/><text fill="#000000" font-family="sans-serif" font-size="12" lengthAdjust="spacingAndGlyphs" textLength="38" x="337.5" y="352.1543">Maker</text><line style="stroke: #A80036; stroke-width: 1.5;" x1="309.5" x2="377.5" y1="364" y2="364"/><line style="stroke: #A80036; stroke-width: 1.5;" x1="309.5" x2="377.5" y1="372" y2="372"/><!--class Breaker--><rect fill="#FEFECE" filter="url(#f10peweup9i1cm)" height="48" id="Breaker" style="stroke: #A80036; stroke-width: 1.5;" width="81" x="6" y="332"/><ellipse cx="21" cy="348" fill="#ADD1B2" rx="11" ry="11" style="stroke: #A80036; stroke-width: 1.0;"/><path d="M23.9688,353.6406 Q23.3906,353.9375 22.75,354.0781 Q22.1094,354.2344 21.4063,354.2344 Q18.9063,354.2344 17.5781,352.5938 Q16.2656,350.9375 16.2656,347.8125 Q16.2656,344.6875 17.5781,343.0313 Q18.9063,341.375 21.4063,341.375 Q22.1094,341.375 22.75,341.5313 Q23.4063,341.6875 23.9688,341.9844 L23.9688,344.7031 Q23.3438,344.125 22.75,343.8594 Q22.1563,343.5781 21.5313,343.5781 Q20.1875,343.5781 19.5,344.6563 Q18.8125,345.7188 18.8125,347.8125 Q18.8125,349.9063 19.5,350.9844 Q20.1875,352.0469 21.5313,352.0469 Q22.1563,352.0469 22.75,351.7813 Q23.3438,351.5 23.9688,350.9219 L23.9688,353.6406 Z "/><text fill="#000000" font-family="sans-serif" font-size="12" lengthAdjust="spacingAndGlyphs" textLength="49" x="35" y="352.1543">Breaker</text><line style="stroke: #A80036; stroke-width: 1.5;" x1="7" x2="86" y1="364" y2="364"/><line style="stroke: #A80036; stroke-width: 1.5;" x1="7" x2="86" y1="372" y2="372"/><!--class Pattern--><rect fill="#FEFECE" filter="url(#f10peweup9i1cm)" height="48" id="Pattern" style="stroke: #A80036; stroke-width: 1.5;" width="79" x="194" y="332"/><ellipse cx="209" cy="348" fill="#ADD1B2" rx="11" ry="11" style="stroke: #A80036; stroke-width: 1.0;"/><path d="M211.9688,353.6406 Q211.3906,353.9375 210.75,354.0781 Q210.1094,354.2344 209.4063,354.2344 Q206.9063,354.2344 205.5781,352.5938 Q204.2656,350.9375 204.2656,347.8125 Q204.2656,344.6875 205.5781,343.0313 Q206.9063,341.375 209.4063,341.375 Q210.1094,341.375 210.75,341.5313 Q211.4063,341.6875 211.9688,341.9844 L211.9688,344.7031 Q211.3438,344.125 210.75,343.8594 Q210.1563,343.5781 209.5313,343.5781 Q208.1875,343.5781 207.5,344.6563 Q206.8125,345.7188 206.8125,347.8125 Q206.8125,349.9063 207.5,350.9844 Q208.1875,352.0469 209.5313,352.0469 Q210.1563,352.0469 210.75,351.7813 Q211.3438,351.5 211.9688,350.9219 L211.9688,353.6406 Z "/><text fill="#000000" font-family="sans-serif" font-size="12" lengthAdjust="spacingAndGlyphs" textLength="47" x="223" y="352.1543">Pattern</text><line style="stroke: #A80036; stroke-width: 1.5;" x1="195" x2="272" y1="364" y2="364"/><line style="stroke: #A80036; stroke-width: 1.5;" x1="195" x2="272" y1="372" y2="372"/><!--class SecretPattern--><rect fill="#FEFECE" filter="url(#f10peweup9i1cm)" height="48" id="SecretPattern" style="stroke: #A80036; stroke-width: 1.5;" width="120" x="305.5" y="440"/><ellipse cx="320.5" cy="456" fill="#ADD1B2" rx="11" ry="11" style="stroke: #A80036; stroke-width: 1.0;"/><path d="M323.4688,461.6406 Q322.8906,461.9375 322.25,462.0781 Q321.6094,462.2344 320.9063,462.2344 Q318.4063,462.2344 317.0781,460.5938 Q315.7656,458.9375 315.7656,455.8125 Q315.7656,452.6875 317.0781,451.0313 Q318.4063,449.375 320.9063,449.375 Q321.6094,449.375 322.25,449.5313 Q322.9063,449.6875 323.4688,449.9844 L323.4688,452.7031 Q322.8438,452.125 322.25,451.8594 Q321.6563,451.5781 321.0313,451.5781 Q319.6875,451.5781 319,452.6563 Q318.3125,453.7188 318.3125,455.8125 Q318.3125,457.9063 319,458.9844 Q319.6875,460.0469 321.0313,460.0469 Q321.6563,460.0469 322.25,459.7813 Q322.8438,459.5 323.4688,458.9219 L323.4688,461.6406 Z "/><text fill="#000000" font-family="sans-serif" font-size="12" lengthAdjust="spacingAndGlyphs" textLength="88" x="334.5" y="460.1543">SecretPattern</text><line style="stroke: #A80036; stroke-width: 1.5;" x1="306.5" x2="424.5" y1="472" y2="472"/><line style="stroke: #A80036; stroke-width: 1.5;" x1="306.5" x2="424.5" y1="480" y2="480"/><!--class GuessPattern--><rect fill="#FEFECE" filter="url(#f10peweup9i1cm)" height="48" id="GuessPattern" style="stroke: #A80036; stroke-width: 1.5;" width="118" x="81.5" y="440"/><ellipse cx="96.5" cy="456" fill="#ADD1B2" rx="11" ry="11" style="stroke: #A80036; stroke-width: 1.0;"/><path d="M99.4688,461.6406 Q98.8906,461.9375 98.25,462.0781 Q97.6094,462.2344 96.9063,462.2344 Q94.4063,462.2344 93.0781,460.5938 Q91.7656,458.9375 91.7656,455.8125 Q91.7656,452.6875 93.0781,451.0313 Q94.4063,449.375 96.9063,449.375 Q97.6094,449.375 98.25,449.5313 Q98.9063,449.6875 99.4688,449.9844 L99.4688,452.7031 Q98.8438,452.125 98.25,451.8594 Q97.6563,451.5781 97.0313,451.5781 Q95.6875,451.5781 95,452.6563 Q94.3125,453.7188 94.3125,455.8125 Q94.3125,457.9063 95,458.9844 Q95.6875,460.0469 97.0313,460.0469 Q97.6563,460.0469 98.25,459.7813 Q98.8438,459.5 99.4688,458.9219 L99.4688,461.6406 Z "/><text fill="#000000" font-family="sans-serif" font-size="12" lengthAdjust="spacingAndGlyphs" textLength="86" x="110.5" y="460.1543">GuessPattern</text><line style="stroke: #A80036; stroke-width: 1.5;" x1="82.5" x2="198.5" y1="472" y2="472"/><line style="stroke: #A80036; stroke-width: 1.5;" x1="82.5" x2="198.5" y1="480" y2="480"/><!--class Position--><rect fill="#FEFECE" filter="url(#f10peweup9i1cm)" height="48" id="Position" style="stroke: #A80036; stroke-width: 1.5;" width="82" x="475.5" y="656"/><ellipse cx="490.5" cy="672" fill="#ADD1B2" rx="11" ry="11" style="stroke: #A80036; stroke-width: 1.0;"/><path d="M493.4688,677.6406 Q492.8906,677.9375 492.25,678.0781 Q491.6094,678.2344 490.9063,678.2344 Q488.4063,678.2344 487.0781,676.5938 Q485.7656,674.9375 485.7656,671.8125 Q485.7656,668.6875 487.0781,667.0313 Q488.4063,665.375 490.9063,665.375 Q491.6094,665.375 492.25,665.5313 Q492.9063,665.6875 493.4688,665.9844 L493.4688,668.7031 Q492.8438,668.125 492.25,667.8594 Q491.6563,667.5781 491.0313,667.5781 Q489.6875,667.5781 489,668.6563 Q488.3125,669.7188 488.3125,671.8125 Q488.3125,673.9063 489,674.9844 Q489.6875,676.0469 491.0313,676.0469 Q491.6563,676.0469 492.25,675.7813 Q492.8438,675.5 493.4688,674.9219 L493.4688,677.6406 Z "/><text fill="#000000" font-family="sans-serif" font-size="12" lengthAdjust="spacingAndGlyphs" textLength="50" x="504.5" y="676.1543">Position</text><line style="stroke: #A80036; stroke-width: 1.5;" x1="476.5" x2="556.5" y1="688" y2="688"/><line style="stroke: #A80036; stroke-width: 1.5;" x1="476.5" x2="556.5" y1="696" y2="696"/><!--class Color--><rect fill="#FEFECE" filter="url(#f10peweup9i1cm)" height="48" id="Color" style="stroke: #A80036; stroke-width: 1.5;" width="64" x="531.5" y="764"/><ellipse cx="546.5" cy="780" fill="#ADD1B2" rx="11" ry="11" style="stroke: #A80036; stroke-width: 1.0;"/><path d="M549.4688,785.6406 Q548.8906,785.9375 548.25,786.0781 Q547.6094,786.2344 546.9063,786.2344 Q544.4063,786.2344 543.0781,784.5938 Q541.7656,782.9375 541.7656,779.8125 Q541.7656,776.6875 543.0781,775.0313 Q544.4063,773.375 546.9063,773.375 Q547.6094,773.375 548.25,773.5313 Q548.9063,773.6875 549.4688,773.9844 L549.4688,776.7031 Q548.8438,776.125 548.25,775.8594 Q547.6563,775.5781 547.0313,775.5781 Q545.6875,775.5781 545,776.6563 Q544.3125,777.7188 544.3125,779.8125 Q544.3125,781.9063 545,782.9844 Q545.6875,784.0469 547.0313,784.0469 Q547.6563,784.0469 548.25,783.7813 Q548.8438,783.5 549.4688,782.9219 L549.4688,785.6406 Z "/><text fill="#000000" font-family="sans-serif" font-size="12" lengthAdjust="spacingAndGlyphs" textLength="32" x="560.5" y="784.1543">Color</text><line style="stroke: #A80036; stroke-width: 1.5;" x1="532.5" x2="594.5" y1="796" y2="796"/><line style="stroke: #A80036; stroke-width: 1.5;" x1="532.5" x2="594.5" y1="804" y2="804"/><!--class White--><rect fill="#FEFECE" filter="url(#f10peweup9i1cm)" height="48" id="White" style="stroke: #A80036; stroke-width: 1.5;" width="67" x="180" y="872"/><ellipse cx="195" cy="888" fill="#ADD1B2" rx="11" ry="11" style="stroke: #A80036; stroke-width: 1.0;"/><path d="M197.9688,893.6406 Q197.3906,893.9375 196.75,894.0781 Q196.1094,894.2344 195.4063,894.2344 Q192.9063,894.2344 191.5781,892.5938 Q190.2656,890.9375 190.2656,887.8125 Q190.2656,884.6875 191.5781,883.0313 Q192.9063,881.375 195.4063,881.375 Q196.1094,881.375 196.75,881.5313 Q197.4063,881.6875 197.9688,881.9844 L197.9688,884.7031 Q197.3438,884.125 196.75,883.8594 Q196.1563,883.5781 195.5313,883.5781 Q194.1875,883.5781 193.5,884.6563 Q192.8125,885.7188 192.8125,887.8125 Q192.8125,889.9063 193.5,890.9844 Q194.1875,892.0469 195.5313,892.0469 Q196.1563,892.0469 196.75,891.7813 Q197.3438,891.5 197.9688,890.9219 L197.9688,893.6406 Z "/><text fill="#000000" font-family="sans-serif" font-size="12" lengthAdjust="spacingAndGlyphs" textLength="35" x="209" y="892.1543">White</text><line style="stroke: #A80036; stroke-width: 1.5;" x1="181" x2="246" y1="904" y2="904"/><line style="stroke: #A80036; stroke-width: 1.5;" x1="181" x2="246" y1="912" y2="912"/><!--class Black--><rect fill="#FEFECE" filter="url(#f10peweup9i1cm)" height="48" id="Black" style="stroke: #A80036; stroke-width: 1.5;" width="65" x="282" y="872"/><ellipse cx="297" cy="888" fill="#ADD1B2" rx="11" ry="11" style="stroke: #A80036; stroke-width: 1.0;"/><path d="M299.9688,893.6406 Q299.3906,893.9375 298.75,894.0781 Q298.1094,894.2344 297.4063,894.2344 Q294.9063,894.2344 293.5781,892.5938 Q292.2656,890.9375 292.2656,887.8125 Q292.2656,884.6875 293.5781,883.0313 Q294.9063,881.375 297.4063,881.375 Q298.1094,881.375 298.75,881.5313 Q299.4063,881.6875 299.9688,881.9844 L299.9688,884.7031 Q299.3438,884.125 298.75,883.8594 Q298.1563,883.5781 297.5313,883.5781 Q296.1875,883.5781 295.5,884.6563 Q294.8125,885.7188 294.8125,887.8125 Q294.8125,889.9063 295.5,890.9844 Q296.1875,892.0469 297.5313,892.0469 Q298.1563,892.0469 298.75,891.7813 Q299.3438,891.5 299.9688,890.9219 L299.9688,893.6406 Z "/><text fill="#000000" font-family="sans-serif" font-size="12" lengthAdjust="spacingAndGlyphs" textLength="33" x="311" y="892.1543">Black</text><line style="stroke: #A80036; stroke-width: 1.5;" x1="283" x2="346" y1="904" y2="904"/><line style="stroke: #A80036; stroke-width: 1.5;" x1="283" x2="346" y1="912" y2="912"/><!--class Yellow--><rect fill="#FEFECE" filter="url(#f10peweup9i1cm)" height="48" id="Yellow" style="stroke: #A80036; stroke-width: 1.5;" width="70" x="382.5" y="872"/><ellipse cx="397.5" cy="888" fill="#ADD1B2" rx="11" ry="11" style="stroke: #A80036; stroke-width: 1.0;"/><path d="M400.4688,893.6406 Q399.8906,893.9375 399.25,894.0781 Q398.6094,894.2344 397.9063,894.2344 Q395.4063,894.2344 394.0781,892.5938 Q392.7656,890.9375 392.7656,887.8125 Q392.7656,884.6875 394.0781,883.0313 Q395.4063,881.375 397.9063,881.375 Q398.6094,881.375 399.25,881.5313 Q399.9063,881.6875 400.4688,881.9844 L400.4688,884.7031 Q399.8438,884.125 399.25,883.8594 Q398.6563,883.5781 398.0313,883.5781 Q396.6875,883.5781 396,884.6563 Q395.3125,885.7188 395.3125,887.8125 Q395.3125,889.9063 396,890.9844 Q396.6875,892.0469 398.0313,892.0469 Q398.6563,892.0469 399.25,891.7813 Q399.8438,891.5 400.4688,890.9219 L400.4688,893.6406 Z "/><text fill="#000000" font-family="sans-serif" font-size="12" lengthAdjust="spacingAndGlyphs" textLength="38" x="411.5" y="892.1543">Yellow</text><line style="stroke: #A80036; stroke-width: 1.5;" x1="383.5" x2="451.5" y1="904" y2="904"/><line style="stroke: #A80036; stroke-width: 1.5;" x1="383.5" x2="451.5" y1="912" y2="912"/><!--class Blue--><rect fill="#FEFECE" filter="url(#f10peweup9i1cm)" height="48" id="Blue" style="stroke: #A80036; stroke-width: 1.5;" width="59" x="488" y="872"/><ellipse cx="503" cy="888" fill="#ADD1B2" rx="11" ry="11" style="stroke: #A80036; stroke-width: 1.0;"/><path d="M505.9688,893.6406 Q505.3906,893.9375 504.75,894.0781 Q504.1094,894.2344 503.4063,894.2344 Q500.9063,894.2344 499.5781,892.5938 Q498.2656,890.9375 498.2656,887.8125 Q498.2656,884.6875 499.5781,883.0313 Q500.9063,881.375 503.4063,881.375 Q504.1094,881.375 504.75,881.5313 Q505.4063,881.6875 505.9688,881.9844 L505.9688,884.7031 Q505.3438,884.125 504.75,883.8594 Q504.1563,883.5781 503.5313,883.5781 Q502.1875,883.5781 501.5,884.6563 Q500.8125,885.7188 500.8125,887.8125 Q500.8125,889.9063 501.5,890.9844 Q502.1875,892.0469 503.5313,892.0469 Q504.1563,892.0469 504.75,891.7813 Q505.3438,891.5 505.9688,890.9219 L505.9688,893.6406 Z "/><text fill="#000000" font-family="sans-serif" font-size="12" lengthAdjust="spacingAndGlyphs" textLength="27" x="517" y="892.1543">Blue</text><line style="stroke: #A80036; stroke-width: 1.5;" x1="489" x2="546" y1="904" y2="904"/><line style="stroke: #A80036; stroke-width: 1.5;" x1="489" x2="546" y1="912" y2="912"/><!--class Red--><rect fill="#FEFECE" filter="url(#f10peweup9i1cm)" height="48" id="Red" style="stroke: #A80036; stroke-width: 1.5;" width="56" x="582.5" y="872"/><ellipse cx="597.5" cy="888" fill="#ADD1B2" rx="11" ry="11" style="stroke: #A80036; stroke-width: 1.0;"/><path d="M600.4688,893.6406 Q599.8906,893.9375 599.25,894.0781 Q598.6094,894.2344 597.9063,894.2344 Q595.4063,894.2344 594.0781,892.5938 Q592.7656,890.9375 592.7656,887.8125 Q592.7656,884.6875 594.0781,883.0313 Q595.4063,881.375 597.9063,881.375 Q598.6094,881.375 599.25,881.5313 Q599.9063,881.6875 600.4688,881.9844 L600.4688,884.7031 Q599.8438,884.125 599.25,883.8594 Q598.6563,883.5781 598.0313,883.5781 Q596.6875,883.5781 596,884.6563 Q595.3125,885.7188 595.3125,887.8125 Q595.3125,889.9063 596,890.9844 Q596.6875,892.0469 598.0313,892.0469 Q598.6563,892.0469 599.25,891.7813 Q599.8438,891.5 600.4688,890.9219 L600.4688,893.6406 Z "/><text fill="#000000" font-family="sans-serif" font-size="12" lengthAdjust="spacingAndGlyphs" textLength="24" x="611.5" y="892.1543">Red</text><line style="stroke: #A80036; stroke-width: 1.5;" x1="583.5" x2="637.5" y1="904" y2="904"/><line style="stroke: #A80036; stroke-width: 1.5;" x1="583.5" x2="637.5" y1="912" y2="912"/><!--class Green--><rect fill="#FEFECE" filter="url(#f10peweup9i1cm)" height="48" id="Green" style="stroke: #A80036; stroke-width: 1.5;" width="70" x="673.5" y="872"/><ellipse cx="688.5" cy="888" fill="#ADD1B2" rx="11" ry="11" style="stroke: #A80036; stroke-width: 1.0;"/><path d="M691.4688,893.6406 Q690.8906,893.9375 690.25,894.0781 Q689.6094,894.2344 688.9063,894.2344 Q686.4063,894.2344 685.0781,892.5938 Q683.7656,890.9375 683.7656,887.8125 Q683.7656,884.6875 685.0781,883.0313 Q686.4063,881.375 688.9063,881.375 Q689.6094,881.375 690.25,881.5313 Q690.9063,881.6875 691.4688,881.9844 L691.4688,884.7031 Q690.8438,884.125 690.25,883.8594 Q689.6563,883.5781 689.0313,883.5781 Q687.6875,883.5781 687,884.6563 Q686.3125,885.7188 686.3125,887.8125 Q686.3125,889.9063 687,890.9844 Q687.6875,892.0469 689.0313,892.0469 Q689.6563,892.0469 690.25,891.7813 Q690.8438,891.5 691.4688,890.9219 L691.4688,893.6406 Z "/><text fill="#000000" font-family="sans-serif" font-size="12" lengthAdjust="spacingAndGlyphs" textLength="38" x="702.5" y="892.1543">Green</text><line style="stroke: #A80036; stroke-width: 1.5;" x1="674.5" x2="742.5" y1="904" y2="904"/><line style="stroke: #A80036; stroke-width: 1.5;" x1="674.5" x2="742.5" y1="912" y2="912"/><!--class Brown--><rect fill="#FEFECE" filter="url(#f10peweup9i1cm)" height="48" id="Brown" style="stroke: #A80036; stroke-width: 1.5;" width="70" x="778.5" y="872"/><ellipse cx="793.5" cy="888" fill="#ADD1B2" rx="11" ry="11" style="stroke: #A80036; stroke-width: 1.0;"/><path d="M796.4688,893.6406 Q795.8906,893.9375 795.25,894.0781 Q794.6094,894.2344 793.9063,894.2344 Q791.4063,894.2344 790.0781,892.5938 Q788.7656,890.9375 788.7656,887.8125 Q788.7656,884.6875 790.0781,883.0313 Q791.4063,881.375 793.9063,881.375 Q794.6094,881.375 795.25,881.5313 Q795.9063,881.6875 796.4688,881.9844 L796.4688,884.7031 Q795.8438,884.125 795.25,883.8594 Q794.6563,883.5781 794.0313,883.5781 Q792.6875,883.5781 792,884.6563 Q791.3125,885.7188 791.3125,887.8125 Q791.3125,889.9063 792,890.9844 Q792.6875,892.0469 794.0313,892.0469 Q794.6563,892.0469 795.25,891.7813 Q795.8438,891.5 796.4688,890.9219 L796.4688,893.6406 Z "/><text fill="#000000" font-family="sans-serif" font-size="12" lengthAdjust="spacingAndGlyphs" textLength="38" x="807.5" y="892.1543">Brown</text><line style="stroke: #A80036; stroke-width: 1.5;" x1="779.5" x2="847.5" y1="904" y2="904"/><line style="stroke: #A80036; stroke-width: 1.5;" x1="779.5" x2="847.5" y1="912" y2="912"/><!--class Orange--><rect fill="#FEFECE" filter="url(#f10peweup9i1cm)" height="48" id="Orange" style="stroke: #A80036; stroke-width: 1.5;" width="78" x="883.5" y="872"/><ellipse cx="898.5" cy="888" fill="#ADD1B2" rx="11" ry="11" style="stroke: #A80036; stroke-width: 1.0;"/><path d="M901.4688,893.6406 Q900.8906,893.9375 900.25,894.0781 Q899.6094,894.2344 898.9063,894.2344 Q896.4063,894.2344 895.0781,892.5938 Q893.7656,890.9375 893.7656,887.8125 Q893.7656,884.6875 895.0781,883.0313 Q896.4063,881.375 898.9063,881.375 Q899.6094,881.375 900.25,881.5313 Q900.9063,881.6875 901.4688,881.9844 L901.4688,884.7031 Q900.8438,884.125 900.25,883.8594 Q899.6563,883.5781 899.0313,883.5781 Q897.6875,883.5781 897,884.6563 Q896.3125,885.7188 896.3125,887.8125 Q896.3125,889.9063 897,890.9844 Q897.6875,892.0469 899.0313,892.0469 Q899.6563,892.0469 900.25,891.7813 Q900.8438,891.5 901.4688,890.9219 L901.4688,893.6406 Z "/><text fill="#000000" font-family="sans-serif" font-size="12" lengthAdjust="spacingAndGlyphs" textLength="46" x="912.5" y="892.1543">Orange</text><line style="stroke: #A80036; stroke-width: 1.5;" x1="884.5" x2="960.5" y1="904" y2="904"/><line style="stroke: #A80036; stroke-width: 1.5;" x1="884.5" x2="960.5" y1="912" y2="912"/><!--class Hit--><rect fill="#FEFECE" filter="url(#f10peweup9i1cm)" height="48" id="Hit" style="stroke: #A80036; stroke-width: 1.5;" width="49" x="610" y="440"/><ellipse cx="625" cy="456" fill="#ADD1B2" rx="11" ry="11" style="stroke: #A80036; stroke-width: 1.0;"/><path d="M627.9688,461.6406 Q627.3906,461.9375 626.75,462.0781 Q626.1094,462.2344 625.4063,462.2344 Q622.9063,462.2344 621.5781,460.5938 Q620.2656,458.9375 620.2656,455.8125 Q620.2656,452.6875 621.5781,451.0313 Q622.9063,449.375 625.4063,449.375 Q626.1094,449.375 626.75,449.5313 Q627.4063,449.6875 627.9688,449.9844 L627.9688,452.7031 Q627.3438,452.125 626.75,451.8594 Q626.1563,451.5781 625.5313,451.5781 Q624.1875,451.5781 623.5,452.6563 Q622.8125,453.7188 622.8125,455.8125 Q622.8125,457.9063 623.5,458.9844 Q624.1875,460.0469 625.5313,460.0469 Q626.1563,460.0469 626.75,459.7813 Q627.3438,459.5 627.9688,458.9219 L627.9688,461.6406 Z "/><text fill="#000000" font-family="sans-serif" font-size="12" lengthAdjust="spacingAndGlyphs" textLength="17" x="639" y="460.1543">Hit</text><line style="stroke: #A80036; stroke-width: 1.5;" x1="611" x2="658" y1="472" y2="472"/><line style="stroke: #A80036; stroke-width: 1.5;" x1="611" x2="658" y1="480" y2="480"/><!--class BlackHit--><rect fill="#FEFECE" filter="url(#f10peweup9i1cm)" height="48" id="BlackHit" style="stroke: #A80036; stroke-width: 1.5;" width="82" x="475.5" y="548"/><ellipse cx="490.5" cy="564" fill="#ADD1B2" rx="11" ry="11" style="stroke: #A80036; stroke-width: 1.0;"/><path d="M493.4688,569.6406 Q492.8906,569.9375 492.25,570.0781 Q491.6094,570.2344 490.9063,570.2344 Q488.4063,570.2344 487.0781,568.5938 Q485.7656,566.9375 485.7656,563.8125 Q485.7656,560.6875 487.0781,559.0313 Q488.4063,557.375 490.9063,557.375 Q491.6094,557.375 492.25,557.5313 Q492.9063,557.6875 493.4688,557.9844 L493.4688,560.7031 Q492.8438,560.125 492.25,559.8594 Q491.6563,559.5781 491.0313,559.5781 Q489.6875,559.5781 489,560.6563 Q488.3125,561.7188 488.3125,563.8125 Q488.3125,565.9063 489,566.9844 Q489.6875,568.0469 491.0313,568.0469 Q491.6563,568.0469 492.25,567.7813 Q492.8438,567.5 493.4688,566.9219 L493.4688,569.6406 Z "/><text fill="#000000" font-family="sans-serif" font-size="12" lengthAdjust="spacingAndGlyphs" textLength="50" x="504.5" y="568.1543">BlackHit</text><line style="stroke: #A80036; stroke-width: 1.5;" x1="476.5" x2="556.5" y1="580" y2="580"/><line style="stroke: #A80036; stroke-width: 1.5;" x1="476.5" x2="556.5" y1="588" y2="588"/><!--class WhiteHit--><rect fill="#FEFECE" filter="url(#f10peweup9i1cm)" height="48" id="WhiteHit" style="stroke: #A80036; stroke-width: 1.5;" width="84" x="592.5" y="548"/><ellipse cx="607.5" cy="564" fill="#ADD1B2" rx="11" ry="11" style="stroke: #A80036; stroke-width: 1.0;"/><path d="M610.4688,569.6406 Q609.8906,569.9375 609.25,570.0781 Q608.6094,570.2344 607.9063,570.2344 Q605.4063,570.2344 604.0781,568.5938 Q602.7656,566.9375 602.7656,563.8125 Q602.7656,560.6875 604.0781,559.0313 Q605.4063,557.375 607.9063,557.375 Q608.6094,557.375 609.25,557.5313 Q609.9063,557.6875 610.4688,557.9844 L610.4688,560.7031 Q609.8438,560.125 609.25,559.8594 Q608.6563,559.5781 608.0313,559.5781 Q606.6875,559.5781 606,560.6563 Q605.3125,561.7188 605.3125,563.8125 Q605.3125,565.9063 606,566.9844 Q606.6875,568.0469 608.0313,568.0469 Q608.6563,568.0469 609.25,567.7813 Q609.8438,567.5 610.4688,566.9219 L610.4688,569.6406 Z "/><text fill="#000000" font-family="sans-serif" font-size="12" lengthAdjust="spacingAndGlyphs" textLength="52" x="621.5" y="568.1543">WhiteHit</text><line style="stroke: #A80036; stroke-width: 1.5;" x1="593.5" x2="675.5" y1="580" y2="580"/><line style="stroke: #A80036; stroke-width: 1.5;" x1="593.5" x2="675.5" y1="588" y2="588"/><!--class WinnerResult--><rect fill="#FEFECE" filter="url(#f10peweup9i1cm)" height="48" id="WinnerResult" style="stroke: #A80036; stroke-width: 1.5;" width="114" x="460.5" y="440"/><ellipse cx="475.5" cy="456" fill="#ADD1B2" rx="11" ry="11" style="stroke: #A80036; stroke-width: 1.0;"/><path d="M478.4688,461.6406 Q477.8906,461.9375 477.25,462.0781 Q476.6094,462.2344 475.9063,462.2344 Q473.4063,462.2344 472.0781,460.5938 Q470.7656,458.9375 470.7656,455.8125 Q470.7656,452.6875 472.0781,451.0313 Q473.4063,449.375 475.9063,449.375 Q476.6094,449.375 477.25,449.5313 Q477.9063,449.6875 478.4688,449.9844 L478.4688,452.7031 Q477.8438,452.125 477.25,451.8594 Q476.6563,451.5781 476.0313,451.5781 Q474.6875,451.5781 474,452.6563 Q473.3125,453.7188 473.3125,455.8125 Q473.3125,457.9063 474,458.9844 Q474.6875,460.0469 476.0313,460.0469 Q476.6563,460.0469 477.25,459.7813 Q477.8438,459.5 478.4688,458.9219 L478.4688,461.6406 Z "/><text fill="#000000" font-family="sans-serif" font-size="12" lengthAdjust="spacingAndGlyphs" textLength="82" x="489.5" y="460.1543">WinnerResult</text><line style="stroke: #A80036; stroke-width: 1.5;" x1="461.5" x2="573.5" y1="472" y2="472"/><line style="stroke: #A80036; stroke-width: 1.5;" x1="461.5" x2="573.5" y1="480" y2="480"/><!--link Mastermind to Turn--><path d="M348.5,69.6145 C348.5,84.9531 348.5,102.2402 348.5,115.8436 " fill="none" id="Mastermind-Turn" style="stroke: #A80036; stroke-width: 1.0;"/><polygon fill="#A80036" points="348.5,56.2373,344.5,62.2373,348.5,68.2373,352.5,62.2373,348.5,56.2373" style="stroke: #A80036; stroke-width: 1.0;"/><!--link Mastermind to Player--><path d="M323.0823,67.6284 C314.2414,81.9676 305.3341,99.0938 300.5,116 C290.0972,152.3816 291.0272,196.7005 293.0028,223.6114 " fill="none" id="Mastermind-Player" style="stroke: #A80036; stroke-width: 1.0;"/><polygon fill="#A80036" points="330.4021,56.305,323.7855,59.1723,323.8874,66.3826,330.504,63.5154,330.4021,56.305" style="stroke: #A80036; stroke-width: 1.0;"/><text fill="#000000" font-family="sans-serif" font-size="13" lengthAdjust="spacingAndGlyphs" textLength="8" x="283.4191" y="212.9216">2</text><!--link Mastermind to Board--><path d="M371.0331,67.7316 C379.5413,82.3036 388.7794,99.5657 395.5,116 C410.3352,152.2774 421.0021,196.6265 426.711,223.5719 " fill="none" id="Mastermind-Board" style="stroke: #A80036; stroke-width: 1.0;"/><polygon fill="#A80036" points="364.1292,56.2012,363.7797,63.4038,370.2938,66.4967,370.6433,59.2941,364.1292,56.2012" style="stroke: #A80036; stroke-width: 1.0;"/><!--link Turn to Player--><path d="M336.6058,164.2373 C328.6272,180.4955 318.0798,201.9882 309.6669,219.1316 " fill="none" id="Turn-Player" style="stroke: #A80036; stroke-width: 1.0;"/><polygon fill="#A80036" points="307.3545,223.8436,314.9103,217.5261,309.5572,219.3549,307.7284,214.0018,307.3545,223.8436" style="stroke: #A80036; stroke-width: 1.0;"/><text fill="#000000" font-family="sans-serif" font-size="13" lengthAdjust="spacingAndGlyphs" textLength="8" x="301.3672" y="212.8156">2</text><!--link Player to Maker--><path d="M314.5423,290.8452 C320.7389,304.7875 327.3965,319.7671 332.7638,331.8436 " fill="none" id="Player-Maker" style="stroke: #A80036; stroke-width: 1.0;"/><polygon fill="none" points="307.9983,293.3565,306.2721,272.2373,320.7916,287.6706,307.9983,293.3565" style="stroke: #A80036; stroke-width: 1.0;"/><!--link Player to Breaker--><path d="M241.8042,271.2898 C195.4232,291.4068 129.4034,320.0419 87.2558,338.3228 " fill="none" id="Player-Breaker" style="stroke: #A80036; stroke-width: 1.0;"/><polygon fill="none" points="239.2186,264.7812,260.3525,263.2447,244.7895,277.6251,239.2186,264.7812" style="stroke: #A80036; stroke-width: 1.0;"/><!--link Pattern to SecretPattern--><path d="M278.6141,392.9116 C297.5727,408.4231 319.0946,426.032 335.9755,439.8436 " fill="none" id="Pattern-SecretPattern" style="stroke: #A80036; stroke-width: 1.0;"/><polygon fill="none" points="274.1699,398.3198,263.1234,380.2373,283.0352,387.4844,274.1699,398.3198" style="stroke: #A80036; stroke-width: 1.0;"/><!--link Pattern to GuessPattern--><path d="M199.4843,395.5021 C186.6916,410.3582 172.5373,426.7954 161.3014,439.8436 " fill="none" id="Pattern-GuessPattern" style="stroke: #A80036; stroke-width: 1.0;"/><polygon fill="none" points="194.2741,390.825,212.629,380.2373,204.8829,399.9604,194.2741,390.825" style="stroke: #A80036; stroke-width: 1.0;"/><!--link Pattern to Position--><path d="M243.3233,392.937 C251.9414,420.8395 266.4197,459.1296 287.5,488 C340.7349,560.9076 427.3959,623.4056 477.4512,655.9631 " fill="none" id="Pattern-Position" style="stroke: #A80036; stroke-width: 1.0;"/><polygon fill="#A80036" points="239.5601,380.1605,237.4183,387.0462,242.9506,391.6716,245.0924,384.7859,239.5601,380.1605" style="stroke: #A80036; stroke-width: 1.0;"/><text fill="#000000" font-family="sans-serif" font-size="13" lengthAdjust="spacingAndGlyphs" textLength="8" x="459.4962" y="645.7524">4</text><!--link Position to Color--><path d="M532.2587,716.2115 C539.0823,731.8913 546.8863,749.8238 552.9875,763.8436 " fill="none" id="Position-Color" style="stroke: #A80036; stroke-width: 1.0;"/><polygon fill="#FFFFFF" points="527.0477,704.2373,525.7742,711.3351,531.8362,715.2405,533.1097,708.1427,527.0477,704.2373" style="stroke: #A80036; stroke-width: 1.0;"/><!--link Color to White--><path d="M511.5886,799.8063 C451.2867,814.155 349.2384,840.4077 264.5,872 C258.8152,874.1194 252.8926,876.62 247.1807,879.1927 " fill="none" id="Color-White" style="stroke: #A80036; stroke-width: 1.0;"/><polygon fill="none" points="510.0107,792.9865,531.0804,795.2382,513.2053,806.6172,510.0107,792.9865" style="stroke: #A80036; stroke-width: 1.0;"/><!--link Color to Black--><path d="M512.6551,808.6723 C472.2717,825.2808 414.4795,849.4722 364.5,872 C358.8819,874.5323 352.9479,877.2984 347.207,880.0233 " fill="none" id="Color-Black" style="stroke: #A80036; stroke-width: 1.0;"/><polygon fill="none" points="510.0798,802.1627,531.2407,801.0585,515.3871,815.1178,510.0798,802.1627" style="stroke: #A80036; stroke-width: 1.0;"/><!--link Color to Yellow--><path d="M515.1441,823.7701 C493.7375,839.6051 469.1278,857.8096 449.9701,871.981 " fill="none" id="Color-Yellow" style="stroke: #A80036; stroke-width: 1.0;"/><polygon fill="none" points="511.2178,817.9675,531.4597,811.7011,519.5436,829.2227,511.2178,817.9675" style="stroke: #A80036; stroke-width: 1.0;"/><!--link Color to Blue--><path d="M545.2511,830.8452 C539.3127,844.7875 532.9325,859.7671 527.7888,871.8436 " fill="none" id="Color-Blue" style="stroke: #A80036; stroke-width: 1.0;"/><polygon fill="none" points="538.8992,827.8947,553.1767,812.2373,551.7796,833.3809,538.8992,827.8947" style="stroke: #A80036; stroke-width: 1.0;"/><!--link Color to Red--><path d="M582.1456,830.8452 C588.2131,844.7875 594.732,859.7671 599.9875,871.8436 " fill="none" id="Color-Red" style="stroke: #A80036; stroke-width: 1.0;"/><polygon fill="none" points="575.61,833.3693,574.0477,812.2373,588.4471,827.7827,575.61,833.3693" style="stroke: #A80036; stroke-width: 1.0;"/><!--link Color to Green--><path d="M611.8206,823.9905 C632.9765,839.748 657.2346,857.8161 676.1594,871.9118 " fill="none" id="Color-Green" style="stroke: #A80036; stroke-width: 1.0;"/><polygon fill="none" points="607.5385,829.5295,595.6802,811.9687,615.9014,818.3017,607.5385,829.5295" style="stroke: #A80036; stroke-width: 1.0;"/><!--link Color to Brown--><path d="M614.2611,809.0228 C654.3719,825.7581 711.6992,849.9501 761.5,872 C766.955,874.4153 772.7094,877.0167 778.3232,879.5844 " fill="none" id="Color-Brown" style="stroke: #A80036; stroke-width: 1.0;"/><polygon fill="none" points="611.2998,815.3725,595.5245,801.2254,616.6789,802.4471,611.2998,815.3725" style="stroke: #A80036; stroke-width: 1.0;"/><!--link Color to Orange--><path d="M615.4353,800.1381 C676.308,814.8824 779.8819,841.5875 866.5,872 C871.9891,873.9273 877.7044,876.1342 883.2954,878.4117 " fill="none" id="Color-Orange" style="stroke: #A80036; stroke-width: 1.0;"/><polygon fill="none" points="613.6042,806.8977,595.7824,795.4353,616.8624,793.2821,613.6042,806.8977" style="stroke: #A80036; stroke-width: 1.0;"/><!--link Maker to SecretPattern--><path d="M348.4372,380.2373 C351.7208,396.3565 356.0525,417.6212 359.5297,434.6911 " fill="none" id="Maker-SecretPattern" style="stroke: #A80036; stroke-width: 1.0;"/><polygon fill="#A80036" points="360.5792,439.8436,362.7023,430.2263,359.5812,434.9442,354.8633,431.8231,360.5792,439.8436" style="stroke: #A80036; stroke-width: 1.0;"/><!--link Breaker to GuessPattern--><path d="M67.5954,380.2373 C81.988,396.7734 101.0936,418.7246 116.1356,436.0069 " fill="none" id="Breaker-GuessPattern" style="stroke: #A80036; stroke-width: 1.0;"/><polygon fill="#A80036" points="119.475,439.8436,116.5834,430.4288,116.1923,436.0721,110.549,435.681,119.475,439.8436" style="stroke: #A80036; stroke-width: 1.0;"/><text fill="#000000" font-family="sans-serif" font-size="13" lengthAdjust="spacingAndGlyphs" textLength="32" x="77.9873" y="428.8156">0..10</text><!--link Board to Result--><path d="M459.8148,282.3595 C470.1835,294.9418 481.9094,309.171 492.2707,321.7442 " fill="none" id="Board-Result" style="stroke: #A80036; stroke-width: 1.0;"/><polygon fill="#A80036" points="500.5933,331.8436,497.9565,322.3543,497.4135,327.985,491.7828,327.442,500.5933,331.8436" style="stroke: #A80036; stroke-width: 1.0;"/><line style="stroke: #A80036; stroke-width: 1.0;" x1="497.4135" x2="492.3259" y1="327.985" y2="321.8112"/><polygon fill="#FFFFFF" points="451.4733,272.2373,452.2022,279.4115,459.1049,281.4979,458.376,274.3238,451.4733,272.2373" style="stroke: #A80036; stroke-width: 1.0;"/><text fill="#000000" font-family="sans-serif" font-size="13" lengthAdjust="spacingAndGlyphs" textLength="32" x="459.3922" y="320.8156">0..10</text><!--link Board to SecretPattern--><path d="M422.2425,284.9164 C415.3776,311.5078 405.511,348.161 395.5,380 C390.5924,395.608 384.6256,412.6409 379.3099,427.2639 " fill="none" id="Board-SecretPattern" style="stroke: #A80036; stroke-width: 1.0;"/><polygon fill="#A80036" points="374.6602,439.9057,381.5212,432.8398,376.3862,435.2131,374.013,430.0781,374.6602,439.9057" style="stroke: #A80036; stroke-width: 1.0;"/><line style="stroke: #A80036; stroke-width: 1.0;" x1="376.3862" x2="379.1478" y1="435.2131" y2="427.7048"/><polygon fill="#A80036" points="425.5437,272.0067,420.1819,276.8287,422.5707,283.6326,427.9325,278.8106,425.5437,272.0067" style="stroke: #A80036; stroke-width: 1.0;"/><!--link Board to GuessPattern--><path d="M384.1375,262.335 C312.448,284.2125 183.8829,324.2232 176.5,332 C152.3575,357.4308 144.0876,397.4251 141.4125,426.7307 " fill="none" id="Board-GuessPattern" style="stroke: #A80036; stroke-width: 1.0;"/><polygon fill="#A80036" points="140.5216,439.7496,145.1267,431.0437,140.863,434.7613,137.1454,430.4975,140.5216,439.7496" style="stroke: #A80036; stroke-width: 1.0;"/><line style="stroke: #A80036; stroke-width: 1.0;" x1="140.863" x2="141.4092" y1="434.7613" y2="426.78"/><polygon fill="#FFFFFF" points="396.8196,258.4729,389.9145,256.3944,385.3401,261.9688,392.2452,264.0474,396.8196,258.4729" style="stroke: #A80036; stroke-width: 1.0;"/><text fill="#000000" font-family="sans-serif" font-size="13" lengthAdjust="spacingAndGlyphs" textLength="32" x="104.6269" y="429.0935">0..10</text><!--link Result to Hit--><path d="M555.9419,389.5765 C573.4103,406.1256 594.0469,425.676 609.7845,440.5854 " fill="none" id="Result-Hit" style="stroke: #A80036; stroke-width: 1.0;"/><polygon fill="#A80036" points="546.0838,380.2373,547.6885,387.2676,554.7952,388.4902,553.1905,381.46,546.0838,380.2373" style="stroke: #A80036; stroke-width: 1.0;"/><text fill="#000000" font-family="sans-serif" font-size="13" lengthAdjust="spacingAndGlyphs" textLength="24" x="582.4156" y="429.1386">0..4</text><!--link Result to WinnerResult--><path d="M519.2697,400.2911 C518.894,413.8171 518.4949,428.1835 518.171,439.8436 " fill="none" id="Result-WinnerResult" style="stroke: #A80036; stroke-width: 1.0;"/><polygon fill="none" points="512.274,400.0352,519.8267,380.2373,526.2686,400.424,512.274,400.0352" style="stroke: #A80036; stroke-width: 1.0;"/><!--link Result to SecretPattern--><path d="M485.715,380.2373 C461.5837,397.0513 429.4175,419.4639 404.4305,436.8742 " fill="none" id="Result-SecretPattern" style="stroke: #A80036; stroke-width: 1.0;"/><polygon fill="#A80036" points="400.1689,439.8436,409.8399,437.9804,404.2713,436.9852,405.2665,431.4166,400.1689,439.8436" style="stroke: #A80036; stroke-width: 1.0;"/><!--link Result to GuessPattern--><path d="M484.7505,366.1604 C420.6612,384.3752 285.3973,422.8187 204.8194,445.7197 " fill="none" id="Result-GuessPattern" style="stroke: #A80036; stroke-width: 1.0;"/><polygon fill="#A80036" points="199.5923,447.2053,209.343,448.5923,204.4018,445.8383,207.1558,440.8971,199.5923,447.2053" style="stroke: #A80036; stroke-width: 1.0;"/><text fill="#000000" font-family="sans-serif" font-size="13" lengthAdjust="spacingAndGlyphs" textLength="32" x="207.3362" y="441.7737">0..10</text><!--link Hit to BlackHit--><path d="M594.9047,500.2398 C577.7615,515.9301 558.1588,533.8716 542.8427,547.8898 " fill="none" id="Hit-BlackHit" style="stroke: #A80036; stroke-width: 1.0;"/><polygon fill="none" points="590.2837,494.9798,609.7633,486.6403,599.736,505.3073,590.2837,494.9798" style="stroke: #A80036; stroke-width: 1.0;"/><!--link Hit to WhiteHit--><path d="M634.5,508.2911 C634.5,521.8171 634.5,536.1835 634.5,547.8436 " fill="none" id="Hit-WhiteHit" style="stroke: #A80036; stroke-width: 1.0;"/><polygon fill="none" points="627.5001,508.2373,634.5,488.2373,641.5001,508.2373,627.5001,508.2373" style="stroke: #A80036; stroke-width: 1.0;"/><!--link BlackHit to Position--><path d="M516.5,596.2373 C516.5,612.3565 516.5,633.6212 516.5,650.6911 " fill="none" id="BlackHit-Position" style="stroke: #A80036; stroke-width: 1.0;"/><polygon fill="#A80036" points="516.5,655.8436,520.5,646.8436,516.5,650.8436,512.5,646.8436,516.5,655.8436" style="stroke: #A80036; stroke-width: 1.0;"/><text fill="#000000" font-family="sans-serif" font-size="13" lengthAdjust="spacingAndGlyphs" textLength="24" x="489.425" y="644.8156">0..4</text><!--link WhiteHit to Color--><path d="M626.4934,596.3581 C613.3284,636.4093 587.1656,716.0033 573.0538,758.935 " fill="none" id="WhiteHit-Color" style="stroke: #A80036; stroke-width: 1.0;"/><polygon fill="#A80036" points="571.4773,763.7309,578.0878,756.4301,573.0387,758.981,570.4879,753.9319,571.4773,763.7309" style="stroke: #A80036; stroke-width: 1.0;"/><text fill="#000000" font-family="sans-serif" font-size="13" lengthAdjust="spacingAndGlyphs" textLength="24" x="546.4968" y="753.0703">0..4</text><!--link WinnerResult to BlackHit--><path d="M517.2756,488.2373 C517.1263,504.3565 516.9294,525.6212 516.7714,542.6911 " fill="none" id="WinnerResult-BlackHit" style="stroke: #A80036; stroke-width: 1.0;"/><polygon fill="#A80036" points="516.7237,547.8436,520.8068,538.881,516.77,542.8438,512.8072,538.807,516.7237,547.8436" style="stroke: #A80036; stroke-width: 1.0;"/><text fill="#000000" font-family="sans-serif" font-size="13" lengthAdjust="spacingAndGlyphs" textLength="8" x="507.756" y="536.8156">4</text><!--
@startuml classDiagram

class Mastermind
class Board
class Turn
class Player
class Result
class Maker
class Breaker
class Pattern
class SecretPattern
class GuessPattern
class Position
class Color
class White
class Black
class Yellow
class Blue
class Red
class Green
class Brown
class Orange
class Hit
class BlackHit
class WhiteHit
class WinnerResult

Mastermind *- - Turn
Mastermind *- - "2" Player
Mastermind *- - - Board
Turn - -> "2" Player
Player <|- - Maker
Player <|- - Breaker
Pattern <|- - SecretPattern
Pattern <|- - GuessPattern
Pattern *- - "4" Position
Position o- - Color
Color <|- - White
Color <|- - Black
Color <|- - Yellow
Color <|- - Blue
Color <|- - Red
Color <|- - Green
Color <|- - Brown
Color <|- - Orange
Maker - -> SecretPattern
Breaker - -> "0..10" GuessPattern
Board o- -> "0..10" Result
Board *- -> SecretPattern
Board o- -> "0..10" GuessPattern
Result *- - "0..4" Hit
Result <|- - WinnerResult
Result - -> SecretPattern
Result - -> "0..10" GuessPattern
Hit <|- - BlackHit
Hit <|- WhiteHit
BlackHit - -> "0..4" Position
WhiteHit - -> "0..4" Color

WinnerResult - -> "4" BlackHit

@enduml

PlantUML version 1.2017.15(Mon Jul 03 18:45:34 CEST 2017)
(GPL source distribution)
Java Runtime: OpenJDK Runtime Environment
JVM: OpenJDK 64-Bit Server VM
Java Version: 11.0.8+10-post-Ubuntu-0ubuntu118.04.1
Operating System: Linux
OS Version: 4.15.0-1099-oem
Default Encoding: UTF-8
Language: en
Country: US
--></g></svg>