<?xml version="1.0" encoding="UTF-8" standalone="no"?><svg xmlns="http://www.w3.org/2000/svg" xmlns:xlink="http://www.w3.org/1999/xlink" contentScriptType="application/ecmascript" contentStyleType="text/css" height="514px" preserveAspectRatio="none" style="width:705px;height:514px;" version="1.1" viewBox="0 0 705 514" width="705px" zoomAndPan="magnify"><defs><filter height="300%" id="fqg8vueko8tn2" width="300%" x="-1" y="-1"><feGaussianBlur result="blurOut" stdDeviation="2.0"/><feColorMatrix in="blurOut" result="blurOut2" type="matrix" values="0 0 0 0 0 0 0 0 0 0 0 0 0 0 0 0 0 0 .4 0"/><feOffset dx="4.0" dy="4.0" in="blurOut2" result="blurOut3"/><feBlend in="SourceGraphic" in2="blurOut3" mode="normal"/></filter></defs><g><!--class Mastermind--><rect fill="#FEFECE" filter="url(#fqg8vueko8tn2)" height="73.6094" id="Mastermind" style="stroke: #A80036; stroke-width: 1.5;" width="134" x="207.5" y="8"/><ellipse cx="235.55" cy="24" fill="#ADD1B2" rx="11" ry="11" style="stroke: #A80036; stroke-width: 1.0;"/><path d="M238.5188,29.6406 Q237.9406,29.9375 237.3,30.0781 Q236.6594,30.2344 235.9563,30.2344 Q233.4563,30.2344 232.1281,28.5938 Q230.8156,26.9375 230.8156,23.8125 Q230.8156,20.6875 232.1281,19.0313 Q233.4563,17.375 235.9563,17.375 Q236.6594,17.375 237.3,17.5313 Q237.9563,17.6875 238.5188,17.9844 L238.5188,20.7031 Q237.8938,20.125 237.3,19.8594 Q236.7063,19.5781 236.0813,19.5781 Q234.7375,19.5781 234.05,20.6563 Q233.3625,21.7188 233.3625,23.8125 Q233.3625,25.9063 234.05,26.9844 Q234.7375,28.0469 236.0813,28.0469 Q236.7063,28.0469 237.3,27.7813 Q237.8938,27.5 238.5188,26.9219 L238.5188,29.6406 Z "/><text fill="#000000" font-family="sans-serif" font-size="12" lengthAdjust="spacingAndGlyphs" textLength="73" x="252.45" y="28.1543">Mastermind</text><line style="stroke: #A80036; stroke-width: 1.5;" x1="208.5" x2="340.5" y1="40" y2="40"/><line style="stroke: #A80036; stroke-width: 1.5;" x1="208.5" x2="340.5" y1="48" y2="48"/><rect fill="#F24D5C" height="6" style="stroke: #C82930; stroke-width: 1.0;" width="6" x="215.5" y="56.9023"/><text fill="#000000" font-family="sans-serif" font-size="11" lengthAdjust="spacingAndGlyphs" textLength="31" x="227.5" y="62.2104">play()</text><ellipse cx="218.5" cy="72.707" fill="#84BE84" rx="3" ry="3" style="stroke: #038048; stroke-width: 1.0;"/><text fill="#000000" font-family="sans-serif" font-size="11" lengthAdjust="spacingAndGlyphs" textLength="108" x="227.5" y="75.0151">main(String[] args)</text><!--class Board--><rect fill="#FEFECE" filter="url(#fqg8vueko8tn2)" height="137.6328" id="Board" style="stroke: #A80036; stroke-width: 1.5;" width="174" x="187.5" y="142"/><ellipse cx="251.75" cy="158" fill="#ADD1B2" rx="11" ry="11" style="stroke: #A80036; stroke-width: 1.0;"/><path d="M254.7188,163.6406 Q254.1406,163.9375 253.5,164.0781 Q252.8594,164.2344 252.1563,164.2344 Q249.6563,164.2344 248.3281,162.5938 Q247.0156,160.9375 247.0156,157.8125 Q247.0156,154.6875 248.3281,153.0313 Q249.6563,151.375 252.1563,151.375 Q252.8594,151.375 253.5,151.5313 Q254.1563,151.6875 254.7188,151.9844 L254.7188,154.7031 Q254.0938,154.125 253.5,153.8594 Q252.9063,153.5781 252.2813,153.5781 Q250.9375,153.5781 250.25,154.6563 Q249.5625,155.7188 249.5625,157.8125 Q249.5625,159.9063 250.25,160.9844 Q250.9375,162.0469 252.2813,162.0469 Q252.9063,162.0469 253.5,161.7813 Q254.0938,161.5 254.7188,160.9219 L254.7188,163.6406 Z "/><text fill="#000000" font-family="sans-serif" font-size="12" lengthAdjust="spacingAndGlyphs" textLength="37" x="272.25" y="162.1543">Board</text><line style="stroke: #A80036; stroke-width: 1.5;" x1="188.5" x2="360.5" y1="174" y2="174"/><rect fill="none" height="6" style="stroke: #C82930; stroke-width: 1.0;" width="6" x="195.5" y="182.9023"/><text fill="#000000" font-family="sans-serif" font-size="11" lengthAdjust="spacingAndGlyphs" textLength="62" x="207.5" y="188.2104">int attempt</text><rect fill="none" height="6" style="stroke: #C82930; stroke-width: 1.0;" width="6" x="195.5" y="195.707"/><text fill="#000000" font-family="sans-serif" font-size="11" lengthAdjust="spacingAndGlyphs" textLength="142" x="207.5" y="201.0151">GuessPattern[] patterns;</text><rect fill="none" height="6" style="stroke: #C82930; stroke-width: 1.0;" width="6" x="195.5" y="208.5117"/><text fill="#000000" font-family="sans-serif" font-size="11" lengthAdjust="spacingAndGlyphs" textLength="91" x="207.5" y="213.8198">Result[] results;</text><rect fill="none" height="6" style="stroke: #C82930; stroke-width: 1.0;" width="6" x="195.5" y="221.3164"/><text fill="#000000" font-family="sans-serif" font-size="11" lengthAdjust="spacingAndGlyphs" textLength="148" x="207.5" y="226.6245">SecretCombination secret</text><line style="stroke: #A80036; stroke-width: 1.5;" x1="188.5" x2="360.5" y1="233.2188" y2="233.2188"/><text fill="#000000" font-family="sans-serif" font-size="11" lengthAdjust="spacingAndGlyphs" textLength="42" x="207.5" y="247.4292">Board()</text><ellipse cx="198.5" cy="257.9258" fill="#84BE84" rx="3" ry="3" style="stroke: #038048; stroke-width: 1.0;"/><text fill="#000000" font-family="sans-serif" font-size="11" lengthAdjust="spacingAndGlyphs" textLength="134" x="207.5" y="260.2339">void add(GuessPattern)</text><ellipse cx="198.5" cy="270.7305" fill="#84BE84" rx="3" ry="3" style="stroke: #038048; stroke-width: 1.0;"/><text fill="#000000" font-family="sans-serif" font-size="11" lengthAdjust="spacingAndGlyphs" textLength="105" x="207.5" y="273.0386">boolean isWinner()</text><!--class Result--><rect fill="#FEFECE" filter="url(#fqg8vueko8tn2)" height="99.2188" id="Result" style="stroke: #A80036; stroke-width: 1.5;" width="131" x="6" y="372"/><ellipse cx="48" cy="388" fill="#ADD1B2" rx="11" ry="11" style="stroke: #A80036; stroke-width: 1.0;"/><path d="M50.9688,393.6406 Q50.3906,393.9375 49.75,394.0781 Q49.1094,394.2344 48.4063,394.2344 Q45.9063,394.2344 44.5781,392.5938 Q43.2656,390.9375 43.2656,387.8125 Q43.2656,384.6875 44.5781,383.0313 Q45.9063,381.375 48.4063,381.375 Q49.1094,381.375 49.75,381.5313 Q50.4063,381.6875 50.9688,381.9844 L50.9688,384.7031 Q50.3438,384.125 49.75,383.8594 Q49.1563,383.5781 48.5313,383.5781 Q47.1875,383.5781 46.5,384.6563 Q45.8125,385.7188 45.8125,387.8125 Q45.8125,389.9063 46.5,390.9844 Q47.1875,392.0469 48.5313,392.0469 Q49.1563,392.0469 49.75,391.7813 Q50.3438,391.5 50.9688,390.9219 L50.9688,393.6406 Z "/><text fill="#000000" font-family="sans-serif" font-size="12" lengthAdjust="spacingAndGlyphs" textLength="39" x="68" y="392.1543">Result</text><line style="stroke: #A80036; stroke-width: 1.5;" x1="7" x2="136" y1="404" y2="404"/><text fill="#000000" font-family="sans-serif" font-size="11" lengthAdjust="spacingAndGlyphs" textLength="70" x="12" y="418.2104">int BlackHits</text><text fill="#000000" font-family="sans-serif" font-size="11" lengthAdjust="spacingAndGlyphs" textLength="70" x="12" y="431.0151">int WhiteHits</text><line style="stroke: #A80036; stroke-width: 1.5;" x1="7" x2="136" y1="437.6094" y2="437.6094"/><text fill="#000000" font-family="sans-serif" font-size="11" lengthAdjust="spacingAndGlyphs" textLength="79" x="26" y="451.8198">Result(int, int)</text><ellipse cx="17" cy="462.3164" fill="#84BE84" rx="3" ry="3" style="stroke: #038048; stroke-width: 1.0;"/><text fill="#000000" font-family="sans-serif" font-size="11" lengthAdjust="spacingAndGlyphs" textLength="105" x="26" y="464.6245">boolean isWinner()</text><!--class Pattern--><rect fill="#FEFECE" filter="url(#fqg8vueko8tn2)" height="60.8047" id="Pattern" style="stroke: #A80036; stroke-width: 1.5;" width="78" x="464.5" y="180.5"/><ellipse cx="479.5" cy="196.5" fill="#A9DCDF" rx="11" ry="11" style="stroke: #A80036; stroke-width: 1.0;"/><path d="M479.6094,191.8438 L478.4531,196.9219 L480.7813,196.9219 L479.6094,191.8438 Z M478.125,189.6094 L481.1094,189.6094 L484.4688,202 L482.0156,202 L481.25,198.9375 L477.9688,198.9375 L477.2188,202 L474.7813,202 L478.125,189.6094 Z "/><text fill="#000000" font-family="sans-serif" font-size="12" font-style="italic" lengthAdjust="spacingAndGlyphs" textLength="46" x="493.5" y="200.6543">Pattern</text><line style="stroke: #A80036; stroke-width: 1.5;" x1="465.5" x2="541.5" y1="212.5" y2="212.5"/><line style="stroke: #A80036; stroke-width: 1.5;" x1="465.5" x2="541.5" y1="220.5" y2="220.5"/><text fill="#000000" font-family="sans-serif" font-size="11" lengthAdjust="spacingAndGlyphs" textLength="49" x="470.5" y="234.7104">Pattern()</text><!--class SecretPattern--><rect fill="#FEFECE" filter="url(#fqg8vueko8tn2)" height="73.6094" id="SecretPattern" style="stroke: #A80036; stroke-width: 1.5;" width="204" x="172.5" y="384.5"/><ellipse cx="226.25" cy="400.5" fill="#ADD1B2" rx="11" ry="11" style="stroke: #A80036; stroke-width: 1.0;"/><path d="M229.2188,406.1406 Q228.6406,406.4375 228,406.5781 Q227.3594,406.7344 226.6563,406.7344 Q224.1563,406.7344 222.8281,405.0938 Q221.5156,403.4375 221.5156,400.3125 Q221.5156,397.1875 222.8281,395.5313 Q224.1563,393.875 226.6563,393.875 Q227.3594,393.875 228,394.0313 Q228.6563,394.1875 229.2188,394.4844 L229.2188,397.2031 Q228.5938,396.625 228,396.3594 Q227.4063,396.0781 226.7813,396.0781 Q225.4375,396.0781 224.75,397.1563 Q224.0625,398.2188 224.0625,400.3125 Q224.0625,402.4063 224.75,403.4844 Q225.4375,404.5469 226.7813,404.5469 Q227.4063,404.5469 228,404.2813 Q228.5938,404 229.2188,403.4219 L229.2188,406.1406 Z "/><text fill="#000000" font-family="sans-serif" font-size="12" lengthAdjust="spacingAndGlyphs" textLength="88" x="246.75" y="404.6543">SecretPattern</text><line style="stroke: #A80036; stroke-width: 1.5;" x1="173.5" x2="375.5" y1="416.5" y2="416.5"/><line style="stroke: #A80036; stroke-width: 1.5;" x1="173.5" x2="375.5" y1="424.5" y2="424.5"/><text fill="#000000" font-family="sans-serif" font-size="11" lengthAdjust="spacingAndGlyphs" textLength="86" x="192.5" y="438.7104">SecretPattern()</text><ellipse cx="183.5" cy="449.207" fill="#84BE84" rx="3" ry="3" style="stroke: #038048; stroke-width: 1.0;"/><text fill="#000000" font-family="sans-serif" font-size="11" lengthAdjust="spacingAndGlyphs" textLength="178" x="192.5" y="451.5151">Result getResult(GuessPattern)</text><!--class GuessPattern--><rect fill="#FEFECE" filter="url(#fqg8vueko8tn2)" height="86.4141" id="GuessPattern" style="stroke: #A80036; stroke-width: 1.5;" width="183" x="412" y="378.5"/><ellipse cx="456.25" cy="394.5" fill="#ADD1B2" rx="11" ry="11" style="stroke: #A80036; stroke-width: 1.0;"/><path d="M459.2188,400.1406 Q458.6406,400.4375 458,400.5781 Q457.3594,400.7344 456.6563,400.7344 Q454.1563,400.7344 452.8281,399.0938 Q451.5156,397.4375 451.5156,394.3125 Q451.5156,391.1875 452.8281,389.5313 Q454.1563,387.875 456.6563,387.875 Q457.3594,387.875 458,388.0313 Q458.6563,388.1875 459.2188,388.4844 L459.2188,391.2031 Q458.5938,390.625 458,390.3594 Q457.4063,390.0781 456.7813,390.0781 Q455.4375,390.0781 454.75,391.1563 Q454.0625,392.2188 454.0625,394.3125 Q454.0625,396.4063 454.75,397.4844 Q455.4375,398.5469 456.7813,398.5469 Q457.4063,398.5469 458,398.2813 Q458.5938,398 459.2188,397.4219 L459.2188,400.1406 Z "/><text fill="#000000" font-family="sans-serif" font-size="12" lengthAdjust="spacingAndGlyphs" textLength="86" x="476.75" y="398.6543">GuessPattern</text><line style="stroke: #A80036; stroke-width: 1.5;" x1="413" x2="594" y1="410.5" y2="410.5"/><line style="stroke: #A80036; stroke-width: 1.5;" x1="413" x2="594" y1="418.5" y2="418.5"/><ellipse cx="423" cy="430.4023" fill="#84BE84" rx="3" ry="3" style="stroke: #038048; stroke-width: 1.0;"/><text fill="#000000" font-family="sans-serif" font-size="11" lengthAdjust="spacingAndGlyphs" textLength="61" x="432" y="432.7104">void read()</text><text fill="#000000" font-family="sans-serif" font-size="11" lengthAdjust="spacingAndGlyphs" textLength="157" x="432" y="445.5151">boolean contains(Color, int)</text><text fill="#000000" font-family="sans-serif" font-size="11" lengthAdjust="spacingAndGlyphs" textLength="135" x="432" y="458.3198">boolean contains(Color)</text><!--class Color--><rect fill="#FEFECE" filter="url(#fqg8vueko8tn2)" height="163.2422" id="Color" style="stroke: #A80036; stroke-width: 1.5;" width="64" x="630.5" y="340"/><ellipse cx="645.5" cy="356" fill="#EB937F" rx="11" ry="11" style="stroke: #A80036; stroke-width: 1.0;"/><path d="M649.6094,362 L641.8906,362 L641.8906,349.6094 L649.6094,349.6094 L649.6094,351.7656 L644.3438,351.7656 L644.3438,354.4375 L649.1094,354.4375 L649.1094,356.5938 L644.3438,356.5938 L644.3438,359.8438 L649.6094,359.8438 L649.6094,362 Z "/><text fill="#000000" font-family="sans-serif" font-size="12" lengthAdjust="spacingAndGlyphs" textLength="32" x="659.5" y="360.1543">Color</text><line style="stroke: #A80036; stroke-width: 1.5;" x1="631.5" x2="693.5" y1="372" y2="372"/><text fill="#000000" font-family="sans-serif" font-size="11" lengthAdjust="spacingAndGlyphs" textLength="34" x="636.5" y="386.2104">WHITE</text><text fill="#000000" font-family="sans-serif" font-size="11" lengthAdjust="spacingAndGlyphs" textLength="36" x="636.5" y="399.0151">BLACK</text><text fill="#000000" font-family="sans-serif" font-size="11" lengthAdjust="spacingAndGlyphs" textLength="44" x="636.5" y="411.8198">YELLOW</text><text fill="#000000" font-family="sans-serif" font-size="11" lengthAdjust="spacingAndGlyphs" textLength="29" x="636.5" y="424.6245">BLUE</text><text fill="#000000" font-family="sans-serif" font-size="11" lengthAdjust="spacingAndGlyphs" textLength="22" x="636.5" y="437.4292">RED</text><text fill="#000000" font-family="sans-serif" font-size="11" lengthAdjust="spacingAndGlyphs" textLength="38" x="636.5" y="450.2339">GREEN</text><text fill="#000000" font-family="sans-serif" font-size="11" lengthAdjust="spacingAndGlyphs" textLength="41" x="636.5" y="463.0386">BROWN</text><text fill="#000000" font-family="sans-serif" font-size="11" lengthAdjust="spacingAndGlyphs" textLength="47" x="636.5" y="475.8433">ORANGE</text><text fill="#000000" font-family="sans-serif" font-size="11" lengthAdjust="spacingAndGlyphs" textLength="28" x="636.5" y="488.6479">NULL</text><line style="stroke: #A80036; stroke-width: 1.5;" x1="631.5" x2="693.5" y1="495.2422" y2="495.2422"/><!--link Mastermind to Board--><path d="M274.5,95.6613 C274.5,106.1289 274.5,117.4099 274.5,128.6744 " fill="none" id="Mastermind-Board" style="stroke: #A80036; stroke-width: 1.0;"/><polygon fill="#A80036" points="274.5,141.8406,278.5,132.8406,274.5,136.8406,270.5,132.8406,274.5,141.8406" style="stroke: #A80036; stroke-width: 1.0;"/><line style="stroke: #A80036; stroke-width: 1.0;" x1="274.5" x2="274.5001" y1="136.8406" y2="128.8406"/><polygon fill="#A80036" points="274.5,82.2536,270.5,88.2536,274.5,94.2536,278.5,88.2536,274.5,82.2536" style="stroke: #A80036; stroke-width: 1.0;"/><!--link Pattern to SecretPattern--><path d="M455.4485,255.1696 C413.739,293.5096 354.0397,348.386 314.7862,384.4684 " fill="none" id="Pattern-SecretPattern" style="stroke: #A80036; stroke-width: 1.0;"/><polygon fill="none" points="450.7398,249.9899,470.2014,241.6085,460.2142,260.2969,450.7398,249.9899" style="stroke: #A80036; stroke-width: 1.0;"/><!--link Pattern to GuessPattern--><path d="M503.5,261.8466 C503.5,297.4995 503.5,344.639 503.5,378.438 " fill="none" id="Pattern-GuessPattern" style="stroke: #A80036; stroke-width: 1.0;"/><polygon fill="none" points="496.5001,261.6085,503.5,241.6085,510.5001,261.6085,496.5001,261.6085" style="stroke: #A80036; stroke-width: 1.0;"/><!--link Pattern to Color--><path d="M540.4548,251.4943 C562.3771,276.2872 590.1563,309.0911 612.5,340 C618.5295,348.3408 624.5712,357.4219 630.2655,366.3955 " fill="none" id="Pattern-Color" style="stroke: #A80036; stroke-width: 1.0;"/><polygon fill="#A80036" points="531.7567,241.7287,532.7604,248.8696,539.738,250.6897,538.7343,243.5487,531.7567,241.7287" style="stroke: #A80036; stroke-width: 1.0;"/><text fill="#000000" font-family="sans-serif" font-size="13" lengthAdjust="spacingAndGlyphs" textLength="8" x="614.3392" y="349.7557">4</text><!--link Board to Result--><path d="M198.4785,289.8302 C175.2569,313.9097 150.1331,339.9617 128.4102,362.4872 " fill="none" id="Board-Result" style="stroke: #A80036; stroke-width: 1.0;"/><polygon fill="#A80036" points="119.324,371.9091,128.4508,368.2074,122.7948,368.31,122.6922,362.6541,119.324,371.9091" style="stroke: #A80036; stroke-width: 1.0;"/><line style="stroke: #A80036; stroke-width: 1.0;" x1="122.7948" x2="128.3483" y1="368.31" y2="362.5515"/><polygon fill="#FFFFFF" points="207.749,280.2171,200.7047,281.7593,199.419,288.8549,206.4633,287.3127,207.749,280.2171" style="stroke: #A80036; stroke-width: 1.0;"/><text fill="#000000" font-family="sans-serif" font-size="13" lengthAdjust="spacingAndGlyphs" textLength="32" x="91.7993" y="360.9415">0..10</text><!--link Board to SecretPattern--><path d="M274.5,293.493 C274.5,319.7964 274.5,348.0913 274.5,371.373 " fill="none" id="Board-SecretPattern" style="stroke: #A80036; stroke-width: 1.0;"/><polygon fill="#A80036" points="274.5,384.4486,278.5,375.4486,274.5,379.4486,270.5,375.4486,274.5,384.4486" style="stroke: #A80036; stroke-width: 1.0;"/><line style="stroke: #A80036; stroke-width: 1.0;" x1="274.5" x2="274.5001" y1="379.4486" y2="371.4486"/><polygon fill="#A80036" points="274.5,280.2171,270.5,286.2171,274.5,292.2171,278.5,286.2171,274.5,280.2171" style="stroke: #A80036; stroke-width: 1.0;"/><!--link Board to GuessPattern--><path d="M359.4118,289.0522 C388.5307,315.8186 420.3905,345.1046 446.7302,369.3164 " fill="none" id="Board-GuessPattern" style="stroke: #A80036; stroke-width: 1.0;"/><polygon fill="#A80036" points="456.5377,378.3316,452.6187,369.296,452.8566,374.9479,447.2048,375.1858,456.5377,378.3316" style="stroke: #A80036; stroke-width: 1.0;"/><line style="stroke: #A80036; stroke-width: 1.0;" x1="452.8566" x2="446.9668" y1="374.9479" y2="369.5339"/><polygon fill="#FFFFFF" points="349.8003,280.2171,351.5106,287.2224,358.6349,288.338,356.9246,281.3327,349.8003,280.2171" style="stroke: #A80036; stroke-width: 1.0;"/><text fill="#000000" font-family="sans-serif" font-size="13" lengthAdjust="spacingAndGlyphs" textLength="32" x="414.5031" y="367.3008">0..10</text><!--
@startuml classDiagram

class Mastermind {
    - play()
    + main(String[] args)
}
class Board {
    -int attempt
    -GuessPattern[] patterns;
    -Result[] results;
    -SecretCombination secret
    Board()
    +void add(GuessPattern)
    +boolean isWinner()
}
class Result {
    int BlackHits
    int WhiteHits
    Result(int, int)
    +boolean isWinner()
}
abstract class Pattern {
    Pattern()
}
class SecretPattern {
    SecretPattern()
    +Result getResult(GuessPattern)
}
class GuessPattern {
    +void read()
    boolean contains(Color, int)
    boolean contains(Color)
}

enum Color {
    WHITE
    BLACK
    YELLOW
    BLUE
    RED
    GREEN
    BROWN
    ORANGE
    NULL
}


Mastermind *- -> Board
Pattern <|- - SecretPattern
Pattern <|- - GuessPattern
Pattern *- - "4" Color
Board o- -> "0..10" Result
Board *- -> SecretPattern
Board o- -> "0..10" GuessPattern

@enduml

PlantUML version 1.2017.15(Mon Jul 03 18:45:34 CEST 2017)
(GPL source distribution)
Java Runtime: OpenJDK Runtime Environment
JVM: OpenJDK 64-Bit Server VM
Java Version: 11.0.8+10-post-Ubuntu-0ubuntu118.04.1
Operating System: Linux
OS Version: 4.15.0-1099-oem
Default Encoding: UTF-8
Language: en
Country: US
--></g></svg>