<?xml version="1.0" encoding="UTF-8" standalone="no"?><svg xmlns="http://www.w3.org/2000/svg" xmlns:xlink="http://www.w3.org/1999/xlink" contentScriptType="application/ecmascript" contentStyleType="text/css" height="1231px" preserveAspectRatio="none" style="width:1172px;height:1231px;" version="1.1" viewBox="0 0 1172 1231" width="1172px" zoomAndPan="magnify"><defs><filter height="300%" id="fy8033tdtc0ol" width="300%" x="-1" y="-1"><feGaussianBlur result="blurOut" stdDeviation="2.0"/><feColorMatrix in="blurOut" result="blurOut2" type="matrix" values="0 0 0 0 0 0 0 0 0 0 0 0 0 0 0 0 0 0 .4 0"/><feOffset dx="4.0" dy="4.0" in="blurOut2" result="blurOut3"/><feBlend in="SourceGraphic" in2="blurOut3" mode="normal"/></filter></defs><g><text fill="#000000" font-family="sans-serif" font-size="18" lengthAdjust="spacingAndGlyphs" text-decoration="underline" textLength="278" x="441" y="16.708">CONTROLLERS's Class Diagram</text><line style="stroke: #000000; stroke-width: 1.0;" x1="441" x2="719" y1="18.708" y2="18.708"/><text fill="#000000" font-family="sans-serif" font-size="18" lengthAdjust="spacingAndGlyphs" textLength="0" x="583" y="37.6611"/><!--cluster usantatecla.mastermind--><polygon fill="#FFFFFF" filter="url(#fy8033tdtc0ol)" points="14,57.9063,209,57.9063,216,80.2031,844,80.2031,844,1155.9063,14,1155.9063,14,57.9063" style="stroke: #000000; stroke-width: 2.0;"/><line style="stroke: #000000; stroke-width: 2.0;" x1="14" x2="216" y1="80.2031" y2="80.2031"/><text fill="#000000" font-family="sans-serif" font-size="14" font-weight="bold" lengthAdjust="spacingAndGlyphs" textLength="189" x="18" y="72.9014">usantatecla.mastermind</text><!--cluster usantatecla.mastermind.controllers--><polygon fill="#FFFFFF" filter="url(#fy8033tdtc0ol)" points="22,84.9063,114,84.9063,121,107.2031,836,107.2031,836,1147.9063,22,1147.9063,22,84.9063" style="stroke: #000000; stroke-width: 2.0;"/><line style="stroke: #000000; stroke-width: 2.0;" x1="22" x2="121" y1="107.2031" y2="107.2031"/><text fill="#000000" font-family="sans-serif" font-size="14" font-weight="bold" lengthAdjust="spacingAndGlyphs" textLength="86" x="26" y="99.9014">controllers</text><!--cluster usantatecla.mastermind.models--><polygon fill="#FFFFFF" filter="url(#fy8033tdtc0ol)" points="867,252.9063,1124,252.9063,1131,275.2031,1134,275.2031,1134,335.9063,867,335.9063,867,252.9063" style="stroke: #000000; stroke-width: 2.0;"/><line style="stroke: #000000; stroke-width: 2.0;" x1="867" x2="1131" y1="275.2031" y2="275.2031"/><text fill="#000000" font-family="sans-serif" font-size="14" font-weight="bold" lengthAdjust="spacingAndGlyphs" textLength="251" x="871" y="267.9014">usantatecla.mastermind.models</text><!--class usantatecla.mastermind.controllers.AcceptorController--><rect fill="#FEFECE" filter="url(#fy8033tdtc0ol)" height="60.8047" id="usantatecla.mastermind.controllers.AcceptorController" style="stroke: #A80036; stroke-width: 1.5;" width="149" x="29.5" y="124.4063"/><ellipse cx="44.5" cy="140.4063" fill="#B4A7E5" rx="11" ry="11" style="stroke: #A80036; stroke-width: 1.0;"/><path d="M40.4219,136.1719 L40.4219,134.0156 L47.8125,134.0156 L47.8125,136.1719 L45.3438,136.1719 L45.3438,144.25 L47.8125,144.25 L47.8125,146.4063 L40.4219,146.4063 L40.4219,144.25 L42.8906,144.25 L42.8906,136.1719 L40.4219,136.1719 Z "/><text fill="#000000" font-family="sans-serif" font-size="12" font-style="italic" lengthAdjust="spacingAndGlyphs" textLength="117" x="58.5" y="144.5605">AcceptorController</text><line style="stroke: #A80036; stroke-width: 1.5;" x1="30.5" x2="177.5" y1="156.4063" y2="156.4063"/><line style="stroke: #A80036; stroke-width: 1.5;" x1="30.5" x2="177.5" y1="164.4063" y2="164.4063"/><ellipse cx="40.5" cy="176.3086" fill="#84BE84" rx="3" ry="3" style="stroke: #038048; stroke-width: 1.0;"/><text fill="#000000" font-family="sans-serif" font-size="11" font-style="italic" lengthAdjust="spacingAndGlyphs" textLength="45" x="49.5" y="178.6167">accept()</text><!--class usantatecla.mastermind.controllers.ActionController--><rect fill="#FEFECE" filter="url(#fy8033tdtc0ol)" height="150.4375" id="usantatecla.mastermind.controllers.ActionController" style="stroke: #A80036; stroke-width: 1.5;" width="180" x="210" y="989.9063"/><ellipse cx="246.6" cy="1005.9063" fill="#ADD1B2" rx="11" ry="11" style="stroke: #A80036; stroke-width: 1.0;"/><path d="M249.5688,1011.5469 Q248.9906,1011.8438 248.35,1011.9844 Q247.7094,1012.1406 247.0063,1012.1406 Q244.5063,1012.1406 243.1781,1010.5 Q241.8656,1008.8438 241.8656,1005.7188 Q241.8656,1002.5938 243.1781,1000.9375 Q244.5063,999.2813 247.0063,999.2813 Q247.7094,999.2813 248.35,999.4375 Q249.0063,999.5938 249.5688,999.8906 L249.5688,1002.6094 Q248.9438,1002.0313 248.35,1001.7656 Q247.7563,1001.4844 247.1313,1001.4844 Q245.7875,1001.4844 245.1,1002.5625 Q244.4125,1003.625 244.4125,1005.7188 Q244.4125,1007.8125 245.1,1008.8906 Q245.7875,1009.9531 247.1313,1009.9531 Q247.7563,1009.9531 248.35,1009.6875 Q248.9438,1009.4063 249.5688,1008.8281 L249.5688,1011.5469 Z "/><text fill="#000000" font-family="sans-serif" font-size="12" lengthAdjust="spacingAndGlyphs" textLength="100" x="265.4" y="1010.0605">ActionController</text><line style="stroke: #A80036; stroke-width: 1.5;" x1="211" x2="389" y1="1021.9063" y2="1021.9063"/><line style="stroke: #A80036; stroke-width: 1.5;" x1="211" x2="389" y1="1029.9063" y2="1029.9063"/><ellipse cx="221" cy="1041.8086" fill="#84BE84" rx="3" ry="3" style="stroke: #038048; stroke-width: 1.0;"/><text fill="#000000" font-family="sans-serif" font-size="11" lengthAdjust="spacingAndGlyphs" textLength="98" x="230" y="1044.1167">ActionController()</text><ellipse cx="221" cy="1054.6133" fill="#84BE84" rx="3" ry="3" style="stroke: #038048; stroke-width: 1.0;"/><text fill="#000000" font-family="sans-serif" font-size="11" lengthAdjust="spacingAndGlyphs" textLength="154" x="230" y="1056.9214">addProposedCombination()</text><ellipse cx="221" cy="1067.418" fill="#84BE84" rx="3" ry="3" style="stroke: #038048; stroke-width: 1.0;"/><text fill="#000000" font-family="sans-serif" font-size="11" lengthAdjust="spacingAndGlyphs" textLength="77" x="230" y="1069.7261">getAttempts()</text><ellipse cx="221" cy="1080.2227" fill="#84BE84" rx="3" ry="3" style="stroke: #038048; stroke-width: 1.0;"/><text fill="#000000" font-family="sans-serif" font-size="11" lengthAdjust="spacingAndGlyphs" textLength="63" x="230" y="1082.5308">getBlacks()</text><ellipse cx="221" cy="1093.0273" fill="#84BE84" rx="3" ry="3" style="stroke: #038048; stroke-width: 1.0;"/><text fill="#000000" font-family="sans-serif" font-size="11" lengthAdjust="spacingAndGlyphs" textLength="63" x="230" y="1095.3354">getColors()</text><ellipse cx="221" cy="1105.832" fill="#84BE84" rx="3" ry="3" style="stroke: #038048; stroke-width: 1.0;"/><text fill="#000000" font-family="sans-serif" font-size="11" lengthAdjust="spacingAndGlyphs" textLength="63" x="230" y="1108.1401">getWhites()</text><ellipse cx="221" cy="1118.6367" fill="#84BE84" rx="3" ry="3" style="stroke: #038048; stroke-width: 1.0;"/><text fill="#000000" font-family="sans-serif" font-size="11" lengthAdjust="spacingAndGlyphs" textLength="57" x="230" y="1120.9448">isLooser()</text><ellipse cx="221" cy="1131.4414" fill="#84BE84" rx="3" ry="3" style="stroke: #038048; stroke-width: 1.0;"/><text fill="#000000" font-family="sans-serif" font-size="11" lengthAdjust="spacingAndGlyphs" textLength="56" x="230" y="1133.7495">isWinner()</text><!--class usantatecla.mastermind.controllers.Controller--><rect fill="#FEFECE" filter="url(#fy8033tdtc0ol)" height="73.6094" id="usantatecla.mastermind.controllers.Controller" style="stroke: #A80036; stroke-width: 1.5;" width="93" x="385.5" y="117.9063"/><ellipse cx="400.5" cy="133.9063" fill="#ADD1B2" rx="11" ry="11" style="stroke: #A80036; stroke-width: 1.0;"/><path d="M403.4688,139.5469 Q402.8906,139.8438 402.25,139.9844 Q401.6094,140.1406 400.9063,140.1406 Q398.4063,140.1406 397.0781,138.5 Q395.7656,136.8438 395.7656,133.7188 Q395.7656,130.5938 397.0781,128.9375 Q398.4063,127.2813 400.9063,127.2813 Q401.6094,127.2813 402.25,127.4375 Q402.9063,127.5938 403.4688,127.8906 L403.4688,130.6094 Q402.8438,130.0313 402.25,129.7656 Q401.6563,129.4844 401.0313,129.4844 Q399.6875,129.4844 399,130.5625 Q398.3125,131.625 398.3125,133.7188 Q398.3125,135.8125 399,136.8906 Q399.6875,137.9531 401.0313,137.9531 Q401.6563,137.9531 402.25,137.6875 Q402.8438,137.4063 403.4688,136.8281 L403.4688,139.5469 Z "/><text fill="#000000" font-family="sans-serif" font-size="12" lengthAdjust="spacingAndGlyphs" textLength="61" x="414.5" y="138.0605">Controller</text><line style="stroke: #A80036; stroke-width: 1.5;" x1="386.5" x2="477.5" y1="149.9063" y2="149.9063"/><line style="stroke: #A80036; stroke-width: 1.5;" x1="386.5" x2="477.5" y1="157.9063" y2="157.9063"/><ellipse cx="396.5" cy="169.8086" fill="#84BE84" rx="3" ry="3" style="stroke: #038048; stroke-width: 1.0;"/><text fill="#000000" font-family="sans-serif" font-size="11" lengthAdjust="spacingAndGlyphs" textLength="56" x="405.5" y="172.1167">getWidth()</text><polygon fill="#4177AF" points="396.5,178.6133,392.5,184.6133,400.5,184.6133" style="stroke: #1963A0; stroke-width: 1.0;"/><text fill="#000000" font-family="sans-serif" font-size="11" lengthAdjust="spacingAndGlyphs" textLength="64" x="405.5" y="184.9214">Controller()</text><!--class usantatecla.mastermind.controllers.ControllersVisitor--><rect fill="#FEFECE" filter="url(#fy8033tdtc0ol)" height="86.4141" id="usantatecla.mastermind.controllers.ControllersVisitor" style="stroke: #A80036; stroke-width: 1.5;" width="137" x="213.5" y="111.9063"/><ellipse cx="228.5" cy="127.9063" fill="#B4A7E5" rx="11" ry="11" style="stroke: #A80036; stroke-width: 1.0;"/><path d="M224.4219,123.6719 L224.4219,121.5156 L231.8125,121.5156 L231.8125,123.6719 L229.3438,123.6719 L229.3438,131.75 L231.8125,131.75 L231.8125,133.9063 L224.4219,133.9063 L224.4219,131.75 L226.8906,131.75 L226.8906,123.6719 L224.4219,123.6719 Z "/><text fill="#000000" font-family="sans-serif" font-size="12" font-style="italic" lengthAdjust="spacingAndGlyphs" textLength="105" x="242.5" y="132.0605">ControllersVisitor</text><line style="stroke: #A80036; stroke-width: 1.5;" x1="214.5" x2="349.5" y1="143.9063" y2="143.9063"/><line style="stroke: #A80036; stroke-width: 1.5;" x1="214.5" x2="349.5" y1="151.9063" y2="151.9063"/><ellipse cx="224.5" cy="163.8086" fill="#84BE84" rx="3" ry="3" style="stroke: #038048; stroke-width: 1.0;"/><text fill="#000000" font-family="sans-serif" font-size="11" font-style="italic" lengthAdjust="spacingAndGlyphs" textLength="31" x="233.5" y="166.1167">visit()</text><ellipse cx="224.5" cy="176.6133" fill="#84BE84" rx="3" ry="3" style="stroke: #038048; stroke-width: 1.0;"/><text fill="#000000" font-family="sans-serif" font-size="11" font-style="italic" lengthAdjust="spacingAndGlyphs" textLength="31" x="233.5" y="178.9214">visit()</text><ellipse cx="224.5" cy="189.418" fill="#84BE84" rx="3" ry="3" style="stroke: #038048; stroke-width: 1.0;"/><text fill="#000000" font-family="sans-serif" font-size="11" font-style="italic" lengthAdjust="spacingAndGlyphs" textLength="31" x="233.5" y="191.7261">visit()</text><!--class usantatecla.mastermind.controllers.Logic--><rect fill="#FEFECE" filter="url(#fy8033tdtc0ol)" height="86.4141" id="usantatecla.mastermind.controllers.Logic" style="stroke: #A80036; stroke-width: 1.5;" width="314" x="514" y="111.9063"/><ellipse cx="650.75" cy="127.9063" fill="#ADD1B2" rx="11" ry="11" style="stroke: #A80036; stroke-width: 1.0;"/><path d="M653.7188,133.5469 Q653.1406,133.8438 652.5,133.9844 Q651.8594,134.1406 651.1563,134.1406 Q648.6563,134.1406 647.3281,132.5 Q646.0156,130.8438 646.0156,127.7188 Q646.0156,124.5938 647.3281,122.9375 Q648.6563,121.2813 651.1563,121.2813 Q651.8594,121.2813 652.5,121.4375 Q653.1563,121.5938 653.7188,121.8906 L653.7188,124.6094 Q653.0938,124.0313 652.5,123.7656 Q651.9063,123.4844 651.2813,123.4844 Q649.9375,123.4844 649.25,124.5625 Q648.5625,125.625 648.5625,127.7188 Q648.5625,129.8125 649.25,130.8906 Q649.9375,131.9531 651.2813,131.9531 Q651.9063,131.9531 652.5,131.6875 Q653.0938,131.4063 653.7188,130.8281 L653.7188,133.5469 Z "/><text fill="#000000" font-family="sans-serif" font-size="12" lengthAdjust="spacingAndGlyphs" textLength="32" x="671.25" y="132.0605">Logic</text><line style="stroke: #A80036; stroke-width: 1.5;" x1="515" x2="827" y1="143.9063" y2="143.9063"/><rect fill="none" height="6" style="stroke: #C82930; stroke-width: 1.0;" width="6" x="522" y="152.8086"/><text fill="#000000" font-family="sans-serif" font-size="11" lengthAdjust="spacingAndGlyphs" textLength="288" x="534" y="158.1167">controllers : Map&lt;StateValue, AcceptorController&gt;</text><line style="stroke: #A80036; stroke-width: 1.5;" x1="515" x2="827" y1="164.7109" y2="164.7109"/><ellipse cx="525" cy="176.6133" fill="#84BE84" rx="3" ry="3" style="stroke: #038048; stroke-width: 1.0;"/><text fill="#000000" font-family="sans-serif" font-size="11" lengthAdjust="spacingAndGlyphs" textLength="37" x="534" y="178.9214">Logic()</text><ellipse cx="525" cy="189.418" fill="#84BE84" rx="3" ry="3" style="stroke: #038048; stroke-width: 1.0;"/><text fill="#000000" font-family="sans-serif" font-size="11" lengthAdjust="spacingAndGlyphs" textLength="82" x="534" y="191.7261">getController()</text><!--class usantatecla.mastermind.controllers.ProposalController--><rect fill="#FEFECE" filter="url(#fy8033tdtc0ol)" height="214.4609" id="usantatecla.mastermind.controllers.ProposalController" style="stroke: #A80036; stroke-width: 1.5;" width="180" x="405" y="512.9063"/><ellipse cx="434.4" cy="528.9063" fill="#ADD1B2" rx="11" ry="11" style="stroke: #A80036; stroke-width: 1.0;"/><path d="M437.3688,534.5469 Q436.7906,534.8438 436.15,534.9844 Q435.5094,535.1406 434.8063,535.1406 Q432.3063,535.1406 430.9781,533.5 Q429.6656,531.8438 429.6656,528.7188 Q429.6656,525.5938 430.9781,523.9375 Q432.3063,522.2813 434.8063,522.2813 Q435.5094,522.2813 436.15,522.4375 Q436.8063,522.5938 437.3688,522.8906 L437.3688,525.6094 Q436.7438,525.0313 436.15,524.7656 Q435.5563,524.4844 434.9313,524.4844 Q433.5875,524.4844 432.9,525.5625 Q432.2125,526.625 432.2125,528.7188 Q432.2125,530.8125 432.9,531.8906 Q433.5875,532.9531 434.9313,532.9531 Q435.5563,532.9531 436.15,532.6875 Q436.7438,532.4063 437.3688,531.8281 L437.3688,534.5469 Z "/><text fill="#000000" font-family="sans-serif" font-size="12" lengthAdjust="spacingAndGlyphs" textLength="116" x="451.6" y="533.0605">ProposalController</text><line style="stroke: #A80036; stroke-width: 1.5;" x1="406" x2="584" y1="544.9063" y2="544.9063"/><line style="stroke: #A80036; stroke-width: 1.5;" x1="406" x2="584" y1="552.9063" y2="552.9063"/><ellipse cx="416" cy="564.8086" fill="#84BE84" rx="3" ry="3" style="stroke: #038048; stroke-width: 1.0;"/><text fill="#000000" font-family="sans-serif" font-size="11" lengthAdjust="spacingAndGlyphs" textLength="114" x="425" y="567.1167">ProposalController()</text><ellipse cx="416" cy="577.6133" fill="#84BE84" rx="3" ry="3" style="stroke: #038048; stroke-width: 1.0;"/><text fill="#000000" font-family="sans-serif" font-size="11" lengthAdjust="spacingAndGlyphs" textLength="45" x="425" y="579.9214">accept()</text><ellipse cx="416" cy="590.418" fill="#84BE84" rx="3" ry="3" style="stroke: #038048; stroke-width: 1.0;"/><text fill="#000000" font-family="sans-serif" font-size="11" lengthAdjust="spacingAndGlyphs" textLength="154" x="425" y="592.7261">addProposedCombination()</text><ellipse cx="416" cy="603.2227" fill="#84BE84" rx="3" ry="3" style="stroke: #038048; stroke-width: 1.0;"/><text fill="#000000" font-family="sans-serif" font-size="11" lengthAdjust="spacingAndGlyphs" textLength="77" x="425" y="605.5308">getAttempts()</text><ellipse cx="416" cy="616.0273" fill="#84BE84" rx="3" ry="3" style="stroke: #038048; stroke-width: 1.0;"/><text fill="#000000" font-family="sans-serif" font-size="11" lengthAdjust="spacingAndGlyphs" textLength="63" x="425" y="618.3354">getBlacks()</text><ellipse cx="416" cy="628.832" fill="#84BE84" rx="3" ry="3" style="stroke: #038048; stroke-width: 1.0;"/><text fill="#000000" font-family="sans-serif" font-size="11" lengthAdjust="spacingAndGlyphs" textLength="63" x="425" y="631.1401">getColors()</text><ellipse cx="416" cy="641.6367" fill="#84BE84" rx="3" ry="3" style="stroke: #038048; stroke-width: 1.0;"/><text fill="#000000" font-family="sans-serif" font-size="11" lengthAdjust="spacingAndGlyphs" textLength="63" x="425" y="643.9448">getWhites()</text><ellipse cx="416" cy="654.4414" fill="#84BE84" rx="3" ry="3" style="stroke: #038048; stroke-width: 1.0;"/><text fill="#000000" font-family="sans-serif" font-size="11" lengthAdjust="spacingAndGlyphs" textLength="57" x="425" y="656.7495">isLooser()</text><ellipse cx="416" cy="667.2461" fill="#84BE84" rx="3" ry="3" style="stroke: #038048; stroke-width: 1.0;"/><text fill="#000000" font-family="sans-serif" font-size="11" lengthAdjust="spacingAndGlyphs" textLength="70" x="425" y="669.5542">isRedoable()</text><ellipse cx="416" cy="680.0508" fill="#84BE84" rx="3" ry="3" style="stroke: #038048; stroke-width: 1.0;"/><text fill="#000000" font-family="sans-serif" font-size="11" lengthAdjust="spacingAndGlyphs" textLength="71" x="425" y="682.3589">isUndoable()</text><ellipse cx="416" cy="692.8555" fill="#84BE84" rx="3" ry="3" style="stroke: #038048; stroke-width: 1.0;"/><text fill="#000000" font-family="sans-serif" font-size="11" lengthAdjust="spacingAndGlyphs" textLength="56" x="425" y="695.1636">isWinner()</text><ellipse cx="416" cy="705.6602" fill="#84BE84" rx="3" ry="3" style="stroke: #038048; stroke-width: 1.0;"/><text fill="#000000" font-family="sans-serif" font-size="11" lengthAdjust="spacingAndGlyphs" textLength="34" x="425" y="707.9683">redo()</text><ellipse cx="416" cy="718.4648" fill="#84BE84" rx="3" ry="3" style="stroke: #038048; stroke-width: 1.0;"/><text fill="#000000" font-family="sans-serif" font-size="11" lengthAdjust="spacingAndGlyphs" textLength="36" x="425" y="720.7729">undo()</text><!--class usantatecla.mastermind.controllers.RedoController--><rect fill="#FEFECE" filter="url(#fy8033tdtc0ol)" height="86.4141" id="usantatecla.mastermind.controllers.RedoController" style="stroke: #A80036; stroke-width: 1.5;" width="125" x="682.5" y="1021.9063"/><ellipse cx="697.5" cy="1037.9063" fill="#ADD1B2" rx="11" ry="11" style="stroke: #A80036; stroke-width: 1.0;"/><path d="M700.4688,1043.5469 Q699.8906,1043.8438 699.25,1043.9844 Q698.6094,1044.1406 697.9063,1044.1406 Q695.4063,1044.1406 694.0781,1042.5 Q692.7656,1040.8438 692.7656,1037.7188 Q692.7656,1034.5938 694.0781,1032.9375 Q695.4063,1031.2813 697.9063,1031.2813 Q698.6094,1031.2813 699.25,1031.4375 Q699.9063,1031.5938 700.4688,1031.8906 L700.4688,1034.6094 Q699.8438,1034.0313 699.25,1033.7656 Q698.6563,1033.4844 698.0313,1033.4844 Q696.6875,1033.4844 696,1034.5625 Q695.3125,1035.625 695.3125,1037.7188 Q695.3125,1039.8125 696,1040.8906 Q696.6875,1041.9531 698.0313,1041.9531 Q698.6563,1041.9531 699.25,1041.6875 Q699.8438,1041.4063 700.4688,1040.8281 L700.4688,1043.5469 Z "/><text fill="#000000" font-family="sans-serif" font-size="12" lengthAdjust="spacingAndGlyphs" textLength="93" x="711.5" y="1042.0605">RedoController</text><line style="stroke: #A80036; stroke-width: 1.5;" x1="683.5" x2="806.5" y1="1053.9063" y2="1053.9063"/><line style="stroke: #A80036; stroke-width: 1.5;" x1="683.5" x2="806.5" y1="1061.9063" y2="1061.9063"/><ellipse cx="693.5" cy="1073.8086" fill="#84BE84" rx="3" ry="3" style="stroke: #038048; stroke-width: 1.0;"/><text fill="#000000" font-family="sans-serif" font-size="11" lengthAdjust="spacingAndGlyphs" textLength="92" x="702.5" y="1076.1167">RedoController()</text><ellipse cx="693.5" cy="1086.6133" fill="#84BE84" rx="3" ry="3" style="stroke: #038048; stroke-width: 1.0;"/><text fill="#000000" font-family="sans-serif" font-size="11" lengthAdjust="spacingAndGlyphs" textLength="70" x="702.5" y="1088.9214">isRedoable()</text><ellipse cx="693.5" cy="1099.418" fill="#84BE84" rx="3" ry="3" style="stroke: #038048; stroke-width: 1.0;"/><text fill="#000000" font-family="sans-serif" font-size="11" lengthAdjust="spacingAndGlyphs" textLength="34" x="702.5" y="1101.7261">redo()</text><!--class usantatecla.mastermind.controllers.ResumeController--><rect fill="#FEFECE" filter="url(#fy8033tdtc0ol)" height="86.4141" id="usantatecla.mastermind.controllers.ResumeController" style="stroke: #A80036; stroke-width: 1.5;" width="143" x="30.5" y="576.9063"/><ellipse cx="45.5" cy="592.9063" fill="#ADD1B2" rx="11" ry="11" style="stroke: #A80036; stroke-width: 1.0;"/><path d="M48.4688,598.5469 Q47.8906,598.8438 47.25,598.9844 Q46.6094,599.1406 45.9063,599.1406 Q43.4063,599.1406 42.0781,597.5 Q40.7656,595.8438 40.7656,592.7188 Q40.7656,589.5938 42.0781,587.9375 Q43.4063,586.2813 45.9063,586.2813 Q46.6094,586.2813 47.25,586.4375 Q47.9063,586.5938 48.4688,586.8906 L48.4688,589.6094 Q47.8438,589.0313 47.25,588.7656 Q46.6563,588.4844 46.0313,588.4844 Q44.6875,588.4844 44,589.5625 Q43.3125,590.625 43.3125,592.7188 Q43.3125,594.8125 44,595.8906 Q44.6875,596.9531 46.0313,596.9531 Q46.6563,596.9531 47.25,596.6875 Q47.8438,596.4063 48.4688,595.8281 L48.4688,598.5469 Z "/><text fill="#000000" font-family="sans-serif" font-size="12" lengthAdjust="spacingAndGlyphs" textLength="111" x="59.5" y="597.0605">ResumeController</text><line style="stroke: #A80036; stroke-width: 1.5;" x1="31.5" x2="172.5" y1="608.9063" y2="608.9063"/><line style="stroke: #A80036; stroke-width: 1.5;" x1="31.5" x2="172.5" y1="616.9063" y2="616.9063"/><ellipse cx="41.5" cy="628.8086" fill="#84BE84" rx="3" ry="3" style="stroke: #038048; stroke-width: 1.0;"/><text fill="#000000" font-family="sans-serif" font-size="11" lengthAdjust="spacingAndGlyphs" textLength="110" x="50.5" y="631.1167">ResumeController()</text><ellipse cx="41.5" cy="641.6133" fill="#84BE84" rx="3" ry="3" style="stroke: #038048; stroke-width: 1.0;"/><text fill="#000000" font-family="sans-serif" font-size="11" lengthAdjust="spacingAndGlyphs" textLength="45" x="50.5" y="643.9214">accept()</text><ellipse cx="41.5" cy="654.418" fill="#84BE84" rx="3" ry="3" style="stroke: #038048; stroke-width: 1.0;"/><text fill="#000000" font-family="sans-serif" font-size="11" lengthAdjust="spacingAndGlyphs" textLength="52" x="50.5" y="656.7261">resume()</text><!--class usantatecla.mastermind.controllers.StartController--><rect fill="#FEFECE" filter="url(#fy8033tdtc0ol)" height="86.4141" id="usantatecla.mastermind.controllers.StartController" style="stroke: #A80036; stroke-width: 1.5;" width="124" x="209" y="576.9063"/><ellipse cx="224" cy="592.9063" fill="#ADD1B2" rx="11" ry="11" style="stroke: #A80036; stroke-width: 1.0;"/><path d="M226.9688,598.5469 Q226.3906,598.8438 225.75,598.9844 Q225.1094,599.1406 224.4063,599.1406 Q221.9063,599.1406 220.5781,597.5 Q219.2656,595.8438 219.2656,592.7188 Q219.2656,589.5938 220.5781,587.9375 Q221.9063,586.2813 224.4063,586.2813 Q225.1094,586.2813 225.75,586.4375 Q226.4063,586.5938 226.9688,586.8906 L226.9688,589.6094 Q226.3438,589.0313 225.75,588.7656 Q225.1563,588.4844 224.5313,588.4844 Q223.1875,588.4844 222.5,589.5625 Q221.8125,590.625 221.8125,592.7188 Q221.8125,594.8125 222.5,595.8906 Q223.1875,596.9531 224.5313,596.9531 Q225.1563,596.9531 225.75,596.6875 Q226.3438,596.4063 226.9688,595.8281 L226.9688,598.5469 Z "/><text fill="#000000" font-family="sans-serif" font-size="12" lengthAdjust="spacingAndGlyphs" textLength="92" x="238" y="597.0605">StartController</text><line style="stroke: #A80036; stroke-width: 1.5;" x1="210" x2="332" y1="608.9063" y2="608.9063"/><line style="stroke: #A80036; stroke-width: 1.5;" x1="210" x2="332" y1="616.9063" y2="616.9063"/><ellipse cx="220" cy="628.8086" fill="#84BE84" rx="3" ry="3" style="stroke: #038048; stroke-width: 1.0;"/><text fill="#000000" font-family="sans-serif" font-size="11" lengthAdjust="spacingAndGlyphs" textLength="92" x="229" y="631.1167">StartController()</text><ellipse cx="220" cy="641.6133" fill="#84BE84" rx="3" ry="3" style="stroke: #038048; stroke-width: 1.0;"/><text fill="#000000" font-family="sans-serif" font-size="11" lengthAdjust="spacingAndGlyphs" textLength="45" x="229" y="643.9214">accept()</text><ellipse cx="220" cy="654.418" fill="#84BE84" rx="3" ry="3" style="stroke: #038048; stroke-width: 1.0;"/><text fill="#000000" font-family="sans-serif" font-size="11" lengthAdjust="spacingAndGlyphs" textLength="35" x="229" y="656.7261">start()</text><!--class usantatecla.mastermind.controllers.UndoController--><rect fill="#FEFECE" filter="url(#fy8033tdtc0ol)" height="86.4141" id="usantatecla.mastermind.controllers.UndoController" style="stroke: #A80036; stroke-width: 1.5;" width="126" x="453" y="1021.9063"/><ellipse cx="468" cy="1037.9063" fill="#ADD1B2" rx="11" ry="11" style="stroke: #A80036; stroke-width: 1.0;"/><path d="M470.9688,1043.5469 Q470.3906,1043.8438 469.75,1043.9844 Q469.1094,1044.1406 468.4063,1044.1406 Q465.9063,1044.1406 464.5781,1042.5 Q463.2656,1040.8438 463.2656,1037.7188 Q463.2656,1034.5938 464.5781,1032.9375 Q465.9063,1031.2813 468.4063,1031.2813 Q469.1094,1031.2813 469.75,1031.4375 Q470.4063,1031.5938 470.9688,1031.8906 L470.9688,1034.6094 Q470.3438,1034.0313 469.75,1033.7656 Q469.1563,1033.4844 468.5313,1033.4844 Q467.1875,1033.4844 466.5,1034.5625 Q465.8125,1035.625 465.8125,1037.7188 Q465.8125,1039.8125 466.5,1040.8906 Q467.1875,1041.9531 468.5313,1041.9531 Q469.1563,1041.9531 469.75,1041.6875 Q470.3438,1041.4063 470.9688,1040.8281 L470.9688,1043.5469 Z "/><text fill="#000000" font-family="sans-serif" font-size="12" lengthAdjust="spacingAndGlyphs" textLength="94" x="482" y="1042.0605">UndoController</text><line style="stroke: #A80036; stroke-width: 1.5;" x1="454" x2="578" y1="1053.9063" y2="1053.9063"/><line style="stroke: #A80036; stroke-width: 1.5;" x1="454" x2="578" y1="1061.9063" y2="1061.9063"/><ellipse cx="464" cy="1073.8086" fill="#84BE84" rx="3" ry="3" style="stroke: #038048; stroke-width: 1.0;"/><text fill="#000000" font-family="sans-serif" font-size="11" lengthAdjust="spacingAndGlyphs" textLength="93" x="473" y="1076.1167">UndoController()</text><ellipse cx="464" cy="1086.6133" fill="#84BE84" rx="3" ry="3" style="stroke: #038048; stroke-width: 1.0;"/><text fill="#000000" font-family="sans-serif" font-size="11" lengthAdjust="spacingAndGlyphs" textLength="71" x="473" y="1088.9214">isUndoable()</text><ellipse cx="464" cy="1099.418" fill="#84BE84" rx="3" ry="3" style="stroke: #038048; stroke-width: 1.0;"/><text fill="#000000" font-family="sans-serif" font-size="11" lengthAdjust="spacingAndGlyphs" textLength="36" x="473" y="1101.7261">undo()</text><!--class usantatecla.mastermind.models.Session--><rect fill="#FEFECE" filter="url(#fy8033tdtc0ol)" height="48" id="usantatecla.mastermind.models.Session" style="stroke: #A80036; stroke-width: 1.5;" width="81" x="903.5" y="279.9063"/><ellipse cx="918.5" cy="295.9063" fill="#ADD1B2" rx="11" ry="11" style="stroke: #A80036; stroke-width: 1.0;"/><path d="M921.4688,301.5469 Q920.8906,301.8438 920.25,301.9844 Q919.6094,302.1406 918.9063,302.1406 Q916.4063,302.1406 915.0781,300.5 Q913.7656,298.8438 913.7656,295.7188 Q913.7656,292.5938 915.0781,290.9375 Q916.4063,289.2813 918.9063,289.2813 Q919.6094,289.2813 920.25,289.4375 Q920.9063,289.5938 921.4688,289.8906 L921.4688,292.6094 Q920.8438,292.0313 920.25,291.7656 Q919.6563,291.4844 919.0313,291.4844 Q917.6875,291.4844 917,292.5625 Q916.3125,293.625 916.3125,295.7188 Q916.3125,297.8125 917,298.8906 Q917.6875,299.9531 919.0313,299.9531 Q919.6563,299.9531 920.25,299.6875 Q920.8438,299.4063 921.4688,298.8281 L921.4688,301.5469 Z "/><text fill="#000000" font-family="sans-serif" font-size="12" lengthAdjust="spacingAndGlyphs" textLength="49" x="932.5" y="300.0605">Session</text><line style="stroke: #A80036; stroke-width: 1.5;" x1="904.5" x2="983.5" y1="311.9063" y2="311.9063"/><line style="stroke: #A80036; stroke-width: 1.5;" x1="904.5" x2="983.5" y1="319.9063" y2="319.9063"/><!--link usantatecla.mastermind.controllers.Controller to usantatecla.mastermind.controllers.ActionController--><path d="M396.5983,209.6405 C382.2508,236.8641 369,270.9324 369,303.9063 C369,303.9063 369,303.9063 369,482.4063 C369,591.367 384.1727,623.118 351,726.9063 C331.7152,787.2432 295.0983,788.6422 279,849.9063 C277.0798,857.2138 278.601,859.3612 279,866.9063 C281.154,907.6393 285.7841,952.8894 290.1499,989.838 " fill="none" id="usantatecla.mastermind.controllers.Controller-usantatecla.mastermind.controllers.ActionController" style="stroke: #A80036; stroke-width: 1.0;"/><polygon fill="none" points="390.6344,205.9656,406.5571,191.9847,402.8284,212.8437,390.6344,205.9656" style="stroke: #A80036; stroke-width: 1.0;"/><!--link usantatecla.mastermind.controllers.Controller to usantatecla.mastermind.models.Session--><path d="M490.6929,195.4534 C492.788,196.3452 494.8932,197.1675 497,197.9063 C636.8093,246.9345 689.1793,178.9104 829,227.9063 C846.2774,233.9606 883.9801,259.9248 911.5221,279.8378 " fill="none" id="usantatecla.mastermind.controllers.Controller-usantatecla.mastermind.models.Session" style="stroke: #A80036; stroke-width: 1.0;"/><polygon fill="#FFFFFF" points="478.8637,189.6816,482.5019,195.9076,489.6483,194.9438,486.0101,188.7178,478.8637,189.6816" style="stroke: #A80036; stroke-width: 1.0;"/><text fill="#000000" font-family="sans-serif" font-size="13" lengthAdjust="spacingAndGlyphs" textLength="48" x="858" y="240.9731">session</text><!--link usantatecla.mastermind.controllers.Logic to usantatecla.mastermind.models.Session--><path d="M840.5569,192.4597 C875.5365,202.9878 905.7728,215.0897 919,227.9063 C932.9654,241.4381 939.133,262.8991 941.8549,279.5696 " fill="none" id="usantatecla.mastermind.controllers.Logic-usantatecla.mastermind.models.Session" style="stroke: #A80036; stroke-width: 1.0;"/><polygon fill="#FFFFFF" points="828.0065,188.8029,832.648,194.3216,839.5274,192.1598,834.8859,186.641,828.0065,188.8029" style="stroke: #A80036; stroke-width: 1.0;"/><text fill="#000000" font-family="sans-serif" font-size="13" lengthAdjust="spacingAndGlyphs" textLength="48" x="931" y="240.9731">session</text><!--link usantatecla.mastermind.controllers.AcceptorController to usantatecla.mastermind.controllers.ProposalController--><path d="M185.5179,196.2402 C222.8833,221.4665 259,257.78 259,303.9063 C259,303.9063 259,303.9063 259,451.4063 C259,500.5898 310.8041,484.5637 351,512.9063 C368.5637,525.2907 387.1206,538.7723 404.8595,551.8601 " fill="none" id="usantatecla.mastermind.controllers.AcceptorController-usantatecla.mastermind.controllers.ProposalController" style="stroke: #A80036; stroke-width: 1.0; stroke-dasharray: 7.0,7.0;"/><polygon fill="none" points="181.5686,202.0254,168.3874,185.4345,189.0378,190.1844,181.5686,202.0254" style="stroke: #A80036; stroke-width: 1.0;"/><!--link usantatecla.mastermind.controllers.Controller to usantatecla.mastermind.controllers.ProposalController--><path d="M449.4364,211.4225 C456.4899,239.0316 463,272.9095 463,303.9063 C463,303.9063 463,303.9063 463,451.4063 C463,471.3564 465.1919,492.4055 468.4284,512.6121 " fill="none" id="usantatecla.mastermind.controllers.Controller-usantatecla.mastermind.controllers.ProposalController" style="stroke: #A80036; stroke-width: 1.0;"/><polygon fill="none" points="442.6818,213.2594,444.163,192.1215,456.1868,209.5694,442.6818,213.2594" style="stroke: #A80036; stroke-width: 1.0;"/><!--link usantatecla.mastermind.controllers.ProposalController to usantatecla.mastermind.controllers.ActionController--><path d="M395.1403,711.6766 C356.7735,747.9006 322,782.3911 322,788.4063 C322,788.4063 322,788.4063 322,928.4063 C322,948.4494 319.6595,969.9395 316.5052,989.8003 " fill="none" id="usantatecla.mastermind.controllers.ProposalController-usantatecla.mastermind.controllers.ActionController" style="stroke: #A80036; stroke-width: 1.0;"/><polygon fill="#FFFFFF" points="404.953,702.4461,397.842,703.6436,396.2124,710.6681,403.3234,709.4706,404.953,702.4461" style="stroke: #A80036; stroke-width: 1.0;"/><text fill="#000000" font-family="sans-serif" font-size="13" lengthAdjust="spacingAndGlyphs" textLength="101" x="323" y="862.9731">actionController</text><!--link usantatecla.mastermind.controllers.ProposalController to usantatecla.mastermind.controllers.RedoController--><path d="M561.6683,738.5758 C614.1337,831.9642 684.272,956.8105 720.7124,1021.6743 " fill="none" id="usantatecla.mastermind.controllers.ProposalController-usantatecla.mastermind.controllers.RedoController" style="stroke: #A80036; stroke-width: 1.0;"/><polygon fill="#FFFFFF" points="555.1994,727.0612,554.6509,734.2514,561.077,737.5232,561.6255,730.3329,555.1994,727.0612" style="stroke: #A80036; stroke-width: 1.0;"/><text fill="#000000" font-family="sans-serif" font-size="13" lengthAdjust="spacingAndGlyphs" textLength="91" x="634" y="862.9731">redoController</text><!--link usantatecla.mastermind.controllers.ProposalController to usantatecla.mastermind.controllers.UndoController--><path d="M495,740.725 C495,756.7586 495,772.9797 495,788.4063 C495,788.4063 495,788.4063 495,928.4063 C495,959.9357 500.541,995.0903 505.9306,1021.8264 " fill="none" id="usantatecla.mastermind.controllers.ProposalController-usantatecla.mastermind.controllers.UndoController" style="stroke: #A80036; stroke-width: 1.0;"/><polygon fill="#FFFFFF" points="495,727.3223,491,733.3223,495,739.3223,499,733.3223,495,727.3223" style="stroke: #A80036; stroke-width: 1.0;"/><text fill="#000000" font-family="sans-serif" font-size="13" lengthAdjust="spacingAndGlyphs" textLength="94" x="496" y="862.9731">undoController</text><!--link usantatecla.mastermind.controllers.Controller to usantatecla.mastermind.controllers.RedoController--><path d="M496.7079,197.7995 C496.8053,197.8353 496.9026,197.8709 497,197.9063 C641.7824,250.5241 827,149.859 827,303.9063 C827,303.9063 827,303.9063 827,928.4063 C827,963.101 807.293,996.5837 787.201,1021.7045 " fill="none" id="usantatecla.mastermind.controllers.Controller-usantatecla.mastermind.controllers.RedoController" style="stroke: #A80036; stroke-width: 1.0;"/><polygon fill="none" points="493.7205,204.1303,478.5452,189.3414,499.6308,191.4389,493.7205,204.1303" style="stroke: #A80036; stroke-width: 1.0;"/><!--link usantatecla.mastermind.controllers.AcceptorController to usantatecla.mastermind.controllers.ResumeController--><path d="M103.4901,205.7279 C103.2434,234.5304 103,271.2329 103,303.9063 C103,303.9063 103,303.9063 103,451.4063 C103,493.9709 102.677,542.5824 102.3981,576.6175 " fill="none" id="usantatecla.mastermind.controllers.AcceptorController-usantatecla.mastermind.controllers.ResumeController" style="stroke: #A80036; stroke-width: 1.0; stroke-dasharray: 7.0,7.0;"/><polygon fill="none" points="96.4929,205.3751,103.6753,185.4398,110.4923,205.503,96.4929,205.3751" style="stroke: #A80036; stroke-width: 1.0;"/><!--link usantatecla.mastermind.controllers.Controller to usantatecla.mastermind.controllers.ResumeController--><path d="M368.6436,197.5912 C303.6523,241.4104 212,303.3108 212,303.9063 C212,303.9063 212,303.9063 212,420.4063 C212,480.129 173.7293,538.8067 142.3353,576.8938 " fill="none" id="usantatecla.mastermind.controllers.Controller-usantatecla.mastermind.controllers.ResumeController" style="stroke: #A80036; stroke-width: 1.0;"/><polygon fill="none" points="364.847,191.7087,385.3437,186.3338,372.6724,203.3174,364.847,191.7087" style="stroke: #A80036; stroke-width: 1.0;"/><!--link usantatecla.mastermind.controllers.AcceptorController to usantatecla.mastermind.controllers.StartController--><path d="M139.6024,202.0598 C157.3182,230.1214 175,267.2986 175,303.9063 C175,303.9063 175,303.9063 175,420.4063 C175,478.8303 208.8438,538.2073 236.3418,576.8089 " fill="none" id="usantatecla.mastermind.controllers.AcceptorController-usantatecla.mastermind.controllers.StartController" style="stroke: #A80036; stroke-width: 1.0; stroke-dasharray: 7.0,7.0;"/><polygon fill="none" points="133.7812,205.9474,128.4342,185.4434,145.4005,198.1377,133.7812,205.9474" style="stroke: #A80036; stroke-width: 1.0;"/><!--link usantatecla.mastermind.controllers.Controller to usantatecla.mastermind.controllers.StartController--><path d="M374.0171,205.6802 C338.9637,238.8115 301,280.1721 301,303.9063 C301,303.9063 301,303.9063 301,451.4063 C301,494.4909 291.3755,542.8262 283.0293,576.642 " fill="none" id="usantatecla.mastermind.controllers.Controller-usantatecla.mastermind.controllers.StartController" style="stroke: #A80036; stroke-width: 1.0;"/><polygon fill="none" points="369.3069,200.5017,388.7426,192.0603,378.8131,210.7795,369.3069,200.5017" style="stroke: #A80036; stroke-width: 1.0;"/><!--link usantatecla.mastermind.controllers.Controller to usantatecla.mastermind.controllers.UndoController--><path d="M496.433,197.6201 C496.6221,197.716 496.8111,197.8112 497,197.9063 C620.7295,260.1019 790,165.4242 790,303.9063 C790,303.9063 790,303.9063 790,819.4063 C790,875.6922 660.124,970.8421 579.2052,1024.6625 " fill="none" id="usantatecla.mastermind.controllers.Controller-usantatecla.mastermind.controllers.UndoController" style="stroke: #A80036; stroke-width: 1.0;"/><polygon fill="none" points="492.8074,203.6126,478.788,187.7237,499.6559,191.402,492.8074,203.6126" style="stroke: #A80036; stroke-width: 1.0;"/><text fill="#888888" font-family="sans-serif" font-size="10" lengthAdjust="spacingAndGlyphs" textLength="0" x="1160" y="1183.1885"/><text fill="#888888" font-family="sans-serif" font-size="10" lengthAdjust="spacingAndGlyphs" textLength="0" x="1160" y="1194.8291"/><text fill="#888888" font-family="sans-serif" font-size="10" lengthAdjust="spacingAndGlyphs" textLength="413" x="747" y="1206.4697">PlantUML diagram generated by SketchIt! (https://bitbucket.org/pmesmeur/sketch.it)</text><text fill="#888888" font-family="sans-serif" font-size="10" lengthAdjust="spacingAndGlyphs" textLength="402" x="758" y="1218.1104">For more information about this tool, please contact philippe.mesmeur@gmail.com</text><!--
@startuml

title __CONTROLLERS's Class Diagram__\n

  namespace usantatecla.mastermind {
    namespace controllers {
      interface usantatecla.mastermind.controllers.AcceptorController {
          {abstract} + accept()
      }
    }
  }
  

  namespace usantatecla.mastermind {
    namespace controllers {
      class usantatecla.mastermind.controllers.ActionController {
          + ActionController()
          + addProposedCombination()
          + getAttempts()
          + getBlacks()
          + getColors()
          + getWhites()
          + isLooser()
          + isWinner()
      }
    }
  }
  

  namespace usantatecla.mastermind {
    namespace controllers {
      class usantatecla.mastermind.controllers.Controller {
          + getWidth()
          ~ Controller()
      }
    }
  }
  

  namespace usantatecla.mastermind {
    namespace controllers {
      interface usantatecla.mastermind.controllers.ControllersVisitor {
          {abstract} + visit()
          {abstract} + visit()
          {abstract} + visit()
      }
    }
  }
  

  namespace usantatecla.mastermind {
    namespace controllers {
      class usantatecla.mastermind.controllers.Logic {
          - controllers : Map<StateValue, AcceptorController>
          + Logic()
          + getController()
      }
    }
  }
  

  namespace usantatecla.mastermind {
    namespace controllers {
      class usantatecla.mastermind.controllers.ProposalController {
          + ProposalController()
          + accept()
          + addProposedCombination()
          + getAttempts()
          + getBlacks()
          + getColors()
          + getWhites()
          + isLooser()
          + isRedoable()
          + isUndoable()
          + isWinner()
          + redo()
          + undo()
      }
    }
  }
  

  namespace usantatecla.mastermind {
    namespace controllers {
      class usantatecla.mastermind.controllers.RedoController {
          + RedoController()
          + isRedoable()
          + redo()
      }
    }
  }
  

  namespace usantatecla.mastermind {
    namespace controllers {
      class usantatecla.mastermind.controllers.ResumeController {
          + ResumeController()
          + accept()
          + resume()
      }
    }
  }
  

  namespace usantatecla.mastermind {
    namespace controllers {
      class usantatecla.mastermind.controllers.StartController {
          + StartController()
          + accept()
          + start()
      }
    }
  }
  

  namespace usantatecla.mastermind {
    namespace controllers {
      class usantatecla.mastermind.controllers.UndoController {
          + UndoController()
          + isUndoable()
          + undo()
      }
    }
  }
  

  usantatecla.mastermind.controllers.ActionController -up-|> usantatecla.mastermind.controllers.Controller
  usantatecla.mastermind.controllers.Controller o- - usantatecla.mastermind.models.Session : session
  usantatecla.mastermind.controllers.Logic o- - usantatecla.mastermind.models.Session : session
  usantatecla.mastermind.controllers.ProposalController .up.|> usantatecla.mastermind.controllers.AcceptorController
  usantatecla.mastermind.controllers.ProposalController -up-|> usantatecla.mastermind.controllers.Controller
  usantatecla.mastermind.controllers.ProposalController o- - usantatecla.mastermind.controllers.ActionController : actionController
  usantatecla.mastermind.controllers.ProposalController o- - usantatecla.mastermind.controllers.RedoController : redoController
  usantatecla.mastermind.controllers.ProposalController o- - usantatecla.mastermind.controllers.UndoController : undoController
  usantatecla.mastermind.controllers.RedoController -up-|> usantatecla.mastermind.controllers.Controller
  usantatecla.mastermind.controllers.ResumeController .up.|> usantatecla.mastermind.controllers.AcceptorController
  usantatecla.mastermind.controllers.ResumeController -up-|> usantatecla.mastermind.controllers.Controller
  usantatecla.mastermind.controllers.StartController .up.|> usantatecla.mastermind.controllers.AcceptorController
  usantatecla.mastermind.controllers.StartController -up-|> usantatecla.mastermind.controllers.Controller
  usantatecla.mastermind.controllers.UndoController -up-|> usantatecla.mastermind.controllers.Controller


right footer


PlantUML diagram generated by SketchIt! (https://bitbucket.org/pmesmeur/sketch.it)
For more information about this tool, please contact philippe.mesmeur@gmail.com
endfooter

@enduml

PlantUML version 1.2017.15(Mon Jul 03 18:45:34 CEST 2017)
(GPL source distribution)
Java Runtime: OpenJDK Runtime Environment
JVM: OpenJDK 64-Bit Server VM
Java Version: 11.0.9.1+1-Ubuntu-0ubuntu1.18.04
Operating System: Linux
OS Version: 4.15.0-1102-oem
Default Encoding: UTF-8
Language: en
Country: US
--></g></svg>