<?xml version="1.0" encoding="UTF-8" standalone="no"?><svg xmlns="http://www.w3.org/2000/svg" xmlns:xlink="http://www.w3.org/1999/xlink" contentScriptType="application/ecmascript" contentStyleType="text/css" height="653px" preserveAspectRatio="none" style="width:778px;height:653px;" version="1.1" viewBox="0 0 778 653" width="778px" zoomAndPan="magnify"><defs><filter height="300%" id="f1nx270icmbm41" width="300%" x="-1" y="-1"><feGaussianBlur result="blurOut" stdDeviation="2.0"/><feColorMatrix in="blurOut" result="blurOut2" type="matrix" values="0 0 0 0 0 0 0 0 0 0 0 0 0 0 0 0 0 0 .4 0"/><feOffset dx="4.0" dy="4.0" in="blurOut2" result="blurOut3"/><feBlend in="SourceGraphic" in2="blurOut3" mode="normal"/></filter></defs><g><text fill="#000000" font-family="sans-serif" font-size="18" lengthAdjust="spacingAndGlyphs" text-decoration="underline" textLength="202" x="282" y="16.708">VIEWS's Class Diagram</text><line style="stroke: #000000; stroke-width: 1.0;" x1="282" x2="484" y1="18.708" y2="18.708"/><text fill="#000000" font-family="sans-serif" font-size="18" lengthAdjust="spacingAndGlyphs" textLength="0" x="386" y="37.6611"/><!--cluster usantatecla.mastermind--><polygon fill="#FFFFFF" filter="url(#f1nx270icmbm41)" points="107,171.9063,302,171.9063,309,194.2031,740,194.2031,740,455.9063,107,455.9063,107,171.9063" style="stroke: #000000; stroke-width: 2.0;"/><line style="stroke: #000000; stroke-width: 2.0;" x1="107" x2="309" y1="194.2031" y2="194.2031"/><text fill="#000000" font-family="sans-serif" font-size="14" font-weight="bold" lengthAdjust="spacingAndGlyphs" textLength="189" x="111" y="186.9014">usantatecla.mastermind</text><!--cluster usantatecla.mastermind.views--><polygon fill="#FFFFFF" filter="url(#f1nx270icmbm41)" points="115,198.9063,167,198.9063,174,221.2031,732,221.2031,732,447.9063,115,447.9063,115,198.9063" style="stroke: #000000; stroke-width: 2.0;"/><line style="stroke: #000000; stroke-width: 2.0;" x1="115" x2="174" y1="221.2031" y2="221.2031"/><text fill="#000000" font-family="sans-serif" font-size="14" font-weight="bold" lengthAdjust="spacingAndGlyphs" textLength="46" x="119" y="213.9014">views</text><!--cluster usantatecla.mastermind.types--><polygon fill="#FFFFFF" filter="url(#f1nx270icmbm41)" points="443,494.9063,687,494.9063,694,517.2031,697,517.2031,697,577.9063,443,577.9063,443,494.9063" style="stroke: #000000; stroke-width: 2.0;"/><line style="stroke: #000000; stroke-width: 2.0;" x1="443" x2="694" y1="517.2031" y2="517.2031"/><text fill="#000000" font-family="sans-serif" font-size="14" font-weight="bold" lengthAdjust="spacingAndGlyphs" textLength="238" x="447" y="509.9014">usantatecla.mastermind.types</text><!--cluster usantatecla.mastermind.controllers--><polygon fill="#FFFFFF" filter="url(#f1nx270icmbm41)" points="14,57.9063,300,57.9063,307,80.2031,310,80.2031,310,140.9063,14,140.9063,14,57.9063" style="stroke: #000000; stroke-width: 2.0;"/><line style="stroke: #000000; stroke-width: 2.0;" x1="14" x2="307" y1="80.2031" y2="80.2031"/><text fill="#000000" font-family="sans-serif" font-size="14" font-weight="bold" lengthAdjust="spacingAndGlyphs" textLength="280" x="18" y="72.9014">usantatecla.mastermind.controllers</text><!--class usantatecla.mastermind.views.ColorView--><rect fill="#FEFECE" filter="url(#f1nx270icmbm41)" height="112.0234" id="usantatecla.mastermind.views.ColorView" style="stroke: #A80036; stroke-width: 1.5;" width="116" x="429" y="276.9063"/><ellipse cx="454.8" cy="292.9063" fill="#ADD1B2" rx="11" ry="11" style="stroke: #A80036; stroke-width: 1.0;"/><path d="M457.7688,298.5469 Q457.1906,298.8438 456.55,298.9844 Q455.9094,299.1406 455.2063,299.1406 Q452.7063,299.1406 451.3781,297.5 Q450.0656,295.8438 450.0656,292.7188 Q450.0656,289.5938 451.3781,287.9375 Q452.7063,286.2813 455.2063,286.2813 Q455.9094,286.2813 456.55,286.4375 Q457.2063,286.5938 457.7688,286.8906 L457.7688,289.6094 Q457.1438,289.0313 456.55,288.7656 Q455.9563,288.4844 455.3313,288.4844 Q453.9875,288.4844 453.3,289.5625 Q452.6125,290.625 452.6125,292.7188 Q452.6125,294.8125 453.3,295.8906 Q453.9875,296.9531 455.3313,296.9531 Q455.9563,296.9531 456.55,296.6875 Q457.1438,296.4063 457.7688,295.8281 L457.7688,298.5469 Z "/><text fill="#000000" font-family="sans-serif" font-size="12" lengthAdjust="spacingAndGlyphs" textLength="60" x="471.2" y="297.0605">ColorView</text><line style="stroke: #A80036; stroke-width: 1.5;" x1="430" x2="544" y1="308.9063" y2="308.9063"/><ellipse cx="440" cy="320.8086" fill="none" rx="3" ry="3" style="stroke: #038048; stroke-width: 1.0;"/><text fill="#000000" font-family="sans-serif" font-size="11" lengthAdjust="spacingAndGlyphs" text-decoration="underline" textLength="90" x="449" y="323.1167">INITIALS : char[]</text><line style="stroke: #000000; stroke-width: 1.0;" x1="449" x2="539" y1="325.1167" y2="325.1167"/><line style="stroke: #A80036; stroke-width: 1.5;" x1="430" x2="544" y1="329.7109" y2="329.7109"/><ellipse cx="440" cy="341.6133" fill="#84BE84" rx="3" ry="3" style="stroke: #038048; stroke-width: 1.0;"/><text fill="#000000" font-family="sans-serif" font-size="11" lengthAdjust="spacingAndGlyphs" textLength="64" x="449" y="343.9214">ColorView()</text><ellipse cx="440" cy="354.418" fill="#84BE84" rx="3" ry="3" style="stroke: #038048; stroke-width: 1.0;"/><text fill="#000000" font-family="sans-serif" font-size="11" lengthAdjust="spacingAndGlyphs" textLength="56" x="449" y="356.7261">getInitial()</text><ellipse cx="440" cy="367.2227" fill="#84BE84" rx="3" ry="3" style="stroke: #038048; stroke-width: 1.0;"/><text fill="#000000" font-family="sans-serif" font-size="11" lengthAdjust="spacingAndGlyphs" text-decoration="underline" textLength="74" x="449" y="369.5308">getInstance()</text><line style="stroke: #000000; stroke-width: 1.0;" x1="449" x2="523" y1="371.5308" y2="371.5308"/><polygon fill="#4177AF" points="440,376.0273,436,382.0273,444,382.0273" style="stroke: #1963A0; stroke-width: 1.0;"/><text fill="#000000" font-family="sans-serif" font-size="11" lengthAdjust="spacingAndGlyphs" text-decoration="underline" textLength="58" x="449" y="382.3354">allInitials()</text><line style="stroke: #000000; stroke-width: 1.0;" x1="449" x2="507" y1="384.3354" y2="384.3354"/><!--class usantatecla.mastermind.views.ErrorView--><rect fill="#FEFECE" filter="url(#f1nx270icmbm41)" height="86.4141" id="usantatecla.mastermind.views.ErrorView" style="stroke: #A80036; stroke-width: 1.5;" width="143" x="580.5" y="289.9063"/><ellipse cx="618.9" cy="305.9063" fill="#ADD1B2" rx="11" ry="11" style="stroke: #A80036; stroke-width: 1.0;"/><path d="M621.8688,311.5469 Q621.2906,311.8438 620.65,311.9844 Q620.0094,312.1406 619.3063,312.1406 Q616.8063,312.1406 615.4781,310.5 Q614.1656,308.8438 614.1656,305.7188 Q614.1656,302.5938 615.4781,300.9375 Q616.8063,299.2813 619.3063,299.2813 Q620.0094,299.2813 620.65,299.4375 Q621.3063,299.5938 621.8688,299.8906 L621.8688,302.6094 Q621.2438,302.0313 620.65,301.7656 Q620.0563,301.4844 619.4313,301.4844 Q618.0875,301.4844 617.4,302.5625 Q616.7125,303.625 616.7125,305.7188 Q616.7125,307.8125 617.4,308.8906 Q618.0875,309.9531 619.4313,309.9531 Q620.0563,309.9531 620.65,309.6875 Q621.2438,309.4063 621.8688,308.8281 L621.8688,311.5469 Z "/><text fill="#000000" font-family="sans-serif" font-size="12" lengthAdjust="spacingAndGlyphs" textLength="59" x="638.1" y="310.0605">ErrorView</text><line style="stroke: #A80036; stroke-width: 1.5;" x1="581.5" x2="722.5" y1="321.9063" y2="321.9063"/><ellipse cx="591.5" cy="333.8086" fill="none" rx="3" ry="3" style="stroke: #038048; stroke-width: 1.0;"/><text fill="#000000" font-family="sans-serif" font-size="11" lengthAdjust="spacingAndGlyphs" text-decoration="underline" textLength="117" x="600.5" y="336.1167">MESSAGES : String[]</text><line style="stroke: #000000; stroke-width: 1.0;" x1="600.5" x2="717.5" y1="338.1167" y2="338.1167"/><line style="stroke: #A80036; stroke-width: 1.5;" x1="581.5" x2="722.5" y1="342.7109" y2="342.7109"/><ellipse cx="591.5" cy="354.6133" fill="#84BE84" rx="3" ry="3" style="stroke: #038048; stroke-width: 1.0;"/><text fill="#000000" font-family="sans-serif" font-size="11" lengthAdjust="spacingAndGlyphs" textLength="63" x="600.5" y="356.9214">ErrorView()</text><ellipse cx="591.5" cy="367.418" fill="#84BE84" rx="3" ry="3" style="stroke: #038048; stroke-width: 1.0;"/><text fill="#000000" font-family="sans-serif" font-size="11" lengthAdjust="spacingAndGlyphs" textLength="77" x="600.5" y="369.7261">getMessage()</text><!--class usantatecla.mastermind.views.MessageView--><rect fill="#FEFECE" filter="url(#f1nx270icmbm41)" height="214.4609" id="usantatecla.mastermind.views.MessageView" style="stroke: #A80036; stroke-width: 1.5;" width="159" x="235.5" y="225.9063"/><ellipse cx="269.85" cy="241.9063" fill="#EB937F" rx="11" ry="11" style="stroke: #A80036; stroke-width: 1.0;"/><path d="M273.9594,247.9063 L266.2406,247.9063 L266.2406,235.5156 L273.9594,235.5156 L273.9594,237.6719 L268.6938,237.6719 L268.6938,240.3438 L273.4594,240.3438 L273.4594,242.5 L268.6938,242.5 L268.6938,245.75 L273.9594,245.75 L273.9594,247.9063 Z "/><text fill="#000000" font-family="sans-serif" font-size="12" lengthAdjust="spacingAndGlyphs" textLength="84" x="288.15" y="246.0605">MessageView</text><line style="stroke: #A80036; stroke-width: 1.5;" x1="236.5" x2="393.5" y1="257.9063" y2="257.9063"/><text fill="#000000" font-family="sans-serif" font-size="11" lengthAdjust="spacingAndGlyphs" textLength="59" x="241.5" y="272.1167">ATTEMPTS</text><text fill="#000000" font-family="sans-serif" font-size="11" lengthAdjust="spacingAndGlyphs" textLength="46" x="241.5" y="284.9214">LOOSER</text><text fill="#000000" font-family="sans-serif" font-size="11" lengthAdjust="spacingAndGlyphs" textLength="68" x="241.5" y="297.7261">MENU_TITLE</text><text fill="#000000" font-family="sans-serif" font-size="11" lengthAdjust="spacingAndGlyphs" textLength="147" x="241.5" y="310.5308">PROPOSED_COMBINATION</text><text fill="#000000" font-family="sans-serif" font-size="11" lengthAdjust="spacingAndGlyphs" textLength="118" x="241.5" y="323.3354">PROPOSE_COMMAND</text><text fill="#000000" font-family="sans-serif" font-size="11" lengthAdjust="spacingAndGlyphs" textLength="95" x="241.5" y="336.1401">REDO_COMMAND</text><text fill="#000000" font-family="sans-serif" font-size="11" lengthAdjust="spacingAndGlyphs" textLength="43" x="241.5" y="348.9448">RESULT</text><text fill="#000000" font-family="sans-serif" font-size="11" lengthAdjust="spacingAndGlyphs" textLength="46" x="241.5" y="361.7495">RESUME</text><text fill="#000000" font-family="sans-serif" font-size="11" lengthAdjust="spacingAndGlyphs" textLength="44" x="241.5" y="374.5542">SECRET</text><text fill="#000000" font-family="sans-serif" font-size="11" lengthAdjust="spacingAndGlyphs" textLength="30" x="241.5" y="387.3589">TITLE</text><text fill="#000000" font-family="sans-serif" font-size="11" lengthAdjust="spacingAndGlyphs" textLength="97" x="241.5" y="400.1636">UNDO_COMMAND</text><text fill="#000000" font-family="sans-serif" font-size="11" lengthAdjust="spacingAndGlyphs" textLength="42" x="241.5" y="412.9683">WINNER</text><text fill="#000000" font-family="sans-serif" font-size="11" lengthAdjust="spacingAndGlyphs" textLength="53" x="241.5" y="425.7729">message</text><line style="stroke: #A80036; stroke-width: 1.5;" x1="236.5" x2="393.5" y1="432.3672" y2="432.3672"/><!--class usantatecla.mastermind.views.View--><rect fill="#FEFECE" filter="url(#f1nx270icmbm41)" height="60.8047" id="usantatecla.mastermind.views.View" style="stroke: #A80036; stroke-width: 1.5;" width="77" x="123.5" y="302.4063"/><ellipse cx="145.7" cy="318.4063" fill="#A9DCDF" rx="11" ry="11" style="stroke: #A80036; stroke-width: 1.0;"/><path d="M145.8094,313.75 L144.6531,318.8281 L146.9813,318.8281 L145.8094,313.75 Z M144.325,311.5156 L147.3094,311.5156 L150.6688,323.9063 L148.2156,323.9063 L147.45,320.8438 L144.1688,320.8438 L143.4188,323.9063 L140.9813,323.9063 L144.325,311.5156 Z "/><text fill="#000000" font-family="sans-serif" font-size="12" font-style="italic" lengthAdjust="spacingAndGlyphs" textLength="29" x="161.3" y="322.5605">View</text><line style="stroke: #A80036; stroke-width: 1.5;" x1="124.5" x2="199.5" y1="334.4063" y2="334.4063"/><line style="stroke: #A80036; stroke-width: 1.5;" x1="124.5" x2="199.5" y1="342.4063" y2="342.4063"/><ellipse cx="134.5" cy="354.3086" fill="#84BE84" rx="3" ry="3" style="stroke: #038048; stroke-width: 1.0;"/><text fill="#000000" font-family="sans-serif" font-size="11" lengthAdjust="spacingAndGlyphs" textLength="51" x="143.5" y="356.6167">interact()</text><!--class usantatecla.mastermind.types.Color--><rect fill="#FEFECE" filter="url(#f1nx270icmbm41)" height="48" id="usantatecla.mastermind.types.Color" style="stroke: #A80036; stroke-width: 1.5;" width="64" x="455" y="521.9063"/><ellipse cx="470" cy="537.9063" fill="#ADD1B2" rx="11" ry="11" style="stroke: #A80036; stroke-width: 1.0;"/><path d="M472.9688,543.5469 Q472.3906,543.8438 471.75,543.9844 Q471.1094,544.1406 470.4063,544.1406 Q467.9063,544.1406 466.5781,542.5 Q465.2656,540.8438 465.2656,537.7188 Q465.2656,534.5938 466.5781,532.9375 Q467.9063,531.2813 470.4063,531.2813 Q471.1094,531.2813 471.75,531.4375 Q472.4063,531.5938 472.9688,531.8906 L472.9688,534.6094 Q472.3438,534.0313 471.75,533.7656 Q471.1563,533.4844 470.5313,533.4844 Q469.1875,533.4844 468.5,534.5625 Q467.8125,535.625 467.8125,537.7188 Q467.8125,539.8125 468.5,540.8906 Q469.1875,541.9531 470.5313,541.9531 Q471.1563,541.9531 471.75,541.6875 Q472.3438,541.4063 472.9688,540.8281 L472.9688,543.5469 Z "/><text fill="#000000" font-family="sans-serif" font-size="12" lengthAdjust="spacingAndGlyphs" textLength="32" x="484" y="542.0605">Color</text><line style="stroke: #A80036; stroke-width: 1.5;" x1="456" x2="518" y1="553.9063" y2="553.9063"/><line style="stroke: #A80036; stroke-width: 1.5;" x1="456" x2="518" y1="561.9063" y2="561.9063"/><!--class usantatecla.mastermind.types.Error--><rect fill="#FEFECE" filter="url(#f1nx270icmbm41)" height="48" id="usantatecla.mastermind.types.Error" style="stroke: #A80036; stroke-width: 1.5;" width="63" x="620.5" y="521.9063"/><ellipse cx="635.5" cy="537.9063" fill="#ADD1B2" rx="11" ry="11" style="stroke: #A80036; stroke-width: 1.0;"/><path d="M638.4688,543.5469 Q637.8906,543.8438 637.25,543.9844 Q636.6094,544.1406 635.9063,544.1406 Q633.4063,544.1406 632.0781,542.5 Q630.7656,540.8438 630.7656,537.7188 Q630.7656,534.5938 632.0781,532.9375 Q633.4063,531.2813 635.9063,531.2813 Q636.6094,531.2813 637.25,531.4375 Q637.9063,531.5938 638.4688,531.8906 L638.4688,534.6094 Q637.8438,534.0313 637.25,533.7656 Q636.6563,533.4844 636.0313,533.4844 Q634.6875,533.4844 634,534.5625 Q633.3125,535.625 633.3125,537.7188 Q633.3125,539.8125 634,540.8906 Q634.6875,541.9531 636.0313,541.9531 Q636.6563,541.9531 637.25,541.6875 Q637.8438,541.4063 638.4688,540.8281 L638.4688,543.5469 Z "/><text fill="#000000" font-family="sans-serif" font-size="12" lengthAdjust="spacingAndGlyphs" textLength="31" x="649.5" y="542.0605">Error</text><line style="stroke: #A80036; stroke-width: 1.5;" x1="621.5" x2="682.5" y1="553.9063" y2="553.9063"/><line style="stroke: #A80036; stroke-width: 1.5;" x1="621.5" x2="682.5" y1="561.9063" y2="561.9063"/><!--class usantatecla.mastermind.controllers.ControllersVisitor--><rect fill="#FEFECE" filter="url(#f1nx270icmbm41)" height="48" id="usantatecla.mastermind.controllers.ControllersVisitor" style="stroke: #A80036; stroke-width: 1.5;" width="139" x="92.5" y="84.9063"/><ellipse cx="107.5" cy="100.9063" fill="#ADD1B2" rx="11" ry="11" style="stroke: #A80036; stroke-width: 1.0;"/><path d="M110.4688,106.5469 Q109.8906,106.8438 109.25,106.9844 Q108.6094,107.1406 107.9063,107.1406 Q105.4063,107.1406 104.0781,105.5 Q102.7656,103.8438 102.7656,100.7188 Q102.7656,97.5938 104.0781,95.9375 Q105.4063,94.2813 107.9063,94.2813 Q108.6094,94.2813 109.25,94.4375 Q109.9063,94.5938 110.4688,94.8906 L110.4688,97.6094 Q109.8438,97.0313 109.25,96.7656 Q108.6563,96.4844 108.0313,96.4844 Q106.6875,96.4844 106,97.5625 Q105.3125,98.625 105.3125,100.7188 Q105.3125,102.8125 106,103.8906 Q106.6875,104.9531 108.0313,104.9531 Q108.6563,104.9531 109.25,104.6875 Q109.8438,104.4063 110.4688,103.8281 L110.4688,106.5469 Z "/><text fill="#000000" font-family="sans-serif" font-size="12" lengthAdjust="spacingAndGlyphs" textLength="107" x="121.5" y="105.0605">ControllersVisitor</text><line style="stroke: #A80036; stroke-width: 1.5;" x1="93.5" x2="230.5" y1="116.9063" y2="116.9063"/><line style="stroke: #A80036; stroke-width: 1.5;" x1="93.5" x2="230.5" y1="124.9063" y2="124.9063"/><!--link usantatecla.mastermind.views.ColorView to usantatecla.mastermind.types.Color--><path d="M487,402.1579 C487,443.2581 487,492.8262 487,521.713 " fill="none" id="usantatecla.mastermind.views.ColorView-usantatecla.mastermind.types.Color" style="stroke: #A80036; stroke-width: 1.0;"/><polygon fill="#FFFFFF" points="487,389.1482,483,395.1482,487,401.1482,491,395.1482,487,389.1482" style="stroke: #A80036; stroke-width: 1.0;"/><text fill="#000000" font-family="sans-serif" font-size="13" lengthAdjust="spacingAndGlyphs" textLength="31" x="488" y="482.9731">color</text><!--link usantatecla.mastermind.views.ErrorView to usantatecla.mastermind.types.Error--><path d="M652,389.1828 C652,432.3302 652,489.7424 652,521.7413 " fill="none" id="usantatecla.mastermind.views.ErrorView-usantatecla.mastermind.types.Error" style="stroke: #A80036; stroke-width: 1.0;"/><polygon fill="#FFFFFF" points="652,376.01,648,382.01,652,388.01,656,382.01,652,376.01" style="stroke: #A80036; stroke-width: 1.0;"/><text fill="#000000" font-family="sans-serif" font-size="13" lengthAdjust="spacingAndGlyphs" textLength="31" x="653" y="482.9731">error</text><!--link usantatecla.mastermind.controllers.ControllersVisitor to usantatecla.mastermind.views.View--><path d="M162,153.4779 C162,197.4919 162,263.6367 162,302.1181 " fill="none" id="usantatecla.mastermind.controllers.ControllersVisitor-usantatecla.mastermind.views.View" style="stroke: #A80036; stroke-width: 1.0; stroke-dasharray: 7.0,7.0;"/><polygon fill="none" points="155.0001,153.3046,162,133.3046,169.0001,153.3046,155.0001,153.3046" style="stroke: #A80036; stroke-width: 1.0;"/><text fill="#888888" font-family="sans-serif" font-size="10" lengthAdjust="spacingAndGlyphs" textLength="0" x="766" y="605.1885"/><text fill="#888888" font-family="sans-serif" font-size="10" lengthAdjust="spacingAndGlyphs" textLength="0" x="766" y="616.8291"/><text fill="#888888" font-family="sans-serif" font-size="10" lengthAdjust="spacingAndGlyphs" textLength="413" x="353" y="628.4697">PlantUML diagram generated by SketchIt! (https://bitbucket.org/pmesmeur/sketch.it)</text><text fill="#888888" font-family="sans-serif" font-size="10" lengthAdjust="spacingAndGlyphs" textLength="402" x="364" y="640.1104">For more information about this tool, please contact philippe.mesmeur@gmail.com</text><!--
@startuml

title __VIEWS's Class Diagram__\n

  namespace usantatecla.mastermind {
    namespace views {
      class usantatecla.mastermind.views.ColorView {
          {static} + INITIALS : char[]
          + ColorView()
          + getInitial()
          {static} + getInstance()
          {static} ~ allInitials()
      }
    }
  }
  

  namespace usantatecla.mastermind {
    namespace views {
      class usantatecla.mastermind.views.ErrorView {
          {static} + MESSAGES : String[]
          + ErrorView()
          + getMessage()
      }
    }
  }
  

  namespace usantatecla.mastermind {
    namespace views {
      enum MessageView {
        ATTEMPTS
        LOOSER
        MENU_TITLE
        PROPOSED_COMBINATION
        PROPOSE_COMMAND
        REDO_COMMAND
        RESULT
        RESUME
        SECRET
        TITLE
        UNDO_COMMAND
        WINNER
        message
      }
    }
  }
  

  namespace usantatecla.mastermind {
    namespace views {
      abstract class usantatecla.mastermind.views.View {
          + interact()
      }
    }
  }
  

  usantatecla.mastermind.views.ColorView o- - usantatecla.mastermind.types.Color : color
  usantatecla.mastermind.views.ErrorView o- - usantatecla.mastermind.types.Error : error
  usantatecla.mastermind.views.View .up.|> usantatecla.mastermind.controllers.ControllersVisitor


right footer


PlantUML diagram generated by SketchIt! (https://bitbucket.org/pmesmeur/sketch.it)
For more information about this tool, please contact philippe.mesmeur@gmail.com
endfooter

@enduml

PlantUML version 1.2017.15(Mon Jul 03 18:45:34 CEST 2017)
(GPL source distribution)
Java Runtime: OpenJDK Runtime Environment
JVM: OpenJDK 64-Bit Server VM
Java Version: 11.0.9.1+1-Ubuntu-0ubuntu1.18.04
Operating System: Linux
OS Version: 4.15.0-1102-oem
Default Encoding: UTF-8
Language: en
Country: US
--></g></svg>